<svg width="54" height="54" viewBox="0 0 54 54" fill="none" xmlns="http://www.w3.org/2000/svg">
<path d="M9.00008 12.0351L0.892578 3.93008L4.43008 0.392578L12.5351 8.50008H50.6401C51.0297 8.50005 51.414 8.59111 51.7622 8.766C52.1105 8.94088 52.413 9.19474 52.6457 9.50732C52.8783 9.8199 53.0347 10.1825 53.1023 10.5663C53.1699 10.9501 53.1469 11.3443 53.0351 11.7176L47.0351 31.7176C46.8807 32.2328 46.5643 32.6845 46.1329 33.0056C45.7014 33.3267 45.1779 33.5001 44.6401 33.5001H14.0001V38.5001H41.5001V43.5001H11.5001C10.837 43.5001 10.2012 43.2367 9.73231 42.7678C9.26347 42.299 9.00008 41.6631 9.00008 41.0001V12.0351ZM14.0001 13.5001V28.5001H42.7801L47.2801 13.5001H14.0001ZM12.7501 53.5001C11.7555 53.5001 10.8017 53.105 10.0984 52.4017C9.39517 51.6985 9.00008 50.7446 9.00008 49.7501C9.00008 48.7555 9.39517 47.8017 10.0984 47.0984C10.8017 46.3952 11.7555 46.0001 12.7501 46.0001C13.7446 46.0001 14.6985 46.3952 15.4017 47.0984C16.105 47.8017 16.5001 48.7555 16.5001 49.7501C16.5001 50.7446 16.105 51.6985 15.4017 52.4017C14.6985 53.105 13.7446 53.5001 12.7501 53.5001ZM42.7501 53.5001C41.7555 53.5001 40.8017 53.105 40.0984 52.4017C39.3952 51.6985 39.0001 50.7446 39.0001 49.7501C39.0001 48.7555 39.3952 47.8017 40.0984 47.0984C40.8017 46.3952 41.7555 46.0001 42.7501 46.0001C43.7446 46.0001 44.6985 46.3952 45.4017 47.0984C46.105 47.8017 46.5001 48.7555 46.5001 49.7501C46.5001 50.7446 46.105 51.6985 45.4017 52.4017C44.6985 53.105 43.7446 53.5001 42.7501 53.5001Z" fill="#2D2D2D"/>
</svg>
