<svg width="50" height="46" viewBox="0 0 50 46" fill="none" xmlns="http://www.w3.org/2000/svg">
<path d="M5 5.5V40.5H45V5.5H5ZM2.5 0.5H47.5C48.163 0.5 48.7989 0.763392 49.2678 1.23223C49.7366 1.70107 50 2.33696 50 3V43C50 43.663 49.7366 44.2989 49.2678 44.7678C48.7989 45.2366 48.163 45.5 47.5 45.5H2.5C1.83696 45.5 1.20107 45.2366 0.732233 44.7678C0.263392 44.2989 0 43.663 0 43V3C0 2.33696 0.263392 1.70107 0.732233 1.23223C1.20107 0.763392 1.83696 0.5 2.5 0.5ZM31.9825 17.4825L27.5 13H40V25.5L35.5175 21.0175L25.8575 30.6775L20.555 25.375L13.4825 32.445L9.9475 28.91L20.555 18.3025L25.8575 23.6075L31.9825 17.4825Z" fill="#2D2D2D"/>
</svg>
