<svg width="40" height="41" viewBox="0 0 40 41" fill="none" xmlns="http://www.w3.org/2000/svg">
<path fill-rule="evenodd" clip-rule="evenodd" d="M20 0C8.955 0 0 9.17889 0 20.5C0 31.8211 8.955 41 20 41C31.045 41 40 31.8211 40 20.5C40 9.17889 31.045 0 20 0ZM20.0007 3.4165C29.1907 3.4165 36.6673 11.0801 36.6673 20.4998C36.6673 29.9196 29.1907 37.5832 20.0007 37.5832C10.8106 37.5832 3.33398 29.9196 3.33398 20.4998C3.33398 11.0801 10.8106 3.4165 20.0007 3.4165ZM13.334 17.0833H16.6673V14.1928C16.6673 11.603 17.9973 10.25 20.994 10.25H25.0007V14.5208H22.5973C21.8273 14.5208 21.6673 14.8437 21.6673 15.6603V17.0833H25.0007L24.7007 20.5H21.6673V30.75H16.6673V20.5H13.334V17.0833Z" fill="white"/>
</svg>
