<svg width="57" height="46" viewBox="0 0 57 46" fill="none" xmlns="http://www.w3.org/2000/svg">
<path d="M10.5 15.499C11.163 15.499 11.7989 15.7624 12.2678 16.2313C12.7366 16.7001 13 17.336 13 17.999C16.9279 17.9932 20.7425 19.3147 23.825 21.749H29.25C32.58 21.749 35.575 23.1965 37.6325 25.4965L45.5 25.499C47.8632 25.4984 50.1781 26.1676 52.1763 27.4291C54.1746 28.6907 55.7743 30.4928 56.79 32.6265C50.8775 40.429 41.305 45.499 30.5 45.499C23.525 45.499 17.625 43.9915 12.85 41.354C12.6751 41.8367 12.3556 42.2536 11.935 42.548C11.5145 42.8424 11.0134 42.9999 10.5 42.999H3C2.33696 42.999 1.70107 42.7356 1.23223 42.2668C0.763392 41.798 0.5 41.1621 0.5 40.499V17.999C0.5 17.336 0.763392 16.7001 1.23223 16.2313C1.70107 15.7624 2.33696 15.499 3 15.499H10.5ZM13.0025 22.999L13 35.5515L13.1125 35.634C17.6 38.784 23.445 40.499 30.5 40.499C38.01 40.499 44.9975 37.609 50.0875 32.674L50.42 32.3415L50.12 32.0915C48.9395 31.167 47.5085 30.6183 46.0125 30.5165L45.5 30.499L40.22 30.4965C40.4025 31.3015 40.5 32.139 40.5 32.999V35.499H18V30.499L34.975 30.4965L34.89 30.3015C34.4109 29.3004 33.6739 28.4448 32.7548 27.8227C31.8357 27.2006 30.7675 26.8343 29.66 26.7615L29.25 26.749H21.925C20.7633 25.5608 19.3757 24.617 17.8438 23.973C16.3119 23.329 14.6667 22.9978 13.005 22.999H13.0025ZM8 20.499H5.5V37.999H8V20.499ZM32.115 1.93654L33 2.82404L33.885 1.93903C34.4645 1.35458 35.1538 0.890348 35.9132 0.572988C36.6726 0.255628 37.4872 0.091391 38.3103 0.089706C39.1334 0.088021 39.9487 0.248921 40.7094 0.56317C41.4701 0.877418 42.1612 1.33882 42.7431 1.9209C43.3251 2.50298 43.7863 3.19426 44.1003 3.95506C44.4143 4.71586 44.575 5.53119 44.5731 6.35426C44.5712 7.17732 44.4067 7.99189 44.0891 8.75122C43.7715 9.51055 43.3071 10.1997 42.7225 10.779L33 20.499L23.275 10.774C22.6905 10.1945 22.2263 9.50525 21.909 8.74584C21.5916 7.98642 21.4274 7.17179 21.4257 6.34873C21.424 5.52567 21.5849 4.71038 21.8991 3.94967C22.2134 3.18896 22.6748 2.49781 23.2569 1.9159C23.8389 1.33398 24.5302 0.872772 25.291 0.558739C26.0518 0.244706 26.8672 0.0840367 27.6902 0.0859545C28.5133 0.0878722 29.3279 0.252339 30.0872 0.569914C30.8465 0.887489 31.5356 1.35192 32.115 1.93654ZM26.815 5.47403C26.6078 5.68009 26.4793 5.95222 26.4519 6.24315C26.4245 6.53408 26.4999 6.82542 26.665 7.06653L26.81 7.23903L33 13.424L39.19 7.23903C39.3971 7.03221 39.525 6.75928 39.5515 6.46781C39.578 6.17634 39.5014 5.88481 39.335 5.64403L39.19 5.46903C38.9829 5.26235 38.7098 5.13488 38.4183 5.10884C38.1269 5.0828 37.8355 5.15984 37.595 5.32654L37.42 5.47153L32.9975 9.89153L28.58 5.46653L28.41 5.32654C28.1692 5.16016 27.8777 5.08354 27.5862 5.11004C27.2948 5.13654 27.0218 5.26446 26.815 5.47153V5.47403Z" fill="#2D2D2D"/>
</svg>
