<svg width="101" height="102" viewBox="0 0 101 102" fill="none" xmlns="http://www.w3.org/2000/svg">
<path d="M89.2928 86.3051C87.2188 88.462 85.2563 89.8529 83.7063 90.9518C65.4813 103.87 43.9161 100.104 39.333 99.1849C32.5653 97.8271 19.4829 95.202 10.025 84.214C-4.28445 67.5903 -2.05636 41.4 9.04319 24.1115C11.073 20.9491 21.7988 3.39724 43.5948 0.582732C56.786 -1.12077 72.1634 2.31495 83.2971 11.531C106.674 30.8769 105.009 69.9603 89.2928 86.3051Z" fill="#EFEFF4"/>
<path d="M0.176758 37.0048V52.9498C0.176702 53.844 0.518707 54.7045 1.13267 55.3547C1.74663 56.0049 2.58605 56.3956 3.47885 56.4468L20.5558 57.4225C21.0319 57.4497 21.5085 57.3794 21.9564 57.216C22.4043 57.0525 22.8141 56.7994 23.1608 56.472C23.5074 56.1446 23.7835 55.7498 23.9723 55.312C24.161 54.8741 24.2583 54.4023 24.2583 53.9255V36.7607C24.2583 36.2966 24.1661 35.8371 23.9871 35.409C23.808 34.9809 23.5457 34.5926 23.2153 34.2667C22.8849 33.9408 22.493 33.6838 22.0624 33.5107C21.6319 33.3376 21.1712 33.2517 20.7071 33.2581L3.6296 33.5022C2.70935 33.5154 1.83127 33.8902 1.18515 34.5456C0.539041 35.2011 0.176808 36.0844 0.176758 37.0048Z" fill="#A8ABB2"/>
<path d="M0.0551758 10.8388V26.7821C0.0552693 27.6765 0.397472 28.537 1.01164 29.1872C1.62581 29.8374 2.46542 30.2281 3.35837 30.2791L20.4343 31.2548C20.9103 31.282 21.3869 31.2118 21.8349 31.0483C22.2828 30.8849 22.6927 30.6317 23.0394 30.3043C23.386 29.9769 23.6622 29.5822 23.851 29.1443C24.0398 28.7065 24.1372 28.2347 24.1372 27.7578V10.5947C24.1372 10.1305 24.0449 9.67092 23.8658 9.2427C23.6866 8.81448 23.4241 8.42614 23.0935 8.10025C22.7629 7.77436 22.3709 7.51742 21.9402 7.34435C21.5094 7.17129 21.0486 7.08556 20.5845 7.09215L3.50746 7.33622C2.58731 7.34956 1.70937 7.72444 1.06337 8.37984C0.417381 9.03524 0.0552241 9.91851 0.0551758 10.8388Z" fill="#A8ABB2"/>
<path d="M0.0551759 62.4701V77.3974C0.0549584 78.3096 0.414193 79.1851 1.05503 79.8342C1.69586 80.4833 2.56668 80.8537 3.47875 80.8652C8.05143 80.9204 15.9748 80.879 20.4895 80.8475C20.9367 80.8445 21.379 80.7534 21.7909 80.5793C22.2029 80.4052 22.5765 80.1515 22.8903 79.8329C23.2041 79.5142 23.4519 79.1368 23.6197 78.7222C23.7874 78.3076 23.8717 77.864 23.8678 77.4168C23.8352 73.4962 23.7971 67.0941 23.8496 63.2376C23.8619 62.3356 23.5221 61.4643 22.9023 60.8088C22.2825 60.1532 21.4317 59.7651 20.5303 59.7268L3.67146 59.0051C3.20398 58.9851 2.73729 59.06 2.29949 59.2251C1.86168 59.3902 1.46182 59.6423 1.12396 59.966C0.786111 60.2897 0.517252 60.6784 0.333574 61.1088C0.149896 61.5391 0.0551967 62.0022 0.0551759 62.4701Z" fill="#A8ABB2"/>
<path d="M10.6573 12.1058C11.4122 12.0705 13.0318 12.0368 14.1913 12.3019C14.2308 12.3108 14.2677 12.3283 14.2995 12.3532C14.3313 12.3781 14.3572 12.4098 14.3753 12.446C14.3933 12.4821 14.4032 12.5218 14.404 12.5622C14.4049 12.6026 14.3967 12.6427 14.3802 12.6796C14.1792 13.1158 14.1146 13.7679 14.3211 14.3748C14.3515 14.4632 14.3526 14.559 14.3244 14.6481L13.6944 16.6327L10.7959 16.5775L10.368 14.3924C10.3524 14.313 10.3593 14.2308 10.3879 14.155C10.4878 13.89 10.7004 13.1782 10.421 12.4758C10.4048 12.436 10.3984 12.3928 10.4023 12.35C10.4062 12.3072 10.4203 12.2659 10.4435 12.2297C10.4666 12.1934 10.4981 12.1633 10.5353 12.1417C10.5725 12.1202 10.6144 12.1079 10.6573 12.1058Z" fill="white"/>
<path d="M16.6849 26.0779C16.6849 26.0779 16.0167 20.3269 13.787 16.7951L10.7372 16.6758C10.7372 16.6758 8.46055 21.5903 8.20654 25.7692C8.20654 25.7692 9.03483 26.5036 10.7698 26.164C12.5048 25.8244 12.5782 26.2441 13.6412 26.5809C14.7042 26.9178 16.6849 26.0779 16.6849 26.0779Z" fill="white"/>
<path d="M10.7124 16.1543L10.7361 16.6767C10.7361 16.6767 12.8273 17.1405 13.7859 16.7959L13.7715 16.3084C13.7715 16.3084 11.6881 16.4348 10.7124 16.1543Z" fill="#C6C9D3"/>
<path d="M13.8125 42.9492L13.6656 42.704C13.5023 42.4316 13.4502 42.1066 13.5204 41.7968L14.183 38.879L13.4425 36.3047C12.204 36.874 10.9373 36.8508 9.64569 36.3047L9.03442 38.879L9.69263 41.7868C9.76381 42.0994 9.71032 42.4274 9.54353 42.7012L9.39279 42.9492C8.72376 44.105 8.47045 45.455 8.67494 46.7747L9.90356 54.7103C11.0374 55.1693 12.1708 55.1693 13.3039 54.7103L14.5331 46.7747C14.7368 45.4547 14.4825 44.1047 13.8125 42.9492Z" fill="white"/>
<path d="M9.41996 68.2188L7.01959 74.739C6.83074 75.2525 6.86553 75.9041 7.11015 76.3531C7.53147 77.1261 8.28852 78.1537 9.31449 78.093C10.9473 77.9964 11.3703 76.5684 13.1997 77.6816C15.0291 78.7948 15.9397 76.1399 16.5857 76.1084C16.6575 76.1051 16.721 76.1029 16.7768 76.1012C16.9386 76.0968 17.0324 75.8058 16.9424 75.5916L13.9115 68.4363L9.41996 68.2188Z" fill="white"/>
<path d="M9.41991 67.9731L9.34923 67.5733L8.33154 62.5412C8.33154 62.5412 9.34481 61.7422 9.81307 61.7422C9.81307 61.7422 11.733 63.2011 13.3659 61.7422C13.3659 61.7422 14.4393 62.0547 14.8474 62.6809L13.8645 68.1122L9.41991 67.9731Z" fill="white"/>
<path d="M9.26514 68.8207L9.31428 67.4883C9.31428 67.4883 11.9096 68.3911 13.9527 67.5579L14.0002 68.9124C14.0002 68.9124 12.1481 70.744 9.26514 68.8207Z" fill="#C6C9D3"/>
<path d="M87.9694 0.504307C91.2924 9.16594 108.574 60.3428 63.461 85.1858C63.461 85.1858 43.4105 54.4217 86.6242 0.293923C86.7106 0.186128 86.8239 0.103054 86.9527 0.0530985C87.0815 0.00314324 87.2213 -0.0119223 87.3577 0.00942493C87.4942 0.0307721 87.6227 0.0877754 87.7301 0.174672C87.8374 0.261569 87.92 0.375279 87.9694 0.504307Z" fill="#B9BCC5"/>
<path opacity="0.6" d="M85.4336 9.47218C85.4634 11.0354 85.4491 12.5948 85.4198 14.1558C85.3906 15.7169 85.3359 17.2763 85.2635 18.8351C85.12 21.9531 84.9002 25.0666 84.6042 28.1754C84.0095 34.3897 83.12 40.5803 81.8267 46.6919C80.5335 52.8036 78.8322 58.8401 76.4942 64.6425C75.915 66.0947 75.2794 67.5255 74.6085 68.938C74.4373 69.2897 74.2744 69.6453 74.0961 69.9938L73.5643 71.0429C73.196 71.7331 72.8327 72.4267 72.439 73.1031C70.9005 75.8361 69.1112 78.42 67.0943 80.8216C67.052 80.8683 66.9931 80.8968 66.9302 80.901C66.8673 80.9052 66.8052 80.8849 66.757 80.8443C66.7088 80.8036 66.6782 80.7459 66.6717 80.6832C66.6652 80.6204 66.6833 80.5576 66.7221 80.508C68.7288 78.1361 70.5106 75.5828 72.0447 72.8811C72.4379 72.2108 72.8012 71.5239 73.1695 70.8381L73.7013 69.8005C73.8802 69.4554 74.0431 69.1025 74.2148 68.7513C74.8874 67.3499 75.524 65.9302 76.106 64.4873C78.454 58.7214 80.1668 52.7075 81.486 46.6207C82.8052 40.5339 83.7097 34.3522 84.327 28.15C84.6344 25.0478 84.8656 21.9393 85.0206 18.8246C85.0986 17.2682 85.1564 15.7106 85.194 14.152C85.2288 12.5943 85.2492 11.0343 85.2249 9.47826C85.2246 9.4647 85.2271 9.45122 85.232 9.43859C85.237 9.42597 85.2444 9.41444 85.2538 9.40468C85.2632 9.39491 85.2744 9.38709 85.2869 9.38167C85.2993 9.37624 85.3127 9.37332 85.3262 9.37306C85.3398 9.37281 85.3533 9.37523 85.3659 9.38019C85.3785 9.38514 85.39 9.39253 85.3998 9.40194C85.4096 9.41135 85.4174 9.42259 85.4228 9.43502C85.4282 9.44745 85.4312 9.46083 85.4314 9.47439L85.4336 9.47218Z" fill="white"/>
<path d="M98.722 21.666C99.8357 29.8997 104.358 78.0799 59.9091 90.4434C59.9091 90.4434 48.7671 59.4915 97.5927 21.2055C97.6903 21.1293 97.8062 21.0803 97.9287 21.0633C98.0513 21.0463 98.1762 21.062 98.2907 21.1087C98.4053 21.1554 98.5055 21.2316 98.5812 21.3294C98.6569 21.4273 98.7055 21.5434 98.722 21.666Z" fill="#A8ABB2"/>
<path d="M94.6738 28.9641C94.0587 31.6345 93.3386 34.2745 92.5755 36.9046C91.8124 39.5346 90.9857 42.1432 90.1083 44.7363C89.2309 47.3293 88.2916 49.902 87.2921 52.4514L86.9194 53.4084L86.5329 54.3593L86.1463 55.3101C86.0182 55.6282 85.8866 55.9442 85.7515 56.2582L84.9459 58.1478L84.1088 60.0253C83.8327 60.6531 83.5361 61.2693 83.2462 61.8895C82.9563 62.5096 82.6681 63.1313 82.3589 63.7426L81.4478 65.5803L80.4964 67.4025L80.2584 67.8575L80.0121 68.3048L79.5151 69.2043L79.0181 70.1038C78.8525 70.4042 78.6736 70.6958 78.5024 70.9928C78.154 71.5826 77.8116 72.1762 77.4582 72.7632L76.3676 74.5086L76.0949 74.9449L75.8099 75.3728L75.2384 76.2276L74.668 77.0846C74.4775 77.3695 74.2704 77.6434 74.0727 77.9234L73.4725 78.7588L73.1727 79.1768C73.0733 79.3165 72.9733 79.4557 72.8662 79.5899L71.6056 81.2166C69.8866 83.3558 68.0467 85.4011 66.0549 87.2979C66.0082 87.3424 65.9456 87.3665 65.881 87.3649C65.8165 87.3633 65.7552 87.3361 65.7107 87.2893C65.6661 87.2425 65.642 87.18 65.6436 87.1154C65.6452 87.0508 65.6724 86.9896 65.7192 86.945C67.6994 85.0759 69.5332 83.0549 71.2499 80.9372L72.5089 79.3259C72.6161 79.1934 72.716 79.0548 72.8154 78.9168L73.1152 78.5026L73.7155 77.6743C73.9137 77.3982 74.1208 77.1255 74.3113 76.8427L74.8833 75.9946L75.456 75.1464L75.7415 74.7218L76.0175 74.2889L77.1103 72.5583C77.4643 71.9746 77.8083 71.3849 78.1595 70.7985C78.3318 70.5042 78.5123 70.2143 78.6769 69.915L79.1739 69.021L79.6708 68.127L79.9193 67.6792L80.1584 67.2264L81.1148 65.4152L82.0336 63.5841C82.344 62.9767 82.6333 62.3566 82.9265 61.7398C83.2197 61.123 83.5185 60.509 83.7946 59.8839L84.6378 58.0164L85.4495 56.1345C85.5864 55.822 85.7191 55.5073 85.8476 55.1903L86.238 54.2427L86.6279 53.2952L87.0039 52.3421C88.01 49.802 88.9574 47.2384 89.846 44.6512C90.7347 42.064 91.5672 39.4606 92.3436 36.8411C93.1139 34.2187 93.845 31.5815 94.4695 28.9232C94.4757 28.8966 94.4922 28.8736 94.5154 28.8592C94.5386 28.8448 94.5666 28.8402 94.5932 28.8465C94.6198 28.8527 94.6428 28.8692 94.6572 28.8924C94.6716 28.9156 94.6762 28.9436 94.6699 28.9702L94.6738 28.9641Z" fill="#C6C9D3"/>
<path d="M22.8645 4.98901C22.5371 20.4431 21.4752 73.7515 21.981 92.6424C22.0363 94.6435 23.4062 96.2498 25.1169 96.3156C33.5776 96.6391 64.5951 97.4602 78.4341 96.7811C81.3171 96.6397 83.6092 93.9097 83.6688 90.5336C83.9565 74.3125 84.591 28.6884 83.083 7.78696C82.9024 5.28278 81.2221 3.28827 79.0845 3.03813C69.8702 1.95971 38.7195 -0.675892 26.763 0.231906C24.6078 0.395354 22.9159 2.46165 22.8645 4.98901Z" fill="#333435"/>
<path d="M26.6397 9.73086C26.1842 22.2054 24.7479 63.7035 25.2041 79.0483C25.2703 81.2912 26.7817 83.1052 28.6966 83.2361C36.5819 83.7761 63.4846 84.9661 75.0496 83.8827C77.1325 83.6877 78.7664 81.7175 78.879 79.2769C79.4649 66.5506 81.148 27.91 80.7106 12.7381C80.6411 10.3173 79.0386 8.34045 76.9762 8.12399C68.446 7.22778 39.8591 5.09578 30.0307 5.72307C28.1859 5.84013 26.7187 7.57125 26.6397 9.73086Z" fill="#B9BCC5"/>
<path d="M43.7749 2.93284C43.7749 3.40717 44.0908 3.79812 44.4961 3.82297C46.4944 3.94556 52.1268 4.29178 54.6398 4.46241C55.1367 4.49609 55.5233 3.97483 55.4311 3.40386L55.415 3.30668C55.351 2.91683 55.0749 2.62362 54.737 2.58883C53.0362 2.4055 47.9047 1.8997 44.5066 2.04272C44.0963 2.05873 43.7749 2.45465 43.7749 2.93284Z" fill="#5C5E61"/>
<path opacity="0.33" d="M51.0731 81.8888C57.5036 81.8888 62.7166 81.0895 62.7166 80.1036C62.7166 79.1176 57.5036 78.3184 51.0731 78.3184C44.6426 78.3184 39.4297 79.1176 39.4297 80.1036C39.4297 81.0895 44.6426 81.8888 51.0731 81.8888Z" fill="#333435"/>
<path d="M44.6477 57.3636C44.6477 57.3636 43.5478 63.1063 44.159 65.5525C44.7703 67.9987 46.1143 71.9082 46.1143 73.2528C46.1143 74.5974 45.8703 76.3081 45.8703 77.164C45.8703 78.0199 46.2369 80.3418 47.0923 80.5875C47.9476 80.8333 48.8041 80.3435 48.8041 80.3435C48.8041 80.3435 48.1928 76.0657 48.0708 74.6007C47.9487 73.1357 47.7041 59.0781 47.7041 57.3669C47.7041 55.6556 44.6477 57.3636 44.6477 57.3636Z" fill="url(#paint0_linear)"/>
<path d="M53.5699 56.9962C53.5699 56.9962 53.0812 59.1966 55.0365 63.5965C56.9918 67.9963 58.4601 73.7407 58.0923 75.3299C57.7246 76.9191 58.3369 77.5299 58.8256 78.5078C59.3143 79.4857 60.6589 80.9518 61.0256 81.0744C61.3922 81.197 61.5137 80.3438 61.5137 80.3438L61.1106 79.0318C60.7388 77.8242 60.4829 76.5839 60.3464 75.3277C59.8836 71.0577 58.6048 60.507 56.8676 56.2656L53.5699 56.9962Z" fill="url(#paint1_linear)"/>
<path d="M45.8745 76.959C45.8745 76.959 45.626 77.4063 45.7481 78.2616C45.8701 79.1169 45.9927 80.3395 45.9927 80.3395H46.1147V79.7282C46.1147 79.7282 46.4814 81.0728 46.726 81.44C46.9706 81.8072 47.7039 81.8067 48.3152 81.8067C48.9265 81.8067 49.2926 81.6841 49.2926 81.562C49.2926 81.44 48.8039 79.9734 48.8039 79.9734C48.8039 79.9734 48.1738 80.0463 47.5504 80.1357C47.4108 80.156 47.2685 80.1293 47.1457 80.06C47.0229 79.9906 46.9265 79.8825 46.8718 79.7525C46.6603 79.2511 46.102 78.3361 45.8745 76.959Z" fill="#333435"/>
<path d="M57.9704 75.3301C57.9704 75.3301 57.4811 75.4521 57.6037 76.3075C57.7263 77.1628 57.9704 78.0192 57.9704 78.752C57.9758 79.2432 58.0166 79.7333 58.0924 80.2186H58.2144V77.8994C58.2144 77.8994 59.0046 79.4119 59.1923 80.0993C59.559 81.4439 60.1703 81.4439 60.5369 81.566C60.7307 81.6306 61.1648 81.5925 61.5309 81.5428C61.6112 81.5321 61.6884 81.5044 61.7572 81.4615C61.8261 81.4187 61.885 81.3617 61.9301 81.2943C61.9752 81.2269 62.0054 81.1507 62.0187 81.0707C62.032 80.9907 62.0282 80.9088 62.0074 80.8304C61.897 80.4174 61.6888 79.9144 61.3238 79.7194L61.4381 80.0922C61.4381 80.0922 60.9047 80.7106 60.4154 80.344C59.9262 79.9773 59.6821 79.366 59.3155 78.5107C58.9488 77.6554 58.337 75.3301 57.9704 75.3301Z" fill="#333435"/>
<path d="M45.7476 34.0176C45.7476 34.0176 42.6924 51.8621 43.4257 59.3178C43.4257 59.3178 53.4479 59.4398 57.9703 58.7065C57.9703 58.7065 54.9145 43.6732 54.6699 41.9619C54.4253 40.2507 53.0812 34.6289 53.0812 34.6289C53.0812 34.6289 47.8255 36.4621 45.7476 34.0176Z" fill="#888B8F"/>
<path d="M43.3036 23.1406C43.3036 23.1406 37.8032 28.5184 37.8032 32.6736C37.8032 36.8288 39.6365 38.174 41.2268 38.5406L41.8375 37.6847C41.8375 37.6847 39.2052 35.757 40.6155 32.5494C41.9601 29.4936 44.0391 27.5383 44.0391 27.5383L43.3036 23.1406Z" fill="url(#paint2_linear)"/>
<path d="M47.2144 21.1855H52.7147L50.7589 34.7523H48.0702L47.2144 21.1855Z" fill="#F7E057"/>
<path d="M56.6258 22.5293C56.6258 22.5293 60.781 28.2721 60.0494 33.0402C59.3177 37.8084 56.3829 38.5406 56.3829 38.5406L55.6495 37.6847C55.6495 37.6847 59.9257 32.6736 55.0366 26.5603L56.6258 22.5293Z" fill="url(#paint3_linear)"/>
<path d="M45.259 33.7723C45.259 33.7723 42.8145 36.7061 42.3258 40.006C41.8912 42.9403 42.3258 53.7975 42.4279 56.1686C42.4339 56.3143 42.4712 56.457 42.5373 56.587C42.6035 56.717 42.6969 56.8312 42.8112 56.9218C43.6947 57.6242 46.0464 59.4265 48.3562 60.5922C48.4529 60.641 48.5605 60.6638 48.6686 60.6584C48.7767 60.6531 48.8816 60.6197 48.9728 60.5615C49.0641 60.5034 49.1387 60.4225 49.1893 60.3268C49.2399 60.2311 49.2647 60.1239 49.2613 60.0157C49.1359 55.8964 48.6649 40.5146 48.5589 38.2948C48.4369 35.7282 48.5589 20.5723 48.5589 20.5723L43.397 22.8169C43.2653 22.8742 43.1563 22.9736 43.0872 23.0995C43.0182 23.2255 42.9929 23.3708 43.0155 23.5127L43.7924 28.3946L45.259 33.7723Z" fill="#5C5E61"/>
<path d="M52.1037 20.6953L56.7482 22.284L56.8702 22.5286L53.6929 34.5061C53.6929 34.5061 54.4262 36.3399 54.6703 37.0732C54.8873 37.7237 57.5085 52.2231 58.0977 55.4898C58.1328 55.6835 58.1109 55.8831 58.0349 56.0646C57.9588 56.2461 57.8318 56.4017 57.6692 56.5125C56.4417 57.3502 53.4505 59.3839 51.9099 60.3668C51.8178 60.4257 51.7119 60.4594 51.6028 60.4645C51.4936 60.4697 51.385 60.4461 51.2878 60.3961C51.1906 60.3462 51.1082 60.2716 51.0489 60.1798C50.9895 60.088 50.9553 59.9823 50.9496 59.8731L49.6592 35.1185L52.1037 20.6953Z" fill="#5C5E61"/>
<path d="M45.1367 33.1621L45.0142 34.1395C45.0142 34.1395 47.8254 36.8634 53.9364 35.0738L53.8144 34.0174C53.8144 34.0174 46.8474 34.0175 45.1367 33.1621Z" fill="#333435"/>
<path d="M45.9924 19.7176C45.9924 19.7176 45.7478 18.373 49.416 18.373C53.0842 18.373 54.1825 19.2289 53.9379 20.2063C53.9379 20.2063 54.6712 20.573 54.3045 21.7955C53.9379 23.0181 48.6816 25.5846 46.9703 28.0286C45.2591 30.4726 42.2033 21.3068 45.9924 19.7176Z" fill="#F3D33F"/>
<path d="M46.8479 19.7176C47.4592 20.6956 51.2483 21.3068 52.4703 20.573C53.2191 20.124 53.6001 19.6287 53.4742 19.1157C52.8469 18.6712 51.5774 18.373 49.415 18.373C48.0064 18.373 47.1765 18.5718 46.6867 18.8148C46.6143 19.0616 46.6281 19.3659 46.8479 19.7176Z" fill="#E5B731"/>
<path d="M41.3478 37.8071C41.3478 37.8071 42.0811 36.9512 42.6924 36.9512C43.3037 36.9512 43.5477 37.3178 44.037 37.6845C44.5262 38.0511 44.037 38.0511 43.4257 38.907C42.8144 39.7629 40.3699 39.885 41.3478 37.8071Z" fill="url(#paint4_linear)"/>
<path d="M56.1368 37.6852C56.1368 37.6852 55.2815 37.4411 54.6702 37.0745C54.0589 36.7078 52.8369 37.9298 52.8369 37.9298C52.8369 37.9298 52.9595 38.5411 53.9369 38.7852C54.9143 39.0292 56.5035 40.0265 56.5035 38.4185C56.5035 37.6852 56.1368 37.6852 56.1368 37.6852Z" fill="url(#paint5_linear)"/>
<path d="M53.0814 13.3633C53.0814 13.3633 53.8147 13.3633 53.9367 14.4632C54.0588 15.5632 52.7148 16.0524 52.7148 16.0524L51.9814 15.9299L52.3475 13.6073L53.0814 13.3633Z" fill="#333435"/>
<path d="M46.3594 15.8063C46.3594 15.8063 47.0927 19.4728 49.2926 19.9621C51.4925 20.4513 52.2258 17.0289 52.3479 16.7859C52.3479 16.7859 52.8366 17.0305 52.9591 16.5413C53.0817 16.052 53.6924 14.8295 52.5919 14.8295C52.5919 14.8295 52.8366 13.6075 52.4699 12.9962C52.1032 12.3849 51.3699 10.9183 49.7813 11.2844C48.1926 11.6505 46.3594 13.973 46.3594 15.8063Z" fill="url(#paint6_linear)"/>
<path d="M45.5035 11.1614C45.5035 11.1614 45.2588 12.628 44.2809 11.8947C43.303 11.1614 42.081 10.0615 40.8573 11.1614C39.6337 12.2614 41.224 12.9947 41.224 12.9947C41.224 12.9947 40.6166 12.734 40.2041 13.2393C40.1488 13.31 40.0695 13.3579 39.9812 13.3737C39.8929 13.3896 39.8018 13.3724 39.7254 13.3254C39.5752 13.2321 39.3742 13.1907 39.1461 13.3613C38.6574 13.728 38.2902 14.828 39.1461 16.7849C39.875 18.4509 41.314 18.5199 42.1014 17.5966C42.1336 17.5608 42.1726 17.5317 42.2162 17.5109C42.2597 17.4902 42.3069 17.4783 42.355 17.4759C42.4031 17.4735 42.4513 17.4806 42.4967 17.4969C42.542 17.5131 42.5837 17.5382 42.6194 17.5707C42.7436 17.6745 42.9507 17.7275 43.3019 17.6402C43.6735 17.5475 43.8154 17.4012 43.8486 17.2537C43.8687 17.1725 43.9156 17.1004 43.9817 17.0491C44.0478 16.9978 44.1293 16.9703 44.213 16.971C44.3831 16.971 44.557 16.897 44.6774 16.6645C44.7104 16.5991 44.7619 16.5448 44.8256 16.5084C44.8892 16.472 44.9621 16.455 45.0352 16.4597C45.308 16.4807 45.7122 16.4392 45.8685 16.0494C46.1125 15.4381 46.3864 15.3984 46.3864 15.3984C46.3864 15.3984 47.4571 15.8048 48.9237 14.4596C50.3903 13.1145 50.5129 12.871 51.4903 13.1156C51.4903 13.1156 51.8569 14.5822 52.8349 14.4596C52.8033 14.3451 52.8101 14.2234 52.8542 14.113C52.8984 14.0027 52.9776 13.91 53.0795 13.8489C53.4307 13.6142 54.2314 12.4823 52.6836 11.6352C52.6238 11.6015 52.5744 11.5519 52.5408 11.4921C52.5072 11.4322 52.4907 11.3642 52.4931 11.2956C52.5025 10.8439 52.3313 9.82291 50.757 9.08187C48.757 8.14315 47.4361 8.4452 46.7956 9.56007C46.7484 9.64099 46.6715 9.70039 46.5813 9.72572C46.2809 9.81131 45.5979 10.1189 45.5035 11.1614Z" fill="#333435"/>
<path d="M46.605 15.9292C46.605 15.9292 46.605 15.1959 45.9937 15.3185C45.3824 15.4411 46.1224 17.2247 46.669 16.8823L46.605 15.9292Z" fill="url(#paint7_linear)"/>
<path d="M68.6371 80.4306C68.6371 80.4306 67.7094 85.276 68.2246 87.3385C68.7398 89.4009 69.8746 92.6991 69.8746 93.8333C69.8746 94.9675 69.6681 96.4109 69.6681 97.1326C69.6681 97.8544 69.9773 99.813 70.699 100.019C71.4207 100.226 72.1424 99.813 72.1424 99.813C72.1424 99.813 71.6272 96.205 71.524 94.9675C71.4207 93.7301 71.2147 81.874 71.2147 80.4306C71.2147 78.9872 68.6371 80.4306 68.6371 80.4306Z" fill="url(#paint8_linear)"/>
<path d="M76.1611 80.1227C76.1611 80.1227 75.7486 81.9786 77.3985 85.6898C79.0485 89.4011 80.2854 94.2488 79.9756 95.5873C79.6658 96.9258 80.1821 97.4432 80.5946 98.2681C81.0071 99.0931 82.1407 100.33 82.4499 100.433C82.7592 100.537 82.8624 99.8143 82.8624 99.8143L82.5223 98.7099C82.2085 97.6912 81.9928 96.6448 81.8779 95.5851C81.4869 91.9831 80.4085 83.0829 78.9447 79.5059L76.1611 80.1227Z" fill="url(#paint9_linear)"/>
<path d="M69.6688 96.9629C69.6688 96.9629 69.4595 97.3395 69.5628 98.0612C69.6661 98.7829 69.7688 99.8138 69.7688 99.8138H69.872V99.2987C69.872 99.2987 70.1813 100.433 70.3872 100.742C70.5932 101.051 71.2122 101.051 71.7279 101.051C72.2437 101.051 72.5524 100.948 72.5524 100.845C72.5524 100.743 72.1399 99.5046 72.1399 99.5046C72.1399 99.5046 71.6087 99.5665 71.0824 99.6416C70.9647 99.6587 70.8446 99.6363 70.7409 99.5779C70.6373 99.5194 70.556 99.4282 70.5098 99.3185C70.3337 98.8956 69.861 98.1225 69.6688 96.9629Z" fill="#333435"/>
<path d="M79.8727 95.584C79.8727 95.584 79.4602 95.6872 79.5635 96.409C79.6667 97.1307 79.8727 97.8524 79.8727 98.4708C79.8773 98.8852 79.9116 99.2988 79.9754 99.7083H80.0787V97.7491C80.0787 97.7491 80.7452 99.0252 80.9036 99.605C81.2129 100.739 81.728 100.739 82.0378 100.842C82.2035 100.898 82.5674 100.865 82.8755 100.823C82.9432 100.814 83.0083 100.79 83.0663 100.754C83.1243 100.718 83.1739 100.67 83.2119 100.613C83.2499 100.556 83.2753 100.492 83.2865 100.424C83.2977 100.357 83.2945 100.288 83.2769 100.222C83.1831 99.8734 83.0086 99.4488 82.7004 99.2831L82.7971 99.5973C82.7971 99.5973 82.347 100.119 81.9346 99.8093C81.5221 99.4996 81.3161 98.9849 81.0063 98.2632C80.6966 97.5415 80.1819 95.584 79.8727 95.584Z" fill="#333435"/>
<path d="M67.5007 51.5645C67.5007 51.5645 62.8623 56.1007 62.8623 59.606C62.8623 63.1113 64.4084 64.2444 65.7491 64.5547L66.2627 63.8346C66.2627 63.8346 64.0418 62.2084 65.2317 59.5049C66.3659 56.9273 68.705 54.8389 68.705 54.8389L67.5007 51.5645Z" fill="url(#paint10_linear)"/>
<path d="M78.7386 51.0469C78.7386 51.0469 82.2439 55.8929 81.6254 59.9134C81.007 63.9339 78.5332 64.5518 78.5332 64.5518L77.9136 63.8328C77.9136 63.8328 81.5222 59.6058 77.3984 54.4511L78.7386 51.0469Z" fill="url(#paint11_linear)"/>
<path d="M74.3799 47.4846L74.8161 49.8855C74.8382 50.0035 74.8183 50.1254 74.7598 50.2302C74.7013 50.3349 74.6079 50.4158 74.4958 50.4587C74.0082 50.6404 73.0888 50.8336 71.8762 50.4179C71.7683 50.3796 71.6763 50.3061 71.6151 50.2093C71.5539 50.1124 71.5271 49.9978 71.5388 49.8839L71.7542 47.6199C71.7657 47.4973 71.8208 47.3829 71.9094 47.2974C71.9981 47.2119 72.1144 47.161 72.2374 47.1539L73.842 47.0594C73.9682 47.0522 74.0926 47.0915 74.1917 47.1699C74.2908 47.2482 74.3578 47.3602 74.3799 47.4846Z" fill="url(#paint12_linear)"/>
<path d="M70.0781 45.3766C70.0781 45.3766 70.6966 48.4688 72.5525 48.8818C74.4084 49.2949 75.0268 46.4075 75.1301 46.2015C75.1301 46.2015 75.5426 46.4075 75.6459 45.995C75.7491 45.5825 76.2643 44.5521 75.3361 44.5521C75.3361 44.5521 75.5426 43.5206 75.2334 43.006C74.9241 42.4914 74.3051 41.2534 72.965 41.5626C71.6248 41.8718 70.0781 43.8304 70.0781 45.3766Z" fill="url(#paint13_linear)"/>
<path d="M70.2847 45.4804C70.2847 45.4804 70.2847 44.8619 69.769 44.9646C69.2533 45.0673 69.8794 46.5726 70.3389 46.2844L70.2847 45.4804Z" fill="url(#paint14_linear)"/>
<path d="M75.3295 42.3253C75.3295 42.3253 75.8155 44.5964 75.4985 44.565C75.1816 44.5335 75.0347 45.5633 75.0347 45.5633C75.0347 45.5633 74.7404 43.5026 73.4162 43.65C72.0921 43.7974 71.5023 43.3557 71.5023 43.3557C71.5023 43.3557 70.3251 44.2392 70.3251 45.269C70.3251 46.2988 69.8833 44.6798 69.8833 44.2386C69.8833 43.7974 70.7668 41.2949 72.3853 41.1464C74.0037 40.9978 75.3295 42.3253 75.3295 42.3253Z" fill="#333435"/>
<path d="M79.8398 83.1721C75.7277 83.6332 71.7409 83.9573 67.9888 83.5846C67.8997 83.5754 67.8172 83.5338 67.7568 83.4678C67.6965 83.4017 67.6625 83.3157 67.6613 83.2262L67.626 81.0352H79.7156L80.0392 82.9065C80.0445 82.9372 80.0435 82.9686 80.0362 82.9988C80.0289 83.0291 80.0156 83.0575 79.9969 83.0824C79.9782 83.1073 79.9547 83.1281 79.9276 83.1435C79.9006 83.1589 79.8708 83.1687 79.8398 83.1721Z" fill="#888B8F"/>
<path d="M67.3521 82.1606C68.4648 82.3014 76.3202 82.5107 79.974 81.5996C80.0145 81.5895 80.0497 81.5645 80.0725 81.5296C80.0953 81.4947 80.1041 81.4524 80.0972 81.4113C79.8211 79.6901 77.2622 63.7799 77.0889 63.2631C76.8829 62.6468 76.2644 61.1062 76.2644 61.1062L78.9448 51.0398L78.8421 50.8344L74.9215 49.4992L71.9314 49.3965L67.5769 51.2828C67.4659 51.3306 67.374 51.4141 67.3158 51.52C67.2576 51.6259 67.2364 51.7482 67.2555 51.8675L69.7414 60.49C69.7414 60.49 67.0909 62.9549 66.6784 65.728C66.3256 68.0991 67.1047 80.5725 67.213 82.011C67.2153 82.0482 67.2304 82.0834 67.2558 82.1107C67.2812 82.1379 67.3152 82.1556 67.3521 82.1606ZM71.895 61.7335C71.895 61.5954 71.895 61.4574 71.895 61.31H72.9176L72.8624 61.6181L72.8696 61.7523C72.5447 61.7683 72.219 61.762 71.895 61.7335Z" fill="#5C5E61"/>
<path d="M69.636 60.0176L69.5327 60.8425C69.5327 60.8425 71.3157 63.1397 76.4704 61.6305L76.3677 60.7415C76.3677 60.7415 71.0794 60.7415 69.636 60.0176Z" fill="#333435"/>
<path d="M65.8512 63.9346C65.8512 63.9346 66.4696 63.2129 66.9854 63.2129C67.5011 63.2129 67.7071 63.5221 68.1196 63.8313C68.5321 64.1406 68.1196 64.1411 67.6038 64.8628C67.0881 65.5845 65.0262 65.6872 65.8512 63.9346Z" fill="url(#paint15_linear)"/>
<path d="M78.3265 63.8328C78.3265 63.8328 77.6048 63.6269 77.0891 63.3176C76.5734 63.0084 75.543 64.0393 75.543 64.0393C75.543 64.0393 75.6462 64.5545 76.4706 64.7611C77.2951 64.9676 78.6358 65.8102 78.6358 64.4518C78.6358 63.8328 78.3265 63.8328 78.3265 63.8328Z" fill="url(#paint16_linear)"/>
<path d="M75.9184 43.9425C75.9184 43.9425 76.8019 44.826 76.2127 46.1512C75.6235 47.4765 75.4766 47.9182 76.2127 48.2115C76.9488 48.5047 78.126 49.3893 77.0962 51.0083C76.0664 52.6273 71.0619 51.8918 69.7372 52.3335C68.4125 52.7753 66.9409 50.2728 67.9702 48.9481C68.9995 47.6234 68.7063 47.1811 68.4119 46.2976C68.1176 45.4141 67.9702 44.2373 69.148 43.3544C70.3258 42.4714 69.5898 41.1456 71.5025 40.4107C73.4153 39.6757 76.9482 41.1456 75.9184 43.9425Z" fill="#333435"/>
<path d="M15.8269 73.6073H15.8148C15.7342 73.6041 15.6581 73.5691 15.6033 73.5098C15.5486 73.4506 15.5196 73.372 15.5227 73.2914C15.5321 73.0457 15.7861 67.2438 18.4625 65.0384C19.3068 64.3426 20.3019 64.0776 21.4201 64.2504C23.6636 64.5978 25.2727 66.2902 26.0734 69.1456C26.6648 71.2538 26.6112 73.2318 26.6084 73.3124C26.606 73.3915 26.5729 73.4665 26.5161 73.5215C26.4593 73.5766 26.3833 73.6073 26.3042 73.6073H26.2948C26.2142 73.6048 26.1379 73.5705 26.0826 73.5118C26.0273 73.4531 25.9975 73.3748 25.9999 73.2942C25.9999 73.2169 26.1772 65.6027 21.3268 64.8518C20.3742 64.7043 19.5647 64.9191 18.8502 65.5072C16.3841 67.5387 16.1329 73.2577 16.1307 73.3152C16.1275 73.3936 16.0942 73.4679 16.0376 73.5223C15.9809 73.5768 15.9055 73.6072 15.8269 73.6073Z" fill="#E5B731"/>
<path d="M36.0376 98.3982L32.0668 71.4812L17.1516 71.2344L12.3442 99.893H34.746C34.9334 99.893 35.1187 99.8526 35.2891 99.7746C35.4595 99.6967 35.6112 99.5829 35.7337 99.4411C35.8563 99.2992 35.9468 99.1327 35.9993 98.9527C36.0517 98.7728 36.0648 98.5837 36.0376 98.3982Z" fill="#F7E057"/>
<path d="M14.2546 71.4832L17.1513 71.2363L12.344 99.8949H9.46819C9.3318 99.8949 9.19714 99.8644 9.07397 99.8059C8.95079 99.7473 8.84219 99.6621 8.75603 99.5564C8.66987 99.4507 8.6083 99.3271 8.5758 99.1946C8.5433 99.0622 8.54068 98.9242 8.56812 98.7906L14.2546 71.4832Z" fill="#ECC538"/>
<path d="M19.032 73.5425H19.0199C18.98 73.541 18.9407 73.5317 18.9044 73.515C18.8681 73.4983 18.8354 73.4746 18.8083 73.4453C18.7811 73.4159 18.7601 73.3815 18.7462 73.344C18.7324 73.3065 18.7262 73.2666 18.7278 73.2267C18.7372 72.981 18.9917 67.1791 21.6676 64.9737C22.5119 64.2779 23.5075 64.0129 24.6252 64.1863C26.8687 64.533 28.4778 66.226 29.2785 69.0809C29.8699 71.1897 29.8163 73.1671 29.8135 73.2482C29.8129 73.2883 29.8042 73.3279 29.788 73.3646C29.7718 73.4013 29.7483 73.4344 29.7191 73.4618C29.6898 73.4893 29.6553 73.5106 29.6177 73.5245C29.58 73.5383 29.54 73.5445 29.4999 73.5425C29.4193 73.5401 29.343 73.5057 29.2877 73.447C29.2324 73.3883 29.2026 73.3101 29.205 73.2294C29.2078 73.1527 29.3823 65.538 24.5324 64.7876C23.5799 64.6401 22.7698 64.8544 22.0553 65.443C19.5892 67.4745 19.338 73.193 19.3358 73.2504C19.3325 73.3289 19.2991 73.403 19.2425 73.4574C19.1859 73.5118 19.1105 73.5423 19.032 73.5425Z" fill="#E5B731"/>
<path d="M28.2823 87.8092H28.2718C28.1912 87.806 28.1152 87.771 28.0604 87.7117C28.0056 87.6525 27.9766 87.5739 27.9797 87.4933C27.9875 87.2912 28.1967 82.5187 30.406 80.6975C31.1101 80.1177 31.9389 79.8963 32.8705 80.041C37.3228 80.7301 37.1726 87.2377 37.1643 87.5149C37.1634 87.5549 37.1546 87.5944 37.1383 87.631C37.122 87.6676 37.0986 87.7005 37.0693 87.728C37.0401 87.7554 37.0057 87.7767 36.9682 87.7906C36.9306 87.8046 36.8907 87.8109 36.8506 87.8092C36.77 87.8067 36.6937 87.7724 36.6384 87.7137C36.5831 87.655 36.5534 87.5767 36.5558 87.4961C36.5558 87.4337 36.6988 81.2492 32.7777 80.6423C32.014 80.5236 31.3652 80.6975 30.7931 81.1669C28.792 82.8163 28.5893 87.4701 28.5877 87.5171C28.5844 87.5958 28.5508 87.6702 28.4938 87.7246C28.4369 87.7791 28.3611 87.8094 28.2823 87.8092Z" fill="#48494B"/>
<path d="M44.8256 99.5245L41.5754 86.018L29.3671 85.8164L25.4316 100.749H43.7682C43.9217 100.749 44.0734 100.716 44.213 100.652C44.3526 100.588 44.4768 100.495 44.5772 100.379C44.6775 100.263 44.7516 100.126 44.7945 99.9788C44.8374 99.8313 44.848 99.6764 44.8256 99.5245Z" fill="#5C5E61"/>
<path d="M26.9959 86.018L29.367 85.8164L25.4315 100.749H23.0775C22.9657 100.749 22.8554 100.724 22.7544 100.676C22.6535 100.628 22.5645 100.558 22.494 100.472C22.4234 100.385 22.3731 100.283 22.3466 100.175C22.3201 100.066 22.3182 99.9531 22.3409 99.8437L26.9959 86.018Z" fill="#48494B"/>
<path d="M30.906 87.7587H30.8939C30.8133 87.7556 30.7372 87.7205 30.6824 87.6613C30.6277 87.6021 30.5987 87.5235 30.6018 87.4429C30.6095 87.2408 30.8188 82.4677 33.0281 80.6471C33.7322 80.0667 34.561 79.8459 35.4925 79.99C39.9448 80.6791 39.7946 87.1894 39.7858 87.4655C39.7867 87.5068 39.7792 87.5478 39.7638 87.5861C39.7483 87.6244 39.7252 87.6592 39.6959 87.6883C39.6666 87.7174 39.6317 87.7402 39.5933 87.7553C39.5549 87.7705 39.5138 87.7777 39.4725 87.7764C39.4312 87.7752 39.3906 87.7656 39.3532 87.7481C39.3158 87.7307 39.2823 87.7058 39.2547 87.675C39.2272 87.6442 39.2063 87.6082 39.1931 87.569C39.18 87.5299 39.175 87.4885 39.1784 87.4473C39.1784 87.3849 39.3214 81.1998 35.3998 80.593C34.6366 80.4748 33.9878 80.6482 33.4157 81.1181C31.4146 82.7675 31.212 87.4214 31.2103 87.4683C31.2068 87.5466 31.1731 87.6204 31.1165 87.6746C31.0598 87.7287 30.9844 87.7588 30.906 87.7587Z" fill="#48494B"/>
<defs>
<linearGradient id="paint0_linear" x1="43.9741" y1="68.6288" x2="48.8035" y2="68.6288" gradientUnits="userSpaceOnUse">
<stop stop-color="white"/>
<stop offset="1" stop-color="#EFEFF4"/>
</linearGradient>
<linearGradient id="paint1_linear" x1="7804.92" y1="30925.1" x2="8963.45" y2="30925.1" gradientUnits="userSpaceOnUse">
<stop stop-color="white"/>
<stop offset="1" stop-color="#EFEFF4"/>
</linearGradient>
<linearGradient id="paint2_linear" x1="4287.55" y1="11546.8" x2="7505.42" y2="7615.9" gradientUnits="userSpaceOnUse">
<stop stop-color="white"/>
<stop offset="1" stop-color="#EFEFF4"/>
</linearGradient>
<linearGradient id="paint3_linear" x1="5439.31" y1="11876.8" x2="4081.77" y2="5358.07" gradientUnits="userSpaceOnUse">
<stop stop-color="white"/>
<stop offset="1" stop-color="#EFEFF4"/>
</linearGradient>
<linearGradient id="paint4_linear" x1="2465.7" y1="1834.77" x2="2541.53" y2="2090.95" gradientUnits="userSpaceOnUse">
<stop stop-color="white"/>
<stop offset="1" stop-color="#EFEFF4"/>
</linearGradient>
<linearGradient id="paint5_linear" x1="3705" y1="1624.53" x2="3605.99" y2="1829.78" gradientUnits="userSpaceOnUse">
<stop stop-color="white"/>
<stop offset="1" stop-color="#EFEFF4"/>
</linearGradient>
<linearGradient id="paint6_linear" x1="5821.73" y1="2495.59" x2="6678.73" y2="2495.59" gradientUnits="userSpaceOnUse">
<stop stop-color="white"/>
<stop offset="1" stop-color="#EFEFF4"/>
</linearGradient>
<linearGradient id="paint7_linear" x1="796.085" y1="488.434" x2="810.933" y2="488.434" gradientUnits="userSpaceOnUse">
<stop stop-color="white"/>
<stop offset="1" stop-color="#EFEFF4"/>
</linearGradient>
<linearGradient id="paint8_linear" x1="3309.3" y1="33122.7" x2="3609.81" y2="33122.7" gradientUnits="userSpaceOnUse">
<stop stop-color="white"/>
<stop offset="1" stop-color="#EFEFF4"/>
</linearGradient>
<linearGradient id="paint9_linear" x1="6412.11" y1="34194.7" x2="7236.55" y2="34194.7" gradientUnits="userSpaceOnUse">
<stop stop-color="white"/>
<stop offset="1" stop-color="#EFEFF4"/>
</linearGradient>
<linearGradient id="paint10_linear" x1="4135.04" y1="15789.3" x2="6365.99" y2="12762.1" gradientUnits="userSpaceOnUse">
<stop stop-color="white"/>
<stop offset="1" stop-color="#EFEFF4"/>
</linearGradient>
<linearGradient id="paint11_linear" x1="4439.06" y1="16322" x2="3473.06" y2="11684" gradientUnits="userSpaceOnUse">
<stop stop-color="white"/>
<stop offset="1" stop-color="#EFEFF4"/>
</linearGradient>
<linearGradient id="paint12_linear" x1="3398.53" y1="3356.77" x2="3420.65" y2="3119.15" gradientUnits="userSpaceOnUse">
<stop stop-color="white"/>
<stop offset="1" stop-color="#EFEFF4"/>
</linearGradient>
<linearGradient id="paint13_linear" x1="5178.5" y1="6328.85" x2="5291.48" y2="5286.95" gradientUnits="userSpaceOnUse">
<stop stop-color="white"/>
<stop offset="1" stop-color="#EFEFF4"/>
</linearGradient>
<linearGradient id="paint14_linear" x1="722.23" y1="1199.59" x2="751.149" y2="1009.35" gradientUnits="userSpaceOnUse">
<stop stop-color="white"/>
<stop offset="1" stop-color="#EFEFF4"/>
</linearGradient>
<linearGradient id="paint15_linear" x1="2051.73" y1="2554.84" x2="2176.88" y2="2554.84" gradientUnits="userSpaceOnUse">
<stop stop-color="white"/>
<stop offset="1" stop-color="#EFEFF4"/>
</linearGradient>
<linearGradient id="paint16_linear" x1="2961.03" y1="2330.52" x2="3134.26" y2="2330.52" gradientUnits="userSpaceOnUse">
<stop stop-color="white"/>
<stop offset="1" stop-color="#EFEFF4"/>
</linearGradient>
</defs>
</svg>
