<svg width="107" height="106" viewBox="0 0 107 106" fill="none" xmlns="http://www.w3.org/2000/svg">
<path d="M93.281 90.1423C91.119 92.3925 89.0675 93.8434 87.4496 94.9921C68.4267 108.469 45.9172 104.541 41.1334 103.582C34.0691 102.165 20.4143 99.4265 10.5418 87.9634C-4.39442 70.6181 -2.06886 43.2974 9.51689 25.2591C11.6362 21.9601 22.8299 3.6489 45.5818 0.712142C59.3506 -1.06475 75.401 2.51942 87.0242 12.1343C111.422 32.317 109.686 73.0898 93.281 90.1423Z" fill="#EFEFF4"/>
<path d="M54.061 82.2233C54.061 82.2233 66.7868 29.6627 92.7554 1.08043C94.5013 -0.84079 97.6794 -0.0817679 98.3525 2.42435C102.855 19.1906 111.402 70.0194 54.061 82.2233Z" fill="#C6C9D3"/>
<path opacity="0.5" d="M59.3202 78.8561C59.2942 78.8813 59.2788 78.9156 59.277 78.9518C59.2753 78.988 59.2873 79.0236 59.3108 79.0513C59.3342 79.0789 59.3673 79.0967 59.4034 79.1009C59.4394 79.1051 59.4757 79.0955 59.5049 79.074C64.8385 75.1474 85.4805 55.8271 93.2559 17.162C93.2608 17.1371 93.256 17.1113 93.2425 17.0898C93.229 17.0683 93.2079 17.0527 93.1833 17.0463C93.1588 17.0398 93.1327 17.0429 93.1104 17.055C93.0881 17.067 93.0712 17.0871 93.0631 17.1112C90.4396 26.0699 79.7309 59.0987 59.3202 78.8561Z" fill="white"/>
<path d="M42.3229 82.6707C42.3229 82.6707 29.6673 35.7265 6.66058 10.9259C5.1139 9.25889 2.45353 10.0658 1.97147 12.354C-1.23816 27.6577 -6.64773 73.8523 42.3229 82.6707Z" fill="#D7D9E0"/>
<path opacity="0.5" d="M37.7511 79.8354C37.8651 79.9429 37.7289 80.1276 37.6027 80.0388C32.9469 76.7 14.7824 60.0553 6.81296 25.464C6.80875 25.4532 6.80678 25.4416 6.80718 25.43C6.80758 25.4184 6.81033 25.4071 6.81528 25.3966C6.82023 25.3861 6.82726 25.3767 6.83595 25.369C6.84463 25.3614 6.8548 25.3555 6.86581 25.3519C6.87683 25.3483 6.88847 25.347 6.90002 25.348C6.91156 25.349 6.92278 25.3524 6.93298 25.3579C6.94319 25.3634 6.95216 25.371 6.95935 25.38C6.96654 25.3891 6.97181 25.3996 6.97482 25.4108C9.51716 33.3919 19.7666 62.7875 37.7511 79.8354Z" fill="white"/>
<path d="M64.6211 87.4129C64.6211 87.4129 79.1214 67.0029 99.0336 50.3675C103.762 46.417 105.711 38.7099 106.096 40.5511C109.327 55.9898 104.673 87.3697 64.6211 87.4129Z" fill="#D7D9E0"/>
<path opacity="0.5" d="M72.5546 86.2583C72.4488 86.3272 72.53 86.492 72.6434 86.4406C76.8054 84.4539 93.5618 73.844 104.781 47.5639C104.785 47.556 104.787 47.5473 104.788 47.5383C104.789 47.5294 104.788 47.5203 104.786 47.5117C104.783 47.5031 104.779 47.495 104.773 47.4881C104.767 47.4811 104.76 47.4753 104.753 47.471C104.745 47.4668 104.736 47.4641 104.727 47.4632C104.718 47.4623 104.709 47.4632 104.7 47.4658C104.692 47.4684 104.684 47.4727 104.677 47.4784C104.67 47.4841 104.664 47.4911 104.66 47.4991C101.514 53.4637 89.2238 75.3013 72.5546 86.2583Z" fill="white"/>
<path d="M39.7713 84.1597C39.7713 84.1597 39.1485 33.4086 22.4582 1.83119C21.3363 -0.292781 18.4597 -0.260644 17.391 1.89313C10.2431 16.2929 -7.04961 61.0168 39.7713 84.1597Z" fill="#C6C9D3"/>
<path opacity="0.24" d="M35.9174 79.9816C36.0039 80.123 35.8199 80.2702 35.7164 80.1423C31.9079 75.4356 17.9767 53.4462 18.8777 16.4429C18.8759 16.4306 18.8767 16.4181 18.8801 16.4061C18.8834 16.3942 18.8893 16.3831 18.8972 16.3736C18.9051 16.3641 18.915 16.3563 18.9261 16.3508C18.9372 16.3454 18.9494 16.3423 18.9618 16.3419C18.9742 16.3414 18.9865 16.3436 18.998 16.3482C19.0095 16.3528 19.0199 16.3598 19.0285 16.3688C19.0371 16.3777 19.0437 16.3883 19.048 16.4C19.0522 16.4116 19.0539 16.4241 19.053 16.4364C19.5503 25.1847 22.2708 57.6404 35.9174 79.9816Z" fill="white"/>
<path d="M87.7083 18.7687C88.0415 18.5794 88.4233 18.493 88.8055 18.5207C89.1877 18.5483 89.5531 18.6887 89.8555 18.924C90.158 19.1593 90.3839 19.479 90.5046 19.8427C90.6254 20.2063 90.6356 20.5977 90.5339 20.9671C90.4323 21.3366 90.2234 21.6677 89.9336 21.9184C89.6438 22.1691 89.2862 22.3283 88.9059 22.3758C88.5257 22.4233 88.1399 22.357 87.7973 22.1853C87.4548 22.0135 87.1708 21.7441 86.9814 21.411C86.728 20.9641 86.6622 20.4349 86.7985 19.9395C86.9348 19.4442 87.262 19.0231 87.7083 18.7687ZM88.0881 19.4372C87.8872 19.5514 87.7247 19.7227 87.6212 19.9292C87.5176 20.1358 87.4776 20.3685 87.5063 20.5978C87.5349 20.8271 87.6309 21.0428 87.7821 21.2176C87.9333 21.3923 88.1329 21.5183 88.3557 21.5797C88.5785 21.641 88.8145 21.6349 89.0338 21.5622C89.2532 21.4894 89.446 21.3532 89.588 21.1709C89.7299 20.9885 89.8147 20.7682 89.8314 20.5377C89.8482 20.3072 89.7962 20.0769 89.6821 19.876C89.6063 19.7425 89.5049 19.6252 89.3838 19.5309C89.2626 19.4365 89.1241 19.367 88.976 19.3263C88.828 19.2855 88.6734 19.2743 88.521 19.2934C88.3687 19.3124 88.2216 19.3613 88.0881 19.4372Z" fill="white"/>
<path d="M92.2625 18.4112C91.7198 17.459 90.8215 16.761 89.7647 16.4703C88.7079 16.1797 87.579 16.3202 86.6257 16.861C86.505 16.93 86.3879 17.0053 86.2751 17.0865C86.2403 17.1123 86.2001 17.1297 86.1574 17.1374C86.1148 17.1451 86.071 17.1429 86.0294 17.1309C85.9878 17.1189 85.9496 17.0975 85.9176 17.0683C85.8856 17.0391 85.8608 17.003 85.845 16.9627L85.6259 16.3953C85.603 16.3351 85.6013 16.2689 85.6211 16.2076C85.6408 16.1464 85.6809 16.0936 85.7346 16.0581C85.8392 15.988 85.9467 15.9208 86.0577 15.8577C86.709 15.4863 87.4319 15.2577 88.1784 15.1874C88.9248 15.117 89.6777 15.2064 90.3869 15.4496C91.0961 15.6929 91.7454 16.0843 92.2916 16.598C92.8377 17.1116 93.2682 17.7357 93.5545 18.4287C93.5692 18.4639 93.5766 18.5018 93.5763 18.54C93.576 18.5782 93.5679 18.6159 93.5527 18.6509C93.5374 18.6859 93.5151 18.7175 93.4873 18.7436C93.4595 18.7698 93.4267 18.7901 93.3908 18.8032L92.8334 19.006C92.7656 19.0308 92.6908 19.0284 92.6247 18.9993C92.5586 18.9702 92.5063 18.9167 92.4787 18.85C92.4161 18.6993 92.3439 18.5527 92.2625 18.4112Z" fill="white"/>
<path d="M94.8501 16.9369C93.916 15.2987 92.3703 14.0978 90.552 13.5975C88.7337 13.0972 86.7912 13.3385 85.1505 14.2684C85.1157 14.2887 85.0769 14.3012 85.0367 14.3051C84.9966 14.309 84.956 14.3041 84.918 14.2908C84.8799 14.2776 84.8451 14.2562 84.8161 14.2282C84.787 14.2002 84.7644 14.1663 84.7497 14.1287L84.5347 13.5725L84.6597 13.2219C88.6108 11.0289 93.6184 12.4278 95.8575 16.3655C96.0496 16.7037 96.2176 17.0552 96.36 17.4172C96.3732 17.452 96.3793 17.4891 96.378 17.5263C96.3767 17.5635 96.368 17.6001 96.3523 17.6339C96.3367 17.6677 96.3145 17.698 96.287 17.7231C96.2596 17.7482 96.2273 17.7676 96.1923 17.7801L95.636 17.9817C95.568 18.0069 95.4928 18.0045 95.4265 17.9752C95.3602 17.9458 95.3079 17.8918 95.2808 17.8245C95.158 17.519 95.0141 17.2224 94.8501 16.9369Z" fill="white"/>
<path d="M97.4413 15.4651C94.7622 10.752 88.8349 9.02013 84.057 11.4754C84.0219 11.4939 83.9834 11.5049 83.9438 11.5075C83.9042 11.5101 83.8646 11.5043 83.8274 11.4905C83.7902 11.4767 83.7564 11.4552 83.7281 11.4275C83.6998 11.3997 83.6777 11.3662 83.6632 11.3293L83.4499 10.7766C83.425 10.712 83.4249 10.6405 83.4495 10.5758C83.4741 10.5111 83.5216 10.4578 83.5831 10.426C88.9004 7.72938 95.468 9.66229 98.4445 14.8966C98.7192 15.3811 98.9575 15.8854 99.1574 16.4053C99.1705 16.4402 99.1766 16.4774 99.1752 16.5147C99.1738 16.552 99.165 16.5886 99.1494 16.6225C99.1337 16.6563 99.1115 16.6868 99.084 16.712C99.0565 16.7372 99.0242 16.7566 98.9891 16.7693L98.4334 16.9709C98.364 16.9959 98.2875 16.9925 98.2204 16.9616C98.1534 16.9307 98.1013 16.8746 98.0752 16.8055C97.8974 16.3436 97.6855 15.8956 97.4413 15.4651Z" fill="white"/>
<path d="M78.739 14.5098H16.595C14.5381 14.5098 12.8706 16.1772 12.8706 18.2342V80.3781C12.8706 82.4351 14.5381 84.1025 16.595 84.1025H78.739C80.7959 84.1025 82.4634 82.4351 82.4634 80.3781V18.2342C82.4634 16.1772 80.7959 14.5098 78.739 14.5098Z" fill="white"/>
<path d="M33.3583 22.7305H21.0176V35.0711H33.3583V22.7305Z" fill="#48494B"/>
<path d="M32.1663 24.0879H22.3008V33.9534H32.1663V24.0879Z" fill="white"/>
<path d="M30.4715 25.9648H23.9927V32.4437H30.4715V25.9648Z" fill="#48494B"/>
<path d="M74.2098 22.7305H61.8691V35.0711H74.2098V22.7305Z" fill="#48494B"/>
<path d="M73.0164 24.0879H63.1509V33.9534H73.0164V24.0879Z" fill="white"/>
<path d="M71.3226 25.9648H64.8438V32.4437H71.3226V25.9648Z" fill="#48494B"/>
<path d="M74.1927 63.5703H61.8521V75.911H74.1927V63.5703Z" fill="#48494B"/>
<path d="M72.9998 64.9258H63.1343V74.7913H72.9998V64.9258Z" fill="white"/>
<path d="M71.306 66.8027H64.8271V73.2816H71.306V66.8027Z" fill="#48494B"/>
<path d="M47.7591 43.9141H42.3677V49.3055H47.7591V43.9141Z" fill="#48494B"/>
<path d="M53.1507 49.0898H47.7593V54.4813H53.1507V49.0898Z" fill="#48494B"/>
<path d="M53.2425 38.4336H47.8511V43.825H53.2425V38.4336Z" fill="#48494B"/>
<path d="M58.453 38.4336H53.0615V43.825H58.453V38.4336Z" fill="#48494B"/>
<path d="M63.8446 43.9141H58.4531V49.3055H63.8446V43.9141Z" fill="#48494B"/>
<path d="M68.8197 49.0898H63.4282V54.4813H68.8197V49.0898Z" fill="#48494B"/>
<path d="M68.8197 54.3887H63.4282V59.7801H68.8197V54.3887Z" fill="#48494B"/>
<path d="M69.1463 38.5234H63.7549V43.9149H69.1463V38.5234Z" fill="#48494B"/>
<path d="M42.3934 43.9141H37.002V49.3055H42.3934V43.9141Z" fill="#48494B"/>
<path d="M37.0658 38.5234H31.6743V43.9149H37.0658V38.5234Z" fill="#48494B"/>
<path d="M26.3792 38.6152H20.9878V44.0067H26.3792V38.6152Z" fill="#48494B"/>
<path d="M74.2103 43.9141H68.8188V49.3055H74.2103V43.9141Z" fill="#48494B"/>
<path d="M74.1185 54.3887H68.7271V59.7801H74.1185V54.3887Z" fill="#48494B"/>
<path d="M42.3934 33.0449H37.002V38.4364H42.3934V33.0449Z" fill="#48494B"/>
<path d="M42.3934 27.7617H37.002V33.1532H42.3934V27.7617Z" fill="#48494B"/>
<path d="M42.368 22.6367H36.9766V28.0282H42.368V22.6367Z" fill="#48494B"/>
<path d="M47.6668 22.6367H42.2754V28.0282H47.6668V22.6367Z" fill="#48494B"/>
<path d="M53.1507 27.7617H47.7593V33.1532H53.1507V27.7617Z" fill="#48494B"/>
<path d="M58.453 33.1309H53.0615V38.5223H58.453V33.1309Z" fill="#48494B"/>
<path d="M58.453 22.3711H53.0615V27.7625H58.453V22.3711Z" fill="#48494B"/>
<path d="M42.3934 49.0898H37.002V54.4813H42.3934V49.0898Z" fill="#48494B"/>
<path d="M47.7591 54.5742H42.3677V59.9657H47.7591V54.5742Z" fill="#48494B"/>
<path d="M36.9769 54.4805H31.5854V59.8719H36.9769V54.4805Z" fill="#48494B"/>
<path d="M31.6361 43.9141H26.2446V49.3055H31.6361V43.9141Z" fill="#48494B"/>
<path d="M26.3714 43.9141H20.98V49.3055H26.3714V43.9141Z" fill="#48494B"/>
<path d="M47.7591 59.8398H42.3677V65.2313H47.7591V59.8398Z" fill="#48494B"/>
<path d="M47.7591 65.0977H42.3677V70.4891H47.7591V65.0977Z" fill="#48494B"/>
<path d="M53.0619 65.0977H47.6704V70.4891H53.0619V65.0977Z" fill="#48494B"/>
<path d="M31.6493 54.4805H26.2578V59.8719H31.6493V54.4805Z" fill="#48494B"/>
<path d="M31.6493 59.748H26.2578V65.1395H31.6493V59.748Z" fill="#48494B"/>
<path d="M36.9769 65.0078H31.5854V70.3993H36.9769V65.0078Z" fill="#48494B"/>
<path d="M42.3934 70.5176H37.002V75.909H42.3934V70.5176Z" fill="#48494B"/>
<path d="M58.3641 70.5176H52.9727V75.909H58.3641V70.5176Z" fill="#48494B"/>
<path d="M26.1947 65.0977H20.8032V70.4891H26.1947V65.0977Z" fill="#48494B"/>
<path d="M58.3641 59.8398H52.9727V65.2313H58.3641V59.8398Z" fill="#48494B"/>
<path d="M85.7545 91.2078C85.741 92.571 84.5701 93.676 83.1391 93.6789L48.5478 93.7543C47.1069 93.7543 45.9102 92.6534 45.8763 91.285L44.2665 26.861C44.2549 26.5002 44.3164 26.1407 44.4473 25.8043C44.5782 25.4678 44.7758 25.1613 45.0282 24.9032C45.2806 24.6451 45.5826 24.4407 45.916 24.3022C46.2494 24.1638 46.6074 24.0943 46.9684 24.0978L83.6837 24.2731C84.0453 24.2756 84.4029 24.3497 84.7358 24.491C85.0687 24.6324 85.3704 24.8383 85.6233 25.0968C85.8763 25.3553 86.0756 25.6613 86.2097 25.9972C86.3438 26.3331 86.4101 26.6922 86.4048 27.0538L85.7545 91.2078Z" fill="#333435"/>
<path d="M82.6369 30.7672C82.6468 29.2953 81.4391 28.094 79.9391 28.0876L50.7977 27.959C49.2884 27.9526 48.09 29.1475 48.1227 30.6246L49.3206 85.4004C49.3498 86.7444 50.5365 87.8259 51.9704 87.8236L79.6557 87.7798C81.0815 87.7798 82.2442 86.6935 82.2536 85.356L82.6369 30.7672Z" fill="#979AA0"/>
<g opacity="0.46">
<path opacity="0.46" d="M81.5924 34.1959C81.6017 32.8595 80.5061 31.7698 79.1441 31.7634L52.6975 31.6465C51.3273 31.6407 50.2399 32.7251 50.2691 34.0656L51.3565 83.7777C51.3834 84.9948 52.4603 85.9782 53.7616 85.9765L78.887 85.9361C80.1807 85.9361 81.2365 84.951 81.2447 83.7374L81.5924 34.1959Z" fill="#B9BCC5"/>
</g>
<path d="M69.7593 26.0049C69.7597 26.0724 69.7467 26.1394 69.7211 26.2019C69.6954 26.2644 69.6577 26.3211 69.61 26.3689C69.5623 26.4168 69.5056 26.4546 69.4432 26.4804C69.3807 26.5062 69.3138 26.5193 69.2463 26.5191L61.6625 26.4852C61.5247 26.4841 61.3929 26.4291 61.2953 26.3318C61.1978 26.2346 61.1422 26.1029 61.1407 25.9652C61.1395 25.8976 61.1517 25.8305 61.1768 25.7678C61.2019 25.705 61.2393 25.6479 61.2868 25.5998C61.3342 25.5518 61.3909 25.5137 61.4533 25.4878C61.5157 25.4619 61.5827 25.4488 61.6502 25.4492L69.2428 25.4849C69.3801 25.4859 69.5113 25.5412 69.6081 25.6386C69.7048 25.736 69.7592 25.8676 69.7593 26.0049Z" fill="#5C5E61"/>
<path d="M77.9386 37.1816H53.9829C53.466 37.1816 53.0469 37.6007 53.0469 38.1177V62.0733C53.0469 62.5903 53.466 63.0094 53.9829 63.0094H77.9386C78.4556 63.0094 78.8747 62.5903 78.8747 62.0733V38.1177C78.8747 37.6007 78.4556 37.1816 77.9386 37.1816Z" fill="white"/>
<path d="M51.6119 40.8894C51.5464 40.8894 51.4835 40.8633 51.4371 40.817C51.3908 40.7706 51.3647 40.7078 51.3647 40.6422V35.8105H57.0466C57.1122 35.8105 57.175 35.8366 57.2214 35.8829C57.2677 35.9293 57.2938 35.9922 57.2938 36.0577C57.2938 36.1233 57.2677 36.1861 57.2214 36.2325C57.175 36.2788 57.1122 36.3049 57.0466 36.3049H51.8591V40.6422C51.8591 40.7078 51.833 40.7706 51.7867 40.817C51.7403 40.8633 51.6775 40.8894 51.6119 40.8894Z" fill="#333435"/>
<path d="M57.0168 64.4363H51.335V59.6046C51.335 59.539 51.361 59.4762 51.4074 59.4298C51.4537 59.3835 51.5166 59.3574 51.5821 59.3574C51.6477 59.3574 51.7105 59.3835 51.7569 59.4298C51.8032 59.4762 51.8293 59.539 51.8293 59.6046V63.9419H57.0168C57.0824 63.9419 57.1452 63.968 57.1916 64.0143C57.2379 64.0607 57.264 64.1236 57.264 64.1891C57.264 64.2547 57.2379 64.3175 57.1916 64.3639C57.1452 64.4102 57.0824 64.4363 57.0168 64.4363Z" fill="#333435"/>
<path d="M80.2011 64.4363H74.5186C74.4531 64.4363 74.3902 64.4102 74.3439 64.3639C74.2975 64.3175 74.2715 64.2547 74.2715 64.1891C74.2715 64.1236 74.2975 64.0607 74.3439 64.0143C74.3902 63.968 74.4531 63.9419 74.5186 63.9419H79.7068V59.6046C79.7068 59.539 79.7328 59.4762 79.7792 59.4298C79.8255 59.3835 79.8884 59.3574 79.9539 59.3574C80.0195 59.3574 80.0823 59.3835 80.1287 59.4298C80.175 59.4762 80.2011 59.539 80.2011 59.6046V64.4363Z" fill="#333435"/>
<path d="M80.182 40.8894C80.1164 40.8894 80.0535 40.8633 80.0072 40.817C79.9608 40.7706 79.9348 40.7078 79.9348 40.6422V36.3049H74.7467C74.6811 36.3049 74.6183 36.2788 74.5719 36.2325C74.5255 36.1861 74.4995 36.1233 74.4995 36.0577C74.4995 35.9922 74.5255 35.9293 74.5719 35.8829C74.6183 35.8366 74.6811 35.8105 74.7467 35.8105H80.4291V40.6422C80.4291 40.7078 80.4031 40.7706 80.3567 40.817C80.3104 40.8633 80.2475 40.8894 80.182 40.8894Z" fill="#333435"/>
<path d="M74.0852 70.125H57.2272C56.8509 70.125 56.5459 70.43 56.5459 70.8063V76.6804C56.5459 77.0567 56.8509 77.3617 57.2272 77.3617H74.0852C74.4615 77.3617 74.7665 77.0567 74.7665 76.6804V70.8063C74.7665 70.43 74.4615 70.125 74.0852 70.125Z" fill="#F7E057"/>
<path d="M60.0873 39.0273H54.8916V44.223H60.0873V39.0273Z" fill="#333435"/>
<path d="M59.5844 39.5977H55.4312V43.751H59.5844V39.5977Z" fill="#333435"/>
<path d="M58.8716 40.3887H56.144V43.1162H58.8716V40.3887Z" fill="#333435"/>
<path d="M77.2855 39.0273H72.0898V44.223H77.2855V39.0273Z" fill="#333435"/>
<path d="M76.7832 39.5977H72.6299V43.751H76.7832V39.5977Z" fill="#333435"/>
<path d="M76.0703 40.3887H73.3428V43.1162H76.0703V40.3887Z" fill="#333435"/>
<path d="M77.2787 56.2246H72.083V61.4203H77.2787V56.2246Z" fill="#333435"/>
<path d="M76.7763 56.791H72.623V60.9443H76.7763V56.791Z" fill="#333435"/>
<path d="M76.0635 57.584H73.3359V60.3116H76.0635V57.584Z" fill="#333435"/>
<path d="M66.1499 47.9453H63.8799V50.2154H66.1499V47.9453Z" fill="#333435"/>
<path d="M68.4204 50.125H66.1504V52.3951H68.4204V50.125Z" fill="#333435"/>
<path d="M68.4585 45.6387H66.1885V47.9087H68.4585V45.6387Z" fill="#333435"/>
<path d="M70.6524 45.6387H68.3823V47.9087H70.6524V45.6387Z" fill="#333435"/>
<path d="M72.9224 47.9453H70.6523V50.2154H72.9224V47.9453Z" fill="#333435"/>
<path d="M75.0171 50.125H72.7471V52.3951H75.0171V50.125Z" fill="#333435"/>
<path d="M75.0171 52.3574H72.7471V54.6275H75.0171V52.3574Z" fill="#333435"/>
<path d="M75.1543 45.6797H72.8843V47.9497H75.1543V45.6797Z" fill="#333435"/>
<path d="M63.8907 47.9453H61.6206V50.2154H63.8907V47.9453Z" fill="#333435"/>
<path d="M61.648 45.6797H59.3779V47.9497H61.648V45.6797Z" fill="#333435"/>
<path d="M57.1485 45.7168H54.8784V47.9868H57.1485V45.7168Z" fill="#333435"/>
<path d="M77.2862 47.9453H75.0161V50.2154H77.2862V47.9453Z" fill="#333435"/>
<path d="M77.2481 52.3574H74.978V54.6275H77.2481V52.3574Z" fill="#333435"/>
<path d="M63.8907 43.3691H61.6206V45.6392H63.8907V43.3691Z" fill="#333435"/>
<path d="M63.8907 41.1484H61.6206V43.4185H63.8907V41.1484Z" fill="#333435"/>
<path d="M63.8804 38.9883H61.6104V41.2583H63.8804V38.9883Z" fill="#333435"/>
<path d="M66.1109 38.9883H63.8408V41.2583H66.1109V38.9883Z" fill="#333435"/>
<path d="M68.4204 41.1484H66.1504V43.4185H68.4204V41.1484Z" fill="#333435"/>
<path d="M70.6524 43.4062H68.3823V45.6763H70.6524V43.4062Z" fill="#333435"/>
<path d="M70.6524 38.875H68.3823V41.1451H70.6524V38.875Z" fill="#333435"/>
<path d="M63.8907 50.125H61.6206V52.3951H63.8907V50.125Z" fill="#333435"/>
<path d="M66.1499 52.4355H63.8799V54.7056H66.1499V52.4355Z" fill="#333435"/>
<path d="M61.6109 52.3945H59.3408V54.6646H61.6109V52.3945Z" fill="#333435"/>
<path d="M59.3618 47.9453H57.0918V50.2154H59.3618V47.9453Z" fill="#333435"/>
<path d="M57.1455 47.9453H54.8755V50.2154H57.1455V47.9453Z" fill="#333435"/>
<path d="M66.1499 54.6523H63.8799V56.9224H66.1499V54.6523Z" fill="#333435"/>
<path d="M66.1499 56.8633H63.8799V59.1333H66.1499V56.8633Z" fill="#333435"/>
<path d="M68.3828 56.8633H66.1128V59.1333H68.3828V56.8633Z" fill="#333435"/>
<path d="M59.3677 52.3945H57.0977V54.6646H59.3677V52.3945Z" fill="#333435"/>
<path d="M59.3677 54.6113H57.0977V56.8814H59.3677V54.6113Z" fill="#333435"/>
<path d="M61.6109 56.8301H59.3408V59.1001H61.6109V56.8301Z" fill="#333435"/>
<path d="M63.8907 59.1484H61.6206V61.4185H63.8907V59.1484Z" fill="#333435"/>
<path d="M70.6148 59.1484H68.3447V61.4185H70.6148V59.1484Z" fill="#333435"/>
<path d="M57.0713 56.8633H54.8013V59.1333H57.0713V56.8633Z" fill="#333435"/>
<path d="M70.6148 54.6523H68.3447V56.9224H70.6148V54.6523Z" fill="#333435"/>
<path d="M87.2087 60.3789C87.2087 60.3789 83.7975 68.1625 78.9483 69.3674C78.0099 69.5503 76.9073 69.4702 76.4141 69.7764C75.8538 70.127 76.5351 71.0619 76.8074 71.7747C77.0797 72.4876 77.186 72.1534 77.307 71.9261C77.4279 71.6988 76.9184 70.9824 77.5845 70.699C78.2506 70.4156 78.052 70.8509 77.7359 71.2249C77.4197 71.5989 77.4332 72.1732 77.4536 72.2036C77.4741 72.234 77.9795 71.9816 78.4528 71.7596C78.8618 71.5691 79.088 71.0455 79.1446 70.9C80.1047 70.7884 86.1149 69.843 88.6689 63.5231C88.6695 63.5231 88.9155 57.2487 87.2087 60.3789Z" fill="url(#paint0_linear)"/>
<path d="M101.391 78.7879C101.38 78.7879 101.369 78.7839 101.361 78.7768C101.352 78.7696 101.347 78.7596 101.345 78.7488C101.341 78.723 100.932 76.1825 100.143 75.7325C100.082 75.6951 100.013 75.6729 99.9422 75.6677C99.8711 75.6625 99.7997 75.6745 99.7341 75.7027C98.666 76.1275 99.2035 78.5332 99.2082 78.5577C99.2096 78.5636 99.2097 78.5698 99.2087 78.5758C99.2076 78.5818 99.2054 78.5876 99.2022 78.5927C99.1989 78.5979 99.1947 78.6023 99.1897 78.6058C99.1847 78.6094 99.1791 78.6119 99.1732 78.6132C99.1672 78.6145 99.1611 78.6147 99.155 78.6137C99.149 78.6126 99.1433 78.6104 99.1381 78.6072C99.133 78.6039 99.1285 78.5997 99.125 78.5947C99.1215 78.5897 99.119 78.5841 99.1176 78.5781C99.0943 78.4765 98.5573 76.0709 99.6985 75.6163C99.7768 75.5834 99.8619 75.5695 99.9467 75.5757C100.031 75.5818 100.114 75.608 100.186 75.6519C101.014 76.1234 101.417 78.6278 101.434 78.7342C101.435 78.7402 101.435 78.7463 101.434 78.7523C101.432 78.7582 101.43 78.7638 101.426 78.7688C101.423 78.7737 101.418 78.7779 101.413 78.7811C101.408 78.7843 101.402 78.7864 101.396 78.7873L101.391 78.7879Z" fill="#888B8F"/>
<path d="M102.466 78.5617L98.4384 78.1895L97.5415 78.6867L98.3099 79.6479L101.989 79.2733L102.466 78.5617Z" fill="#74767B"/>
<path d="M101.884 103.087L101.951 104.628C101.956 104.77 102.01 104.906 102.102 105.014C102.195 105.121 102.321 105.195 102.461 105.222C102.945 105.316 103.727 105.435 104.501 105.414C104.581 105.411 104.659 105.39 104.73 105.354C104.801 105.317 104.863 105.265 104.912 105.201C104.961 105.138 104.995 105.064 105.011 104.986C105.028 104.908 105.027 104.827 105.009 104.749C104.868 104.144 104.594 103.234 104.141 102.674L102.446 102.542C102.373 102.537 102.299 102.548 102.229 102.573C102.16 102.598 102.097 102.638 102.044 102.689C101.991 102.741 101.949 102.803 101.922 102.871C101.894 102.94 101.881 103.013 101.884 103.087Z" fill="#5C5E61"/>
<path d="M90.0165 84.1719L89.5999 85.8307C89.5999 85.8307 89.8009 95.5999 89.6688 99.4902C89.6484 100.101 89.4448 100.691 89.0845 101.185L87.2095 103.756L91.6339 101.59L91.7583 101.08L91.1401 100.074L92.8931 89.2852C92.9959 88.6524 92.9147 88.0034 92.6594 87.4154L91.912 85.7004L90.0165 84.1719Z" fill="url(#paint1_linear)"/>
<path d="M86.9005 104.125L88.2502 104.231C88.3747 104.241 88.4998 104.222 88.6159 104.176C88.732 104.13 88.8359 104.058 88.9199 103.965C89.3832 103.451 90.3386 102.453 90.7575 102.457C91.3214 102.464 91.0941 104.453 91.0941 104.453L91.4084 104.477L92.0004 102.03C92.0729 101.729 92.0491 101.414 91.9324 101.128C91.8157 100.842 91.6119 100.599 91.35 100.436C91.35 100.436 91.1478 101.374 90.4192 101.74C89.6906 102.106 87.4392 103.441 87.4392 103.441C87.2582 103.406 87.0731 103.396 86.8894 103.413C86.4576 103.456 86.4681 104.092 86.9005 104.125Z" fill="#5C5E61"/>
<path d="M95.7471 85.4211C95.7471 85.4211 100.524 96.4933 101.226 98.9912C101.928 101.489 102.082 103.539 102.079 103.732C102.075 104.033 102.425 104.349 103.453 104.429C103.983 104.471 104.259 104.279 104.402 104.083C104.462 104 104.499 103.904 104.511 103.802C104.523 103.701 104.509 103.599 104.47 103.504C104.197 102.823 103.331 100.645 103.025 99.6637C102.658 98.4922 102.08 93.2684 101.681 91.4366C101.281 89.6048 100.828 87.6164 98.6295 85.6461C98.6312 85.6461 97.1494 83.9486 95.7471 85.4211Z" fill="url(#paint2_linear)"/>
<path d="M93.564 67.722C92.5952 61.4781 96.5276 58.2977 96.5276 58.2977C95.3526 56.9795 93.5745 55.9809 92.2113 55.3492C91.608 55.0699 90.9369 54.9705 90.2785 55.0628C89.6202 55.1551 89.0024 55.4354 88.4992 55.8699C87.3691 56.8457 86.1397 58.2281 86.3045 59.5224C86.4798 60.892 88.5003 67.8167 88.5003 67.8167C88.5003 67.8167 90.7692 69.1145 93.564 67.722Z" fill="#F7E057"/>
<path d="M96.5344 71.0032C96.0839 69.1842 93.5643 67.7188 93.5643 67.7188C90.7696 69.1141 88.5024 67.8163 88.5024 67.8163C88.5024 67.8163 87.817 69.7931 88.035 71.6968C88.2529 73.6004 89.5998 85.8301 89.5998 85.8301C93.1448 86.841 98.7986 85.8085 98.7986 85.8085C96.8201 81.5564 96.9843 72.8221 96.5344 71.0032Z" fill="#5C5E61"/>
<path d="M92.0053 51.4926L92.7696 56.8683C92.8456 57.3422 92.4278 57.2329 91.9644 57.1073C91.2048 56.9022 90.236 56.5259 89.9509 55.9007C89.9233 55.8361 89.9081 55.767 89.9059 55.6968L89.6862 51.9952C89.6779 51.8522 89.7162 51.7104 89.7954 51.5911C89.8747 51.4718 89.9906 51.3815 90.1256 51.3337L91.1341 50.9773C91.2251 50.9451 91.3221 50.9332 91.4181 50.9426C91.5142 50.9519 91.6071 50.9822 91.6901 51.0314C91.7732 51.0805 91.8445 51.1473 91.899 51.227C91.9534 51.3067 91.9897 51.3974 92.0053 51.4926Z" fill="url(#paint3_linear)"/>
<path d="M104.41 88.1943L105.791 87.4002L102.466 78.5625L101.668 79.1012L104.41 88.1943Z" fill="#979AA0"/>
<path d="M100.661 79.747H100.658C100.651 79.7466 100.646 79.745 100.64 79.7422C100.635 79.7395 100.63 79.7357 100.626 79.7311C100.622 79.7265 100.619 79.7211 100.617 79.7153C100.615 79.7095 100.614 79.7034 100.615 79.6974C100.615 79.6717 100.797 77.0983 100.06 76.2564C99.9998 76.1816 99.9245 76.1201 99.8392 76.0756C99.7538 76.0312 99.6603 76.0048 99.5643 75.9981C99.4712 75.9935 99.3783 76.0084 99.2914 76.0421C99.2045 76.0757 99.1257 76.1272 99.06 76.1933C98.2665 76.9324 98.2198 79.4823 98.2198 79.5075C98.2196 79.5198 98.2146 79.5315 98.2059 79.5402C98.1971 79.5488 98.1853 79.5536 98.173 79.5536C98.1669 79.5536 98.1609 79.5523 98.1553 79.5498C98.1497 79.5474 98.1446 79.5439 98.1404 79.5395C98.1361 79.5351 98.1328 79.5299 98.1306 79.5242C98.1284 79.5185 98.1273 79.5124 98.1275 79.5063C98.1275 79.4 98.1748 76.8915 98.9975 76.1255C99.0724 76.051 99.162 75.9929 99.2606 75.9549C99.3592 75.917 99.4646 75.9001 99.5701 75.9052C99.6787 75.9127 99.7845 75.9425 99.8811 75.9928C99.9776 76.043 100.063 76.1127 100.131 76.1973C100.904 77.0826 100.71 79.681 100.708 79.7067C100.706 79.718 100.701 79.7283 100.692 79.7357C100.683 79.7431 100.672 79.7472 100.661 79.747Z" fill="#A8ABB2"/>
<path d="M94.603 60.7276C94.8005 60.9894 97.7933 64.5496 98.6505 68.5229C99.5077 72.4962 99.219 75.1484 99.219 75.1484C99.219 75.1484 98.3484 75.7976 98.6616 76.2586C98.9748 76.7197 98.8918 77.0323 99.2921 77.1217C99.6923 77.2111 100.188 77.3373 100.128 76.5473C100.067 75.7573 101.011 75.5984 100.854 75.121C100.697 74.6436 101.765 61.8238 96.6031 58.3454L96.5294 58.2969C94.347 59.0851 94.2857 60.3063 94.603 60.7276Z" fill="url(#paint4_linear)"/>
<path d="M97.5396 78.7148L101.668 79.0993L104.409 88.1924L98.4826 88.3472L97.5396 78.7148Z" fill="#B9BCC5"/>
<path d="M104.492 88.0513H104.479C104.465 88.0469 104.453 88.0377 104.446 88.0253C104.439 88.0129 104.436 87.9982 104.439 87.9841L104.704 86.9738L102.614 80.4879C102.611 80.4811 102.61 80.4738 102.611 80.4666C102.612 80.4594 102.614 80.4524 102.617 80.446C102.62 80.4396 102.625 80.4338 102.63 80.4292C102.636 80.4245 102.642 80.4209 102.649 80.4187C102.656 80.4165 102.663 80.4156 102.67 80.4162C102.677 80.4168 102.684 80.4187 102.691 80.422C102.697 80.4253 102.703 80.4298 102.708 80.4353C102.712 80.4408 102.716 80.4472 102.718 80.454L104.813 86.9569C104.816 86.9668 104.816 86.9773 104.813 86.9872L104.544 88.0133C104.541 88.0243 104.534 88.0339 104.524 88.0407C104.515 88.0475 104.504 88.0512 104.492 88.0513Z" fill="#D7D9E0"/>
<path d="M105.691 87.4184C105.683 87.4184 105.675 87.4166 105.667 87.4132L104.953 87.0713C104.946 87.0683 104.94 87.0639 104.935 87.0586C104.931 87.0533 104.927 87.047 104.924 87.0402C104.922 87.0334 104.921 87.0262 104.921 87.019C104.922 87.0118 104.924 87.0048 104.927 86.9983C104.933 86.9851 104.944 86.975 104.958 86.97C104.972 86.9651 104.987 86.9658 105 86.972L105.715 87.3138C105.726 87.3192 105.735 87.3282 105.74 87.3394C105.746 87.3506 105.747 87.3633 105.745 87.3755C105.742 87.3876 105.735 87.3985 105.725 87.4063C105.716 87.4141 105.704 87.4184 105.691 87.4184Z" fill="#D7D9E0"/>
<path d="M91.1599 47.2302C91.1599 47.2302 89.5239 47.6743 88.1718 49.7673C86.8197 51.8603 87.4647 52.998 88.4318 53.2732C89.3988 53.5484 90.8771 53.726 92.6324 52.4925C94.3877 51.2591 93.2751 46.7271 91.1599 47.2302Z" fill="url(#paint5_linear)"/>
<path d="M91.7444 51.1564C91.7444 51.1564 93.3524 48.0443 90.4589 47.6143L89.7121 47.9987C89.7121 47.9987 88.8941 46.0425 90.7563 45.4126C92.6185 44.7827 95.1194 45.9052 95.5477 48.3575C95.976 50.8099 95.3332 52.2724 93.9449 53.2283C92.5566 54.1843 92.22 52.8421 92.22 52.8421C92.22 52.8421 93.038 51.8803 92.837 51.2803C92.636 50.6802 91.9156 51.2744 91.9156 51.2744L91.7444 51.1564Z" fill="#333435"/>
<path d="M92.0205 51.5653C92.0205 51.5653 92.8385 49.9607 93.5345 50.7379C94.2304 51.515 92.6849 52.2074 92.0877 52.4184L92.0205 51.5653Z" fill="url(#paint6_linear)"/>
<path d="M94.1562 47.8806C94.1562 47.8806 99.7756 46.1516 100.701 52.0134C101.626 57.8753 102.265 59.7538 103.658 58.7436C103.658 58.7436 103.429 60.933 100.753 59.9542C93.8086 57.4137 98.0355 49.2789 94.1562 47.8806Z" fill="#333435"/>
<g opacity="0.3">
<path opacity="0.3" d="M27.0218 93.52C27.0692 93.6166 27.0792 93.7272 27.0499 93.8307C27.0205 93.9342 26.9539 94.0231 26.8629 94.0804C26.4468 94.3422 26.0133 94.5899 25.5745 94.8166C25.4721 94.8689 25.3532 94.8786 25.2438 94.8436C25.1343 94.8085 25.0431 94.7316 24.9902 94.6296L24.9866 94.622C24.9363 94.5198 24.928 94.4019 24.9636 94.2936C24.9992 94.1853 25.0759 94.0954 25.1771 94.043C25.5943 93.828 26.0063 93.5925 26.4042 93.3418C26.5019 93.2803 26.6201 93.2601 26.7327 93.2856C26.8453 93.3112 26.9432 93.3803 27.0049 93.478C27.0078 93.4932 27.0148 93.5066 27.0218 93.52ZM23.6065 95.1695C23.634 95.2246 23.6495 95.2849 23.6519 95.3465C23.6542 95.408 23.6435 95.4693 23.6203 95.5264C23.5972 95.5834 23.5621 95.6349 23.5175 95.6773C23.4729 95.7198 23.4198 95.7522 23.3617 95.7726C22.8942 95.9373 22.4186 96.0834 21.943 96.2073C21.8313 96.2363 21.7127 96.2199 21.6132 96.1615C21.5137 96.103 21.4415 96.0075 21.4124 95.8958C21.3834 95.7842 21.3998 95.6656 21.4582 95.5661C21.5166 95.4666 21.6122 95.3943 21.7238 95.3653C22.1755 95.2484 22.6289 95.1082 23.0713 94.9522C23.1716 94.9166 23.2816 94.919 23.3802 94.9591C23.4789 94.9992 23.5594 95.0741 23.6065 95.1695ZM19.9142 96.0267C19.9364 96.0712 19.9507 96.1193 19.9563 96.1687C19.9695 96.2835 19.9365 96.3987 19.8648 96.4892C19.793 96.5797 19.6883 96.638 19.5736 96.6514C19.0845 96.7098 18.5867 96.7443 18.0935 96.7583C17.9797 96.7592 17.8701 96.7155 17.7881 96.6365C17.7061 96.5576 17.6583 96.4496 17.655 96.3359C17.6516 96.2221 17.6929 96.1115 17.7701 96.0279C17.8473 95.9442 17.9541 95.8941 18.0678 95.8883C18.5353 95.8748 19.0085 95.8403 19.4737 95.7866C19.5631 95.7759 19.6536 95.7933 19.7328 95.8363C19.8119 95.8793 19.8757 95.9459 19.9154 96.0267H19.9142ZM16.1226 96.0361C16.1568 96.1061 16.1716 96.1841 16.1655 96.2618C16.1593 96.3395 16.1324 96.4142 16.0876 96.4779C16.0428 96.5417 15.9817 96.5923 15.9107 96.6245C15.8397 96.6566 15.7613 96.6691 15.6838 96.6607C15.1936 96.6064 14.7004 96.5304 14.2166 96.4346C14.1059 96.4096 14.0093 96.3424 13.9474 96.2472C13.8855 96.1521 13.8633 96.0365 13.8854 95.9252C13.9075 95.8138 13.9722 95.7155 14.0657 95.6512C14.1592 95.5869 14.2742 95.5617 14.3861 95.5809C14.8453 95.6715 15.3139 95.7439 15.7796 95.7953C15.8526 95.8033 15.9224 95.8296 15.9825 95.8717C16.0427 95.9137 16.0913 95.9703 16.1238 96.0361H16.1226ZM12.4233 95.1999C12.4617 95.2773 12.4762 95.3644 12.4649 95.4501C12.4536 95.5358 12.417 95.6161 12.3598 95.6809C12.3026 95.7456 12.2274 95.7919 12.1438 95.8138C12.0602 95.8356 11.972 95.832 11.8905 95.8035C11.4259 95.6423 10.9614 95.4588 10.5103 95.2584C10.4572 95.2357 10.4091 95.2027 10.3689 95.1613C10.3287 95.1199 10.2971 95.0709 10.276 95.0171C10.2549 94.9634 10.2446 94.906 10.2459 94.8483C10.2472 94.7905 10.26 94.7336 10.2835 94.6809C10.3069 94.6282 10.3407 94.5806 10.3827 94.541C10.4248 94.5014 10.4743 94.4706 10.5283 94.4504C10.5824 94.4301 10.6399 94.4208 10.6976 94.423C10.7553 94.4252 10.812 94.4388 10.8644 94.4631C11.2927 94.6536 11.7344 94.8283 12.1756 94.9814C12.2842 95.0184 12.3737 95.097 12.4245 95.1999H12.4233ZM9.0022 93.5639C9.04407 93.6487 9.05715 93.7449 9.03944 93.8379C9.02174 93.9309 8.97421 94.0156 8.90407 94.0791C8.83392 94.1426 8.74498 94.1816 8.65071 94.19C8.55644 94.1985 8.46199 94.176 8.38166 94.126C7.96329 93.8654 7.55135 93.5837 7.1546 93.2886C7.06513 93.2185 7.00667 93.1161 6.99173 93.0033C6.97678 92.8906 7.00654 92.7765 7.07463 92.6855C7.14272 92.5944 7.24374 92.5336 7.35609 92.516C7.46843 92.4985 7.58319 92.5256 7.67581 92.5916C8.05093 92.872 8.44242 93.1396 8.83976 93.3868C8.91012 93.4302 8.96682 93.4926 9.00336 93.5668L9.0022 93.5639ZM1.0275 79.7157C1.05513 79.7713 1.07029 79.8323 1.07191 79.8944C1.08651 80.3619 1.12157 80.8352 1.1765 81.3003C1.18521 81.358 1.18223 81.4169 1.16774 81.4734C1.15324 81.53 1.12752 81.583 1.09211 81.6294C1.0567 81.6758 1.01232 81.7146 0.961608 81.7435C0.910899 81.7724 0.854895 81.7908 0.796928 81.7976C0.738961 81.8045 0.680215 81.7995 0.624183 81.7832C0.568151 81.7669 0.515977 81.7394 0.470765 81.7025C0.425553 81.6656 0.388225 81.62 0.361002 81.5683C0.33378 81.5167 0.317217 81.4601 0.3123 81.402C0.253869 80.9117 0.217057 80.4139 0.201865 79.9213C0.198814 79.8219 0.22988 79.7245 0.289896 79.6452C0.349912 79.5659 0.435261 79.5096 0.531746 79.4856C0.628231 79.4615 0.730037 79.4713 0.820231 79.5131C0.910425 79.555 0.983569 79.6264 1.0275 79.7157ZM6.02921 91.2167C6.07469 91.3091 6.08594 91.4146 6.06097 91.5145C6.03599 91.6144 5.97642 91.7022 5.89282 91.7623C5.80922 91.8224 5.70701 91.851 5.60436 91.8429C5.5017 91.8348 5.40525 91.7905 5.33213 91.718C4.98154 91.3709 4.64381 91.0046 4.32477 90.6294C4.28699 90.586 4.25821 90.5354 4.24011 90.4807C4.222 90.4261 4.21492 90.3683 4.21928 90.3109C4.22365 90.2535 4.23937 90.1975 4.26553 90.1462C4.29169 90.0949 4.32777 90.0492 4.37169 90.012C4.4156 89.9747 4.46648 89.9465 4.52137 89.9291C4.57625 89.9116 4.63406 89.9052 4.69144 89.9103C4.74881 89.9153 4.80462 89.9317 4.85562 89.9584C4.90662 89.9852 4.95181 90.0218 4.98855 90.0662C5.29123 90.4226 5.61318 90.7708 5.94507 91.0998C5.98005 91.1338 6.00891 91.1735 6.03038 91.2173L6.02921 91.2167ZM1.57266 83.4687C1.58574 83.4948 1.59612 83.5222 1.60363 83.5505C1.72049 84.0033 1.86248 84.4568 2.01966 84.8985C2.04969 85.0047 2.03825 85.1184 1.98766 85.2164C1.93708 85.3145 1.85112 85.3898 1.74718 85.4269C1.64324 85.464 1.52908 85.4603 1.4278 85.4164C1.32651 85.3725 1.24567 85.2919 1.20162 85.1907C1.03626 84.7232 0.889017 84.2487 0.763974 83.7725C0.73702 83.6684 0.749589 83.5579 0.799256 83.4625C0.848924 83.3671 0.932171 83.2934 1.03294 83.2557C1.13371 83.218 1.24486 83.219 1.34496 83.2585C1.44506 83.2979 1.52701 83.373 1.575 83.4693L1.57266 83.4687ZM3.65749 88.2601C3.70876 88.3604 3.71913 88.4767 3.68642 88.5845C3.65371 88.6923 3.58047 88.7833 3.4821 88.8382C3.38373 88.8931 3.26789 88.9078 3.15894 88.8791C3.04999 88.8504 2.95641 88.7805 2.89788 88.6843C2.63436 88.2682 2.38603 87.8353 2.15931 87.3988C2.15931 87.3988 2.15931 87.3935 2.15464 87.3906C2.10546 87.2879 2.0985 87.17 2.13525 87.0622C2.172 86.9544 2.24952 86.8653 2.3512 86.814C2.45288 86.7627 2.57061 86.7533 2.67915 86.7878C2.78768 86.8223 2.87837 86.8979 2.93177 86.9985C3.14738 87.4146 3.38345 87.8253 3.63295 88.2209C3.64288 88.2355 3.65048 88.249 3.65749 88.263V88.2601Z" fill="#B9BCC5"/>
<path opacity="0.3" d="M1.2109 76.665C1.2503 76.7446 1.26418 76.8343 1.25064 76.9221C1.21675 77.1441 1.18753 77.3703 1.16299 77.5946C1.14943 77.7086 1.0914 77.8126 1.00153 77.8841C0.911649 77.9555 0.797204 77.9885 0.683101 77.9759C0.568998 77.9634 0.464473 77.9062 0.392279 77.817C0.320085 77.7278 0.286065 77.6136 0.297624 77.4994C0.323334 77.2657 0.356055 77.0255 0.389946 76.7918C0.40387 76.7002 0.446675 76.6154 0.512131 76.5498C0.577587 76.4841 0.662277 76.4411 0.753872 76.427C0.845468 76.4128 0.939187 76.4283 1.02139 76.4711C1.10359 76.5139 1.16998 76.5818 1.2109 76.665Z" fill="#B9BCC5"/>
</g>
<g opacity="0.3">
<path opacity="0.3" d="M8.16081 65.3624C8.20649 65.4552 8.21757 65.5612 8.19208 65.6615C8.1666 65.7617 8.1062 65.8496 8.02175 65.9093C7.83886 66.039 7.65538 66.1746 7.47658 66.3131C7.38515 66.3826 7.26994 66.4131 7.15608 66.3981C7.04221 66.383 6.93891 66.3236 6.86868 66.2327C6.79846 66.1418 6.76699 66.0268 6.78115 65.9129C6.79531 65.7989 6.85395 65.6951 6.94428 65.6242C7.13242 65.4787 7.32583 65.3355 7.51866 65.1994C7.56526 65.1663 7.61792 65.1427 7.67363 65.13C7.72935 65.1173 7.78702 65.1157 7.84336 65.1253C7.89969 65.1349 7.95358 65.1556 8.00193 65.186C8.05029 65.2165 8.09217 65.2561 8.12517 65.3028C8.13858 65.3217 8.1505 65.3416 8.16081 65.3624Z" fill="#B9BCC5"/>
<path opacity="0.3" d="M33.1704 71.6855C33.2585 71.8655 33.3442 72.0474 33.4275 72.2312C33.4738 72.3363 33.4768 72.4554 33.4357 72.5626C33.3947 72.6698 33.3129 72.7564 33.2083 72.8036C33.1037 72.8509 32.9846 72.8549 32.8771 72.8147C32.7695 72.7746 32.6822 72.6936 32.634 72.5894C32.4424 72.1646 32.2338 71.7486 32.0117 71.3489C31.9634 71.2489 31.9552 71.1341 31.9887 71.0282C32.0223 70.9223 32.095 70.8332 32.1921 70.7792C32.2892 70.7252 32.4033 70.7103 32.511 70.7377C32.6187 70.7651 32.7118 70.8326 32.7713 70.9265C32.9104 71.1713 33.0442 71.4296 33.1704 71.6855ZM34.2269 74.385C34.238 74.4071 34.2472 74.4302 34.2543 74.454C34.3922 74.9214 34.512 75.3959 34.6102 75.8703C34.6217 75.9263 34.6221 75.9839 34.6113 76.04C34.6005 76.0961 34.5788 76.1495 34.5474 76.1972C34.516 76.2449 34.4755 76.2859 34.4282 76.318C34.3809 76.35 34.3278 76.3724 34.2718 76.3839C34.2159 76.3954 34.1582 76.3958 34.1022 76.3851C34.0461 76.3743 33.9927 76.3526 33.945 76.3212C33.8973 76.2897 33.8562 76.2492 33.8242 76.202C33.7922 76.1547 33.7697 76.1016 33.7582 76.0456C33.6647 75.5951 33.5508 75.1423 33.4193 74.7017C33.3888 74.5973 33.3985 74.4853 33.4465 74.3877C33.4944 74.29 33.5772 74.2139 33.6785 74.1743C33.7798 74.1346 33.8922 74.1343 33.9937 74.1734C34.0952 74.2125 34.1784 74.2882 34.2269 74.3856V74.385ZM31.5256 69.0047C31.5732 69.1019 31.5828 69.2134 31.5526 69.3174C31.5224 69.4213 31.4546 69.5103 31.3623 69.5669C31.27 69.6236 31.16 69.6438 31.0536 69.6237C30.9473 69.6036 30.8522 69.5445 30.787 69.4581C30.5106 69.09 30.2155 68.7289 29.9105 68.3847C29.8372 68.298 29.8007 68.1862 29.8086 68.0729C29.8166 67.9597 29.8685 67.8541 29.9533 67.7786C30.038 67.703 30.1489 67.6636 30.2623 67.6687C30.3757 67.6737 30.4826 67.7229 30.5603 67.8057C30.884 68.1679 31.1949 68.5483 31.4853 68.9357C31.5008 68.9576 31.5143 68.9809 31.5256 69.0052V69.0047ZM34.8877 78.058C34.9124 78.1091 34.927 78.1644 34.931 78.221C34.9631 78.7048 34.9754 79.1962 34.9666 79.6818C34.9609 79.7947 34.9116 79.901 34.829 79.9782C34.7464 80.0553 34.637 80.0973 34.5239 80.0953C34.4109 80.0932 34.3031 80.0473 34.2233 79.9672C34.1436 79.8871 34.0981 79.7791 34.0965 79.666C34.1047 79.2062 34.093 78.7393 34.0627 78.2795C34.056 78.1789 34.0844 78.0791 34.1431 77.9971C34.2018 77.9152 34.2871 77.8561 34.3844 77.83C34.4818 77.804 34.5852 77.8125 34.677 77.8542C34.7688 77.8959 34.8433 77.9681 34.8877 78.0586V78.058ZM28.9715 66.2888C29.0168 66.3787 29.0295 66.4815 29.0075 66.5797C28.9855 66.6779 28.9301 66.7654 28.8509 66.8274C28.7716 66.8894 28.6733 66.922 28.5726 66.9197C28.472 66.9174 28.3753 66.8802 28.299 66.8147C27.9484 66.5172 27.5815 66.2303 27.2063 65.9616C27.1584 65.9289 27.1174 65.8871 27.0858 65.8384C27.0543 65.7897 27.0328 65.7352 27.0226 65.6781C27.0124 65.621 27.0137 65.5624 27.0265 65.5058C27.0392 65.4492 27.0632 65.3957 27.0969 65.3485C27.1307 65.3013 27.1735 65.2613 27.2229 65.2309C27.2723 65.2005 27.3273 65.1802 27.3846 65.1714C27.4419 65.1625 27.5005 65.1652 27.5568 65.1793C27.613 65.1934 27.6659 65.2186 27.7124 65.2534C28.1073 65.5362 28.4947 65.8377 28.8629 66.152C28.9078 66.1899 28.9448 66.2364 28.9715 66.2888ZM25.8846 64.1981C25.9253 64.2806 25.9389 64.3738 25.9233 64.4644C25.9078 64.555 25.8639 64.6384 25.7981 64.7025C25.7322 64.7667 25.6477 64.8084 25.5567 64.8216C25.4657 64.8348 25.3729 64.8188 25.2915 64.776C24.8825 64.561 24.4618 64.3605 24.0382 64.1806C23.9351 64.1334 23.8546 64.0479 23.8136 63.9422C23.7726 63.8365 23.7744 63.719 23.8187 63.6147C23.863 63.5104 23.9463 63.4274 24.0507 63.3835C24.1552 63.3396 24.2727 63.3381 24.3783 63.3795C24.8241 63.5688 25.2682 63.7797 25.6971 64.0059C25.7784 64.0484 25.8441 64.1157 25.8846 64.1981ZM22.4138 62.8308C22.4507 62.906 22.4651 62.9902 22.4553 63.0733C22.4455 63.1564 22.412 63.235 22.3587 63.2995C22.3054 63.3641 22.2347 63.4119 22.1549 63.4373C22.0751 63.4627 21.9897 63.4645 21.909 63.4426C21.4637 63.3216 21.0085 63.2182 20.5563 63.1347C20.4991 63.1253 20.4443 63.1047 20.3952 63.074C20.3461 63.0433 20.3037 63.003 20.2703 62.9557C20.2369 62.9083 20.2134 62.8548 20.201 62.7982C20.1886 62.7416 20.1876 62.6831 20.1981 62.6261C20.2086 62.5691 20.2304 62.5148 20.2621 62.4664C20.2939 62.4179 20.335 62.3763 20.383 62.3439C20.4311 62.3116 20.4851 62.2891 20.542 62.2779C20.5988 62.2667 20.6573 62.2669 20.714 62.2786C21.1897 62.3663 21.6688 62.4755 22.1374 62.6029C22.1968 62.6192 22.252 62.648 22.2993 62.6873C22.3467 62.7266 22.3851 62.7755 22.4121 62.8308H22.4138ZM18.7274 62.2529C18.76 62.3185 18.7753 62.3913 18.7718 62.4644C18.7665 62.5797 18.7156 62.6882 18.6304 62.766C18.5451 62.8438 18.4325 62.8845 18.3172 62.8793C17.8568 62.8583 17.3899 62.8571 16.93 62.8752C16.8718 62.8795 16.8133 62.872 16.758 62.8532C16.7028 62.8344 16.6518 62.8046 16.6083 62.7657C16.5647 62.7268 16.5295 62.6796 16.5045 62.6268C16.4796 62.5739 16.4656 62.5167 16.4633 62.4583C16.461 62.4 16.4704 62.3418 16.4911 62.2871C16.5117 62.2325 16.5432 62.1826 16.5835 62.1404C16.6238 62.0982 16.6722 62.0645 16.7258 62.0414C16.7795 62.0182 16.8372 62.0061 16.8956 62.0058C17.38 61.9865 17.8714 61.9876 18.3563 62.0099C18.434 62.0136 18.5092 62.0382 18.5742 62.0809C18.6391 62.1237 18.6914 62.1831 18.7256 62.2529H18.7274ZM15.003 62.4983C15.021 62.5353 15.0338 62.5747 15.041 62.6152C15.0614 62.7286 15.0359 62.8455 14.9702 62.9402C14.9044 63.0349 14.8038 63.0996 14.6904 63.12C14.2375 63.2013 13.7823 63.3029 13.3371 63.4221C13.2814 63.4384 13.2231 63.4434 13.1654 63.4368C13.1078 63.4302 13.0521 63.4121 13.0015 63.3837C12.951 63.3552 12.9066 63.3169 12.8711 63.2711C12.8355 63.2253 12.8095 63.1728 12.7945 63.1168C12.7795 63.0608 12.7759 63.0023 12.7838 62.9449C12.7917 62.8874 12.811 62.8321 12.8406 62.7822C12.8702 62.7323 12.9095 62.6889 12.9561 62.6544C13.0027 62.6199 13.0558 62.595 13.1121 62.5813C13.5796 62.4557 14.0599 62.3476 14.5367 62.2634C14.6291 62.2474 14.7242 62.2616 14.8079 62.3039C14.8916 62.3463 14.9594 62.4144 15.0012 62.4983H15.003ZM11.4258 63.5554C11.4299 63.563 11.4334 63.5717 11.4369 63.5799C11.459 63.6326 11.4704 63.6892 11.4706 63.7463C11.4708 63.8034 11.4597 63.8601 11.438 63.9129C11.4163 63.9658 11.3844 64.0138 11.3441 64.0543C11.3038 64.0949 11.2559 64.127 11.2032 64.149C10.89 64.2805 10.5774 64.4225 10.2735 64.5721C10.1637 64.6262 10.0546 64.6815 9.94633 64.738C9.8438 64.7911 9.72438 64.8014 9.61428 64.7666C9.50418 64.7317 9.4124 64.6546 9.3591 64.5522C9.33254 64.5017 9.31627 64.4464 9.31124 64.3896C9.30622 64.3328 9.31253 64.2755 9.32982 64.2212C9.34711 64.1668 9.37502 64.1164 9.41195 64.073C9.44887 64.0295 9.49407 63.9938 9.54491 63.9679C9.65885 63.9095 9.77337 63.851 9.88907 63.7926C10.2087 63.6348 10.5377 63.4852 10.8666 63.3473C10.9686 63.3048 11.0829 63.3026 11.1864 63.3413C11.2899 63.3799 11.3749 63.4564 11.4241 63.5554H11.4258Z" fill="#B9BCC5"/>
<path opacity="0.3" d="M34.7206 81.7969C34.7603 81.8772 34.7742 81.9678 34.7604 82.0563C34.7242 82.2901 34.6821 82.5238 34.6353 82.7575C34.6255 82.8148 34.6043 82.8695 34.573 82.9185C34.5416 82.9674 34.5008 83.0096 34.4529 83.0425C34.4051 83.0754 34.3511 83.0984 34.2942 83.1102C34.2372 83.1219 34.1786 83.1221 34.1216 83.1108C34.0646 83.0995 34.0104 83.0769 33.9623 83.0443C33.9142 83.0117 33.873 82.9698 33.8414 82.9211C33.8097 82.8724 33.7881 82.8178 33.7778 82.7606C33.7676 82.7034 33.7689 82.6448 33.7817 82.5881C33.8261 82.366 33.8658 82.1416 33.8985 81.9208C33.9135 81.8302 33.9568 81.7467 34.0221 81.6822C34.0874 81.6177 34.1715 81.5755 34.2622 81.5616C34.3529 81.5478 34.4457 81.5629 34.5274 81.605C34.609 81.647 34.6752 81.7138 34.7166 81.7957L34.7206 81.7969Z" fill="#B9BCC5"/>
</g>
<path d="M29.9327 83.4993C29.9507 83.4606 29.956 83.4171 29.9479 83.3752C29.9398 83.3333 29.9188 83.2949 29.8877 83.2656L28.0945 81.5582C28.3265 80.409 28.3697 79.2296 28.2225 78.0664L30.1326 76.4946C30.1648 76.4672 30.1877 76.4306 30.1982 76.3896C30.2086 76.3487 30.2061 76.3056 30.191 76.2661L29.1568 73.4854C29.1421 73.4456 29.1153 73.4114 29.0802 73.3876C29.0451 73.3638 29.0034 73.3516 28.961 73.3527L26.4876 73.4112C25.8385 72.4349 25.0344 71.571 24.1071 70.8536L24.3461 68.3896C24.3504 68.3475 24.3414 68.3051 24.3205 68.2683C24.2996 68.2316 24.2677 68.2023 24.2293 68.1845L21.528 66.9498C21.4893 66.9316 21.4458 66.9262 21.4038 66.9343C21.3618 66.9424 21.3235 66.9636 21.2943 66.9948L19.5869 68.7875C18.4376 68.5554 17.2582 68.5124 16.095 68.6601L14.5227 66.75C14.4958 66.7173 14.4594 66.6938 14.4186 66.6828C14.3777 66.6717 14.3344 66.6738 14.2948 66.6886L11.5117 67.7252C11.4721 67.7399 11.438 67.7666 11.4143 67.8016C11.3906 67.8366 11.3785 67.8781 11.3796 67.9204L11.4381 70.3938C10.4621 71.0433 9.59844 71.8475 8.88113 72.7748L6.4165 72.5353C6.37451 72.5312 6.33229 72.5403 6.29566 72.5612C6.25904 72.5821 6.2298 72.6139 6.21199 72.6521L4.97734 75.3528C4.95935 75.3915 4.95396 75.4349 4.96192 75.4768C4.96989 75.5188 4.99081 75.5571 5.02174 75.5866L6.815 77.2939C6.58289 78.4432 6.53986 79.6226 6.68762 80.7858L4.77692 82.3576C4.74478 82.385 4.72192 82.4216 4.71146 82.4625C4.70099 82.5034 4.70345 82.5466 4.71849 82.586L5.75622 85.3691C5.77103 85.4088 5.79783 85.4429 5.83291 85.4667C5.86799 85.4905 5.90961 85.5027 5.95197 85.5018L8.42536 85.4433C9.0747 86.4188 9.87875 87.2818 10.8059 87.9985L10.5669 90.4626C10.5628 90.5046 10.5718 90.547 10.5927 90.5837C10.6137 90.6204 10.6454 90.6497 10.6837 90.6677L13.3844 91.9023C13.4232 91.9203 13.4666 91.9257 13.5086 91.9176C13.5505 91.9095 13.5889 91.8884 13.6181 91.8573L15.3249 90.0647C16.4742 90.2968 17.6536 90.3398 18.8168 90.192L20.3892 92.1021C20.4164 92.1344 20.4529 92.1573 20.4938 92.1678C20.5346 92.1783 20.5777 92.1757 20.617 92.1606L23.4001 91.124C23.4397 91.1092 23.4738 91.0825 23.4975 91.0476C23.5213 91.0126 23.5336 90.9711 23.5328 90.9289L23.4743 88.4549C24.4506 87.8057 25.3145 87.0017 26.0319 86.0744L28.4959 86.314C28.5379 86.318 28.5801 86.309 28.6167 86.288C28.6534 86.2671 28.6826 86.2353 28.7004 86.1971L29.9327 83.4993Z" fill="#B9BCC5"/>
<path d="M20.1355 78.1108C20.4771 78.8044 20.5364 79.6035 20.3009 80.34C20.0654 81.0765 19.5536 81.693 18.8729 82.0598C18.1922 82.4266 17.3959 82.5153 16.6512 82.307C15.9066 82.0987 15.2717 81.6098 14.8801 80.9431C14.4886 80.2764 14.3708 79.4838 14.5515 78.732C14.7323 77.9802 15.1976 77.3278 15.8495 76.912C16.5014 76.4962 17.2891 76.3494 18.047 76.5025C18.8049 76.6555 19.474 77.0965 19.9134 77.7327C19.9965 77.8532 20.0707 77.9795 20.1355 78.1108ZM15.4025 80.4346C15.4527 80.536 15.5101 80.6336 15.5743 80.7267C15.9102 81.2114 16.4209 81.547 16.9991 81.6631C17.5772 81.7791 18.1779 81.6664 18.6747 81.3488C19.1716 81.0312 19.526 80.5334 19.6634 79.9599C19.8009 79.3865 19.7107 78.782 19.4118 78.2737C19.1129 77.7654 18.6286 77.3927 18.0606 77.234C17.4927 77.0753 16.8853 77.143 16.3662 77.4228C15.8471 77.7025 15.4567 78.1727 15.277 78.7343C15.0972 79.296 15.1423 79.9054 15.4025 80.4346Z" fill="#D7D9E0"/>
<path d="M23.9769 76.1515C24.0882 76.3773 24.1878 76.6086 24.2755 76.8445C24.3036 76.9187 24.3298 76.9941 24.3556 77.0701C24.4809 77.4418 24.5763 77.8231 24.6407 78.2101C24.6407 78.2153 24.6407 78.2206 24.6407 78.2258C24.6407 78.241 24.646 78.2556 24.6477 78.2708C24.6524 78.3001 24.6571 78.3293 24.6612 78.3579C24.6663 78.3943 24.6598 78.4313 24.6427 78.4638C24.6256 78.4963 24.5988 78.5226 24.5659 78.539C24.5496 78.5473 24.532 78.5528 24.5139 78.5554C24.4683 78.5616 24.4221 78.5496 24.3853 78.5221C24.3485 78.4945 24.3239 78.4536 24.317 78.4081C24.111 76.9927 23.4764 75.6744 22.4986 74.6305C21.5208 73.5866 20.2467 72.8672 18.8478 72.5691C17.5495 72.2902 16.1984 72.3892 14.9546 72.8543C14.7284 72.939 14.5076 73.0342 14.2937 73.1394C12.687 73.934 11.4468 75.3153 10.8293 76.998C10.2118 78.6807 10.2641 80.5362 10.9755 82.1815C11.6868 83.8267 13.0028 85.1359 14.6517 85.8387C16.3006 86.5416 18.1564 86.5843 19.8359 85.958C20.0587 85.8751 20.2761 85.7814 20.488 85.677C21.4067 85.225 22.2145 84.576 22.8539 83.7762C22.8699 83.7566 22.8898 83.7404 22.9123 83.7289C22.9478 83.7124 22.9879 83.7082 23.026 83.7171C23.0642 83.726 23.0983 83.7475 23.1228 83.778C23.1474 83.8085 23.161 83.8464 23.1615 83.8856C23.162 83.9248 23.1493 83.963 23.1256 83.9942C22.454 84.8335 21.6057 85.5146 20.6411 85.989C19.7205 86.4436 18.7146 86.6998 17.6887 86.7412C16.6628 86.7826 15.6397 86.6081 14.6854 86.2291C13.7312 85.8502 12.8671 85.2751 12.1491 84.5412C11.4311 83.8072 10.8752 82.9307 10.5173 81.9684C9.88343 80.2665 9.90295 78.39 10.5721 76.7017C11.2412 75.0134 12.5124 73.633 14.14 72.8274C14.366 72.716 14.5975 72.6162 14.8336 72.5282C16.5356 71.8942 18.4121 71.9136 20.1006 72.5827C21.7891 73.2519 23.1695 74.5232 23.9752 76.1509L23.9769 76.1515Z" fill="#D7D9E0"/>
<g opacity="0.3">
<path opacity="0.3" d="M43.8712 101.781C43.8969 101.833 43.9051 101.892 43.8945 101.949C43.884 102.006 43.8553 102.058 43.8127 102.097C43.6444 102.252 43.4697 102.404 43.2927 102.548C43.2374 102.593 43.1664 102.614 43.0955 102.607C43.0245 102.6 42.9594 102.564 42.9143 102.509C42.8693 102.454 42.8481 102.383 42.8554 102.312C42.8627 102.241 42.8979 102.176 42.9532 102.131C43.1221 101.993 43.2886 101.849 43.4493 101.702C43.4753 101.678 43.5057 101.659 43.5388 101.647C43.572 101.635 43.6072 101.63 43.6424 101.631C43.6777 101.633 43.7124 101.641 43.7444 101.656C43.7764 101.671 43.8052 101.692 43.8291 101.718C43.8459 101.737 43.86 101.758 43.8712 101.781Z" fill="#B9BCC5"/>
<path opacity="0.3" d="M42.2269 103.031C42.2563 103.091 42.2624 103.159 42.2442 103.223C42.2259 103.287 42.1846 103.342 42.1281 103.378C41.7938 103.587 41.449 103.779 41.0951 103.953C41.0209 103.99 40.9461 104.026 40.8707 104.061C40.8058 104.089 40.7326 104.091 40.6662 104.067C40.5997 104.043 40.545 103.994 40.5131 103.931C40.4832 103.866 40.48 103.793 40.5043 103.726C40.5286 103.659 40.5784 103.604 40.6428 103.574C40.7153 103.54 40.7866 103.506 40.8579 103.471C41.1953 103.305 41.5241 103.121 41.843 102.922C41.8729 102.903 41.9062 102.89 41.9411 102.885C41.9759 102.879 42.0115 102.88 42.0459 102.888C42.0803 102.896 42.1128 102.91 42.1416 102.931C42.1703 102.951 42.1947 102.977 42.2135 103.007L42.2269 103.031ZM39.6974 104.211C39.7029 104.222 39.7078 104.234 39.712 104.246C39.734 104.314 39.7282 104.388 39.6959 104.452C39.6636 104.515 39.6074 104.564 39.5396 104.586C39.0859 104.733 38.6236 104.852 38.1554 104.942C38.0884 104.95 38.021 104.932 37.9667 104.892C37.9124 104.852 37.8751 104.793 37.8622 104.726C37.8494 104.66 37.8618 104.592 37.8972 104.534C37.9326 104.477 37.9882 104.435 38.0532 104.416C38.5 104.329 38.9412 104.215 39.3743 104.075C39.4355 104.055 39.5018 104.058 39.5611 104.083C39.6204 104.108 39.6688 104.153 39.6974 104.211ZM36.957 104.742C36.9725 104.773 36.9818 104.807 36.9844 104.842C36.9868 104.878 36.9822 104.913 36.9709 104.947C36.9596 104.98 36.9418 105.011 36.9185 105.038C36.8952 105.064 36.8669 105.086 36.8352 105.102C36.8035 105.117 36.769 105.126 36.7338 105.129C36.2572 105.161 35.7791 105.163 35.3022 105.136C35.231 105.132 35.1643 105.1 35.1168 105.046C35.0693 104.993 35.0449 104.923 35.0489 104.852C35.0529 104.781 35.0851 104.714 35.1383 104.667C35.1915 104.619 35.2614 104.595 35.3326 104.599C35.7875 104.625 36.2435 104.623 36.6981 104.592C36.7512 104.589 36.8042 104.601 36.8503 104.628C36.8964 104.654 36.9335 104.694 36.957 104.742ZM34.1704 104.583C34.1925 104.628 34.2017 104.678 34.1968 104.728C34.192 104.778 34.1733 104.825 34.143 104.865C34.1126 104.905 34.0717 104.935 34.025 104.953C33.9782 104.971 33.9274 104.975 33.8782 104.966C33.4085 104.88 32.9444 104.765 32.4887 104.623C32.4207 104.601 32.364 104.554 32.331 104.491C32.298 104.427 32.2915 104.354 32.3129 104.286C32.3343 104.218 32.3818 104.161 32.445 104.128C32.5082 104.095 32.582 104.088 32.65 104.11C33.0846 104.246 33.5272 104.355 33.9752 104.437C34.017 104.444 34.0565 104.461 34.0904 104.487C34.1243 104.512 34.1517 104.545 34.1704 104.583ZM31.5071 103.748C31.5311 103.798 31.5393 103.853 31.5306 103.908C31.522 103.962 31.4968 104.013 31.4586 104.052C31.4204 104.092 31.371 104.119 31.317 104.13C31.263 104.14 31.207 104.134 31.1565 104.112C30.722 103.914 30.2999 103.691 29.8926 103.442C29.8625 103.423 29.8363 103.399 29.8156 103.371C29.7948 103.342 29.7798 103.31 29.7715 103.276C29.7633 103.241 29.7618 103.206 29.7673 103.171C29.7728 103.136 29.7851 103.102 29.8035 103.072C29.822 103.042 29.8461 103.016 29.8747 102.995C29.9032 102.974 29.9356 102.959 29.9699 102.951C30.0042 102.943 30.0398 102.941 30.0747 102.947C30.1095 102.952 30.143 102.965 30.1731 102.983C30.5614 103.22 30.9635 103.434 31.3774 103.622C31.4338 103.648 31.4796 103.692 31.5071 103.748ZM29.1272 102.292C29.1546 102.347 29.1625 102.41 29.1494 102.47C29.1364 102.53 29.1032 102.584 29.0554 102.622C29.0077 102.661 28.9482 102.682 28.8868 102.682C28.8255 102.682 28.766 102.661 28.7182 102.622C28.3446 102.325 27.9899 102.005 27.6559 101.664C27.606 101.613 27.5784 101.544 27.5792 101.473C27.5799 101.401 27.609 101.333 27.66 101.283C27.711 101.233 27.7797 101.206 27.851 101.207C27.9224 101.207 27.9905 101.236 28.0404 101.287C28.3586 101.612 28.6965 101.917 29.0524 102.201C29.084 102.225 29.1095 102.257 29.1272 102.292ZM27.1756 100.3C27.2049 100.36 27.2108 100.429 27.1923 100.493C27.1738 100.557 27.1321 100.612 27.0753 100.647C27.0186 100.682 26.9508 100.694 26.8852 100.682C26.8196 100.67 26.7609 100.634 26.7204 100.581C26.4316 100.201 26.1663 99.8037 25.9257 99.3914C25.8898 99.3294 25.8799 99.2557 25.8983 99.1864C25.9168 99.1172 25.9619 99.0581 26.0239 99.0221C26.0859 98.9861 26.1596 98.9763 26.2289 98.9947C26.2981 99.0131 26.3572 99.0583 26.3932 99.1203C26.6225 99.5141 26.8762 99.8933 27.1528 100.256C27.1618 100.27 27.1694 100.285 27.1756 100.3ZM25.3005 96.5703C25.3077 96.5845 25.3134 96.5994 25.3175 96.6147C25.428 96.9949 25.5585 97.369 25.7084 97.7354C25.7312 97.7939 25.754 97.8459 25.7773 97.9002C25.8055 97.9658 25.8064 98.0398 25.7799 98.1061C25.7535 98.1723 25.7018 98.2253 25.6362 98.2534C25.5707 98.2816 25.4966 98.2825 25.4304 98.256C25.3641 98.2296 25.3111 98.1779 25.283 98.1123C25.2585 98.0539 25.2339 97.9955 25.2105 97.937C25.0533 97.5533 24.9168 97.1615 24.8015 96.7631C24.7829 96.6987 24.7892 96.6296 24.8189 96.5695C24.8487 96.5093 24.8999 96.4625 24.9624 96.4382C25.0249 96.4139 25.0943 96.4138 25.1569 96.4381C25.2194 96.4623 25.2707 96.5091 25.3005 96.5692V96.5703Z" fill="#B9BCC5"/>
</g>
<g opacity="0.3">
<path opacity="0.3" d="M46.3024 88.2712C46.3343 88.335 46.3396 88.4088 46.3171 88.4765C46.2945 88.5442 46.2461 88.6001 46.1823 88.6321C46.1185 88.664 46.0447 88.6693 45.977 88.6467C45.9094 88.6242 45.8534 88.5757 45.8215 88.512C45.6184 88.1127 45.3915 87.7259 45.1419 87.3539C45.1051 87.2947 45.0927 87.2236 45.1073 87.1555C45.1219 87.0875 45.1624 87.0277 45.2202 86.9888C45.278 86.95 45.3486 86.9351 45.4172 86.9473C45.4857 86.9594 45.5469 86.9977 45.5878 87.0541C45.8495 87.444 46.0875 87.8493 46.3006 88.2677L46.3024 88.2712ZM46.8505 89.5328C46.8549 89.5415 46.8589 89.5504 46.8621 89.5596C47.0233 90.0006 47.1579 90.4507 47.2653 90.9077C47.2817 90.9774 47.2696 91.0508 47.2319 91.1116C47.1941 91.1725 47.1338 91.2159 47.064 91.2322C46.9943 91.2486 46.9209 91.2366 46.86 91.1988C46.7992 91.1611 46.7558 91.1007 46.7394 91.0309C46.637 90.5952 46.5086 90.1659 46.355 89.7455C46.3324 89.6811 46.3351 89.6106 46.3625 89.5482C46.39 89.4858 46.4402 89.4361 46.5029 89.4093C46.5656 89.3825 46.6361 89.3805 46.7002 89.4037C46.7643 89.427 46.8172 89.4737 46.8481 89.5345L46.8505 89.5328ZM44.7709 85.9936C44.7978 86.052 44.803 86.1182 44.7853 86.18C44.7676 86.2419 44.7283 86.2954 44.6746 86.3308C44.6208 86.3661 44.5561 86.381 44.4923 86.3728C44.4285 86.3645 44.3698 86.3336 44.3268 86.2857C44.0331 85.9476 43.7193 85.6274 43.3872 85.3269C43.3343 85.2791 43.3026 85.2122 43.2989 85.141C43.2953 85.0698 43.3201 85 43.368 84.9471C43.4158 84.8942 43.4826 84.8624 43.5539 84.8588C43.6251 84.8552 43.6948 84.88 43.7478 84.9278C44.0961 85.2429 44.425 85.5787 44.7329 85.9334C44.7481 85.9518 44.7608 85.972 44.7709 85.9936ZM47.4763 92.2066C47.4899 92.2349 47.4988 92.2653 47.5025 92.2966C47.553 92.7638 47.5748 93.2337 47.568 93.7036C47.5669 93.7749 47.5375 93.8428 47.4864 93.8925C47.4352 93.9421 47.3664 93.9694 47.2951 93.9683C47.2238 93.9672 47.1559 93.9378 47.1063 93.8867C47.0566 93.8355 47.0293 93.7667 47.0304 93.6954C47.0369 93.2466 47.016 92.7978 46.9679 92.3515C46.9611 92.2887 46.9766 92.2254 47.0117 92.1729C47.0468 92.1204 47.0994 92.0819 47.16 92.0643C47.2207 92.0466 47.2857 92.0509 47.3435 92.0764C47.4013 92.1019 47.4483 92.147 47.4763 92.2037V92.2066ZM42.7346 84.1536C42.761 84.2071 42.7689 84.268 42.7569 84.3265C42.7449 84.385 42.7138 84.4379 42.6684 84.4767C42.6231 84.5156 42.5661 84.5382 42.5064 84.5411C42.4468 84.5439 42.3878 84.5268 42.339 84.4925C41.9728 84.2353 41.5913 84.0006 41.1967 83.7896C41.1338 83.7559 41.0869 83.6986 41.0663 83.6303C41.0457 83.562 41.0531 83.4884 41.0868 83.4255C41.1205 83.3627 41.1778 83.3158 41.2461 83.2952C41.3143 83.2746 41.388 83.282 41.4508 83.3157C41.8645 83.538 42.2645 83.7848 42.6487 84.0548C42.685 84.0802 42.7145 84.1141 42.7346 84.1536ZM40.3173 82.8547C40.3412 82.9032 40.3498 82.9579 40.3422 83.0114C40.3345 83.065 40.3108 83.115 40.2743 83.1549C40.2377 83.1948 40.19 83.2227 40.1373 83.2351C40.0846 83.2474 40.0294 83.2435 39.9789 83.2239C39.5613 83.0623 39.1344 82.9257 38.7005 82.8149C38.633 82.7958 38.5757 82.7511 38.5407 82.6904C38.5057 82.6296 38.4958 82.5576 38.5132 82.4897C38.5306 82.4217 38.5739 82.3633 38.6337 82.3268C38.6936 82.2903 38.7653 82.2786 38.8337 82.2943C39.2887 82.4113 39.7363 82.5553 40.1741 82.7255C40.2361 82.7494 40.2871 82.7954 40.3173 82.8547ZM37.6575 82.1734C37.6812 82.2207 37.6899 82.274 37.6826 82.3264C37.6783 82.3616 37.6672 82.3956 37.6497 82.4264C37.6322 82.4572 37.6088 82.4843 37.5809 82.506C37.5529 82.5278 37.5209 82.5437 37.4867 82.553C37.4525 82.5623 37.4168 82.5647 37.3817 82.5602C36.9374 82.5018 36.4899 82.4708 36.0418 82.4673C36.0065 82.467 35.9717 82.4597 35.9392 82.4459C35.9067 82.4321 35.8772 82.4121 35.8525 82.3869C35.8277 82.3617 35.8082 82.3319 35.795 82.2992C35.7817 82.2665 35.7751 82.2314 35.7754 82.1961C35.7757 82.1608 35.783 82.126 35.7968 82.0935C35.8105 82.061 35.8306 82.0315 35.8558 82.0068C35.881 81.982 35.9108 81.9625 35.9435 81.9493C35.9762 81.936 36.0112 81.9294 36.0465 81.9297C36.5155 81.9335 36.9838 81.9659 37.4489 82.0267C37.493 82.0321 37.5351 82.0485 37.5713 82.0743C37.6076 82.1001 37.6368 82.1346 37.6563 82.1745L37.6575 82.1734Z" fill="#B9BCC5"/>
<path opacity="0.3" d="M47.4346 94.9633C47.4584 95.0114 47.4671 95.0656 47.4598 95.1187C47.4282 95.3466 47.3896 95.5745 47.3429 95.796C47.3249 95.8615 47.2828 95.9177 47.2249 95.9534C47.1671 95.9891 47.0979 96.0016 47.0313 95.9884C46.9647 95.9751 46.9055 95.9371 46.8657 95.882C46.826 95.8269 46.8086 95.7588 46.817 95.6914C46.8591 95.4798 46.8959 95.2625 46.9257 95.0445C46.9336 94.9875 46.9596 94.9344 46.9999 94.8933C47.0402 94.8521 47.0926 94.825 47.1495 94.8159C47.2064 94.8068 47.2647 94.8162 47.3158 94.8427C47.3669 94.8693 47.4082 94.9115 47.4335 94.9633H47.4346Z" fill="#B9BCC5"/>
</g>
<path d="M44.2203 96.2997C44.2321 96.2739 44.2356 96.245 44.2302 96.2172C44.2249 96.1893 44.211 96.1639 44.1905 96.1442L42.991 95.0019C43.1459 94.2326 43.1747 93.4432 43.0763 92.6647L44.3542 91.6129C44.376 91.5949 44.3917 91.5706 44.3992 91.5432C44.4066 91.5159 44.4054 91.487 44.3956 91.4604L43.7021 89.5982C43.6922 89.5716 43.6743 89.5487 43.6508 89.5328C43.6274 89.5169 43.5995 89.5087 43.5712 89.5094L41.9158 89.5497C41.4815 88.8965 40.9435 88.3187 40.323 87.8388L40.4831 86.1899C40.4856 86.1617 40.4794 86.1333 40.4653 86.1088C40.4512 86.0842 40.4299 86.0646 40.4042 86.0526L38.5969 85.2263C38.5711 85.2146 38.5423 85.2111 38.5145 85.2165C38.4866 85.2218 38.4611 85.2357 38.4415 85.2561L37.2992 86.4563C36.5299 86.3008 35.7404 86.272 34.9619 86.371L33.9102 85.0925C33.8922 85.0707 33.8678 85.0549 33.8405 85.0476C33.8131 85.0403 33.7842 85.0417 33.7576 85.0516L31.8954 85.7452C31.8688 85.755 31.8459 85.7729 31.83 85.7964C31.814 85.8198 31.8059 85.8477 31.8066 85.8761L31.8469 87.5309C31.1939 87.9656 30.6161 88.5038 30.1361 89.1243L28.4871 88.9642C28.4589 88.9614 28.4305 88.9675 28.4058 88.9816C28.3812 88.9958 28.3616 89.0173 28.3498 89.0431L27.5236 90.8504C27.5118 90.8761 27.5083 90.9048 27.5137 90.9326C27.519 90.9603 27.5329 90.9857 27.5534 91.0052L28.7542 92.1464C28.5987 92.9156 28.5698 93.7051 28.6689 94.4836L27.3904 95.5354C27.3685 95.5533 27.3528 95.5777 27.3454 95.6051C27.3381 95.6324 27.3395 95.6614 27.3495 95.6879L28.046 97.5518C28.0558 97.5784 28.0737 97.6012 28.0972 97.6171C28.1207 97.6329 28.1486 97.641 28.1769 97.6401L29.8317 97.5998C30.2664 98.253 30.8045 98.831 31.4251 99.3112L31.2597 100.96C31.2568 100.988 31.2629 101.017 31.2771 101.041C31.2912 101.066 31.3128 101.085 31.3386 101.097L33.1459 101.923C33.1716 101.935 33.2003 101.938 33.2281 101.933C33.2559 101.928 33.2813 101.914 33.3007 101.893L34.443 100.694C35.2124 100.849 36.0017 100.877 36.7803 100.779L37.8321 102.057C37.8501 102.079 37.8744 102.094 37.9017 102.102C37.929 102.109 37.958 102.108 37.9846 102.098L39.8491 101.405C39.8756 101.395 39.8984 101.377 39.9142 101.354C39.9301 101.33 39.9381 101.302 39.9373 101.274L39.897 99.6186C40.5503 99.1842 41.1284 98.6462 41.6085 98.0257L43.2574 98.1858C43.2856 98.1884 43.3138 98.1822 43.3383 98.1681C43.3628 98.154 43.3823 98.1326 43.3941 98.1069L44.2203 96.2997Z" fill="#B9BCC5"/>
<path d="M37.6995 92.6819C37.9328 93.1557 37.9734 93.7015 37.8126 94.2045C37.6518 94.7076 37.3023 95.1287 36.8374 95.3794C36.3726 95.63 35.8287 95.6907 35.32 95.5486C34.8114 95.4065 34.3777 95.0727 34.11 94.6174C33.8424 94.1621 33.7617 93.6208 33.8849 93.1073C34.0082 92.5937 34.3257 92.148 34.7708 91.8637C35.2159 91.5795 35.7539 91.4789 36.2716 91.5831C36.7894 91.6873 37.2465 91.9882 37.547 92.4225C37.6038 92.5053 37.6548 92.592 37.6995 92.6819ZM34.5325 94.2368C34.5648 94.3025 34.6019 94.3658 34.6436 94.4261C34.7514 94.5961 34.8925 94.7426 35.0583 94.8567C35.2242 94.9709 35.4113 95.0504 35.6086 95.0905C35.8059 95.1306 36.0093 95.1305 36.2066 95.0901C36.4038 95.0497 36.5909 94.97 36.7565 94.8556C36.9222 94.7412 37.0631 94.5945 37.1707 94.4244C37.2784 94.2542 37.3505 94.0641 37.3829 93.8654C37.4153 93.6667 37.4073 93.4635 37.3593 93.2679C37.3113 93.0724 37.2243 92.8886 37.1035 92.7275C36.8873 92.421 36.5638 92.2069 36.1971 92.1277C35.8305 92.0484 35.4474 92.1099 35.1239 92.2998C34.8004 92.4897 34.5601 92.7942 34.4506 93.153C34.341 93.5117 34.3703 93.8986 34.5325 94.2368Z" fill="#D7D9E0"/>
<path d="M40.3756 91.32C40.6039 91.7841 40.7605 92.2802 40.8401 92.7913L40.8471 92.8374C40.8551 92.8937 40.8452 92.951 40.8187 93.0012C40.7923 93.0515 40.7507 93.0921 40.6998 93.1173C40.6746 93.1295 40.6476 93.1378 40.6198 93.1419C40.5849 93.147 40.5493 93.1452 40.5151 93.1365C40.4809 93.1279 40.4487 93.1125 40.4204 93.0914C40.3921 93.0703 40.3683 93.0438 40.3503 93.0135C40.3322 92.9831 40.3204 92.9495 40.3154 92.9146C40.269 92.5953 40.1887 92.2819 40.0758 91.9797C40.0694 91.9633 40.0629 91.9464 40.0571 91.93C39.7891 91.2288 39.3496 90.606 38.7786 90.1186C38.4681 89.8539 38.1234 89.6322 37.7537 89.4595L37.7461 89.4584L37.7181 89.4455C37.1779 89.1969 36.5938 89.0579 35.9996 89.0364C35.4054 89.015 34.8127 89.1115 34.256 89.3205C34.1105 89.3746 33.9677 89.4361 33.8283 89.5045C33.2212 89.8052 32.6893 90.2383 32.2718 90.7719C31.8543 91.3056 31.562 91.9261 31.4163 92.5878C31.2707 93.2494 31.2754 93.9354 31.4301 94.595C31.5849 95.2546 31.8857 95.8711 32.3105 96.3989C32.7352 96.9268 33.273 97.3525 33.8843 97.6448C34.4955 97.9371 35.1645 98.0885 35.842 98.0877C36.5196 98.087 37.1883 97.9342 37.7989 97.6406C38.4095 97.3469 38.9464 96.92 39.37 96.3912C39.392 96.3636 39.4192 96.3407 39.4501 96.3236C39.481 96.3065 39.515 96.2958 39.5501 96.2918C39.5851 96.2879 39.6206 96.2909 39.6546 96.3007C39.6885 96.3105 39.7201 96.3268 39.7477 96.3489C39.7753 96.3709 39.7983 96.3981 39.8153 96.429C39.8324 96.4599 39.8432 96.4939 39.8471 96.529C39.8511 96.5641 39.848 96.5996 39.8383 96.6335C39.8285 96.6674 39.8121 96.699 39.7901 96.7266C39.3163 97.3184 38.7157 97.7963 38.0326 98.125C37.3495 98.4537 36.6013 98.6249 35.8432 98.6258C35.0852 98.6268 34.3366 98.4576 33.6526 98.1307C32.9687 97.8037 32.3668 97.3274 31.8915 96.7368C31.4162 96.1463 31.0796 95.4566 30.9064 94.7185C30.7332 93.9805 30.7279 93.213 30.8909 92.4727C31.0539 91.7323 31.3811 91.038 31.8482 90.441C32.3153 89.8439 32.9105 89.3594 33.5899 89.0231C33.7446 88.9457 33.9031 88.8765 34.065 88.8156C35.2403 88.3788 36.5359 88.3931 37.7013 88.8556C38.8668 89.3181 39.8196 90.1961 40.3756 91.32Z" fill="#D7D9E0"/>
<defs>
<linearGradient id="paint0_linear" x1="79.0371" y1="63.3566" x2="64.015" y2="52.7636" gradientUnits="userSpaceOnUse">
<stop stop-color="white"/>
<stop offset="1" stop-color="#EFEFF4"/>
</linearGradient>
<linearGradient id="paint1_linear" x1="9009.6" y1="28967" x2="7270.78" y2="34339.1" gradientUnits="userSpaceOnUse">
<stop stop-color="white"/>
<stop offset="1" stop-color="#EFEFF4"/>
</linearGradient>
<linearGradient id="paint2_linear" x1="94.1653" y1="76.5156" x2="100.36" y2="93.2135" gradientUnits="userSpaceOnUse">
<stop stop-color="white"/>
<stop offset="0.58" stop-color="#F8F8FA"/>
<stop offset="1" stop-color="#EFEFF4"/>
</linearGradient>
<linearGradient id="paint3_linear" x1="-9011.2" y1="7791.41" x2="-9041.26" y2="6433.43" gradientUnits="userSpaceOnUse">
<stop stop-color="white"/>
<stop offset="1" stop-color="#EFEFF4"/>
</linearGradient>
<linearGradient id="paint4_linear" x1="11414.4" y1="25294.7" x2="13971.3" y2="27125.9" gradientUnits="userSpaceOnUse">
<stop stop-color="white"/>
<stop offset="1" stop-color="#EFEFF4"/>
</linearGradient>
<linearGradient id="paint5_linear" x1="9917.19" y1="5123.19" x2="11062.7" y2="3985.6" gradientUnits="userSpaceOnUse">
<stop stop-color="white"/>
<stop offset="1" stop-color="#EFEFF4"/>
</linearGradient>
<linearGradient id="paint6_linear" x1="2856.94" y1="1625.52" x2="3200.73" y2="1311.61" gradientUnits="userSpaceOnUse">
<stop stop-color="white"/>
<stop offset="1" stop-color="#EFEFF4"/>
</linearGradient>
</defs>
</svg>
