<svg width="103" height="104" viewBox="0 0 103 104" fill="none" xmlns="http://www.w3.org/2000/svg">
<path d="M90.2666 89.4446C87.5975 92.1959 85.2088 93.8135 83.3801 95.0343C65.5456 106.943 45.1592 103.51 38.8558 102.337C28.6868 100.444 20.1022 99.1094 12.7271 92.4458C-4.03231 77.3045 -3.2173 45.719 9.58868 26.1549C11.1084 23.8348 23.8941 4.87912 44.325 2.21009C44.8248 2.1448 45.1974 2.10765 45.5239 2.07275C48.6849 1.73842 68.2704 -0.027809 84.2407 13.3523C87.8795 16.4106 91.04 19.9962 93.6172 23.9902C106.091 43.2543 106.131 73.0921 90.2666 89.4446Z" fill="#EFEFF4"/>
<path d="M1.60245 2.35339C1.46343 1.76409 2.29307 1.37234 2.8002 1.78266C7.95366 5.96295 20.3358 18.4763 17.2497 40.3453C13.3784 67.7826 19.997 77.7945 28.236 83.9026C28.236 83.9026 16.9227 81.0321 9.80263 70.8715C-7.67558 45.9276 4.06324 12.8286 1.60245 2.35339Z" fill="#D7D9E0"/>
<g style="mix-blend-mode:soft-light">
<path d="M5.5246 10.922C6.16907 13.9766 6.74374 17.0408 7.18783 20.1179C7.65049 23.1948 8.00377 26.2787 8.24767 29.3695C8.47676 32.4612 8.63829 35.5558 8.6473 38.6514C8.67263 41.7471 8.54373 44.8428 8.4019 47.9458C8.28032 51.0499 8.13736 54.1766 8.36475 57.3251C8.59214 60.4737 9.24955 63.6375 10.5599 66.6088C10.888 67.3495 11.2353 68.0874 11.6248 68.8039C12.0019 69.5238 12.4156 70.2291 12.8439 70.9281C13.7176 72.3391 14.6948 73.6833 15.7674 74.9497C17.945 77.5033 20.5713 79.7683 23.4643 81.6853C23.7689 81.8874 24.2051 81.8379 24.4386 81.5728C24.6722 81.3077 24.6171 80.9463 24.3261 80.742C23.6371 80.2585 22.9561 79.7688 22.3026 79.2544C21.9711 79.0017 21.6531 78.7371 21.3295 78.4776C21.0176 78.2075 20.694 77.948 20.3923 77.6705C19.1754 76.5904 18.0392 75.4228 16.9927 74.1769C14.9158 71.7212 13.2531 68.9846 11.9934 66.1484C11.3845 64.7338 10.897 63.27 10.5362 61.7728C10.1861 60.2827 9.95109 58.7679 9.83323 57.2418C9.58557 54.1856 9.69758 51.0899 9.79326 47.9852C9.88895 44.8805 9.95142 41.7584 9.86925 38.6419C9.83172 37.0828 9.76324 35.5256 9.66381 33.9702C9.61878 33.1918 9.5563 32.4139 9.49495 31.6361C9.42516 30.8593 9.35011 30.0828 9.26981 29.3064C8.93548 26.1984 8.49101 23.1048 7.93642 20.0256C7.36287 16.9507 6.69477 13.8905 5.89158 10.8573C5.876 10.8126 5.84423 10.7754 5.80255 10.753C5.76087 10.7306 5.7123 10.7246 5.66644 10.7363C5.64485 10.739 5.62402 10.746 5.60515 10.7568C5.58629 10.7676 5.56977 10.7821 5.55656 10.7994C5.54336 10.8167 5.53373 10.8365 5.52824 10.8575C5.52276 10.8786 5.52152 10.9005 5.5246 10.922Z" fill="white"/>
</g>
<path d="M15.422 64.1629C15.2757 64.3178 15.0935 64.4341 14.8914 64.5016C14.6894 64.5692 14.4738 64.5858 14.2638 64.5501C14.0538 64.5143 13.8559 64.4273 13.6876 64.2967C13.5193 64.1662 13.3858 63.9961 13.2989 63.8016C11.204 59.171 6.45806 45.5433 14.2963 29.8437C20.9154 16.5851 23.2456 8.76771 24.0562 5.1452C24.2278 4.37916 25.2775 4.27728 25.5944 4.99548C29.0903 12.9193 38.3205 39.8708 15.422 64.1629Z" fill="#D7D9E0"/>
<g style="mix-blend-mode:soft-light">
<path d="M14.2763 63.6759C14.2535 63.6801 14.2303 63.682 14.2071 63.6816C14.1599 63.6808 14.1132 63.6708 14.0699 63.6521C14.0265 63.6333 13.9873 63.6062 13.9544 63.5723C13.9215 63.5383 13.8957 63.4983 13.8783 63.4544C13.8609 63.4104 13.8523 63.3635 13.8531 63.3163C13.8564 63.0911 14.2949 40.585 22.6656 21.7351C22.6848 21.692 22.7123 21.653 22.7465 21.6204C22.7808 21.5879 22.8211 21.5624 22.8652 21.5455C22.9093 21.5285 22.9563 21.5204 23.0035 21.5216C23.0507 21.5228 23.0972 21.5333 23.1404 21.5525C23.1836 21.5717 23.2225 21.5991 23.2551 21.6334C23.2876 21.6676 23.3131 21.7079 23.33 21.752C23.347 21.7961 23.3551 21.8431 23.3539 21.8903C23.3527 21.9376 23.3422 21.9841 23.323 22.0272C15.0131 40.7398 14.5775 63.1035 14.5724 63.3275C14.571 63.4109 14.5407 63.4912 14.4867 63.5547C14.4327 63.6183 14.3584 63.6611 14.2763 63.6759Z" fill="white"/>
</g>
<path d="M77.3186 65.1396C76.7299 65.7509 75.5558 65.1261 75.3104 64.239C73.9556 59.3473 68.2691 43.6736 78.1927 31.0415C86.5736 20.3749 92.0085 16.2554 93.7983 13.3151C95.0186 11.3102 95.7081 11.6541 95.9096 12.4106C98.1368 20.7577 98.3304 43.3348 77.3186 65.1396Z" fill="#D7D9E0"/>
<g style="mix-blend-mode:soft-light">
<path d="M76.7595 55.5576C76.777 55.573 76.7958 55.5868 76.8158 55.5987C76.8979 55.6487 76.9951 55.6677 77.0899 55.6521C77.1848 55.6365 77.2708 55.5874 77.3325 55.5137C77.4608 55.3448 90.2359 38.3051 94.0852 19.7969C94.1218 19.619 93.9878 19.4457 93.7852 19.4091C93.5826 19.3725 93.3912 19.489 93.3518 19.6669C89.5301 38.04 76.8378 54.9722 76.71 55.1411C76.6626 55.2034 76.6413 55.2816 76.6505 55.3594C76.6598 55.4371 76.6989 55.5082 76.7595 55.5576Z" fill="#D7D9E0"/>
</g>
<path d="M61.3651 65.362C61.4456 66.4049 63.3548 66.7578 64.4945 66.15C70.7833 62.8061 87.3705 52.1991 88.5626 32.8438C89.569 16.4998 92.2819 7.70522 93.8996 3.77427C94.2418 2.94294 93.0316 2.69754 91.9403 2.80504C69.1262 5.06151 58.4906 28.077 61.3651 65.362Z" fill="#C6C9D3"/>
<g style="mix-blend-mode:soft-light">
<path d="M63.2758 65.5036C63.3044 65.5203 63.3344 65.5347 63.3653 65.5464C63.6349 65.65 63.9709 65.5768 64.115 65.3837C64.2788 65.1648 80.5283 43.2074 83.3606 20.5285C83.3876 20.3101 83.1625 20.117 82.858 20.0973C82.5535 20.0776 82.2839 20.2392 82.2563 20.4576C79.4454 42.9716 63.3012 64.7911 63.1385 65.0089C63.0113 65.1789 63.0749 65.386 63.2758 65.5036Z" fill="white"/>
</g>
<path d="M9.09009 91.9032C9.09083 92.3209 9.25711 92.7213 9.55251 93.0167C9.8479 93.3121 10.2483 93.4784 10.6661 93.4791H95.8254C96.2431 93.4784 96.6436 93.3121 96.939 93.0167C97.2344 92.7213 97.4006 92.3209 97.4014 91.9032L98.11 42.9633C98.11 42.0982 97.0907 40.4085 95.222 40.5357L11.9927 38.3822C11.4552 38.3681 10.9205 38.4633 10.4209 38.662C9.9213 38.8608 9.46732 39.159 9.08649 39.5386C8.70567 39.9182 8.40594 40.3711 8.2055 40.8701C8.00507 41.369 7.9081 41.9034 7.92049 42.441L9.09009 91.9032Z" fill="#333435"/>
<path d="M10.6453 90.3945C10.6465 90.7893 10.8038 91.1676 11.083 91.4467C11.3621 91.7259 11.7404 91.8832 12.1352 91.8844H93.7711C94.1658 91.8831 94.544 91.7257 94.8231 91.4466C95.1022 91.1674 95.2596 90.7893 95.2609 90.3945L95.9318 45.9653C95.853 43.2918 93.5088 42.331 92.0881 42.3879L12.3203 40.249C11.9424 40.239 11.5665 40.3059 11.2152 40.4457C10.864 40.5855 10.5449 40.7953 10.2772 41.0622C10.0096 41.3292 9.79901 41.6478 9.65832 41.9986C9.51763 42.3495 9.44975 42.7253 9.45881 43.1032L10.6453 90.3945Z" fill="#F7E057"/>
<path opacity="0.7" d="M94.3806 69.289C94.3519 69.2887 94.3235 69.2826 94.2971 69.2713C94.2707 69.2599 94.2469 69.2435 94.2268 69.2229C94.2068 69.2023 94.191 69.1779 94.1804 69.1512C94.1698 69.1245 94.1646 69.096 94.1651 69.0673L94.218 65.465C94.2189 65.4077 94.2423 65.353 94.2831 65.3128C94.324 65.2725 94.379 65.25 94.4364 65.25H94.4397C94.4684 65.2504 94.4967 65.2565 94.5231 65.2679C94.5494 65.2793 94.5732 65.2958 94.5932 65.3163C94.6131 65.3369 94.6289 65.3613 94.6394 65.3879C94.65 65.4146 94.6552 65.4431 94.6547 65.4718L94.6018 69.074C94.6009 69.1318 94.5772 69.1869 94.5357 69.2273C94.4942 69.2676 94.4385 69.2898 94.3806 69.289Z" fill="white"/>
<path opacity="0.7" d="M94.5106 60.458H94.5072C94.4786 60.4576 94.4503 60.4516 94.424 60.4403C94.3976 60.4289 94.3738 60.4125 94.3538 60.392C94.3339 60.3714 94.3181 60.3471 94.3076 60.3205C94.297 60.2939 94.2918 60.2654 94.2922 60.2368L94.4949 46.4368C94.4909 45.6173 94.2421 44.9627 93.7553 44.4961C92.8463 43.6253 91.4026 43.6698 91.3418 43.6726L65.8446 42.9888C65.8159 42.988 65.7876 42.9815 65.7614 42.9697C65.7352 42.958 65.7115 42.9412 65.6918 42.9202C65.6721 42.8993 65.6567 42.8747 65.6465 42.8478C65.6363 42.821 65.6315 42.7923 65.6324 42.7636C65.6319 42.7345 65.6374 42.7056 65.6487 42.6787C65.66 42.6518 65.6768 42.6276 65.698 42.6076C65.7192 42.5877 65.7443 42.5723 65.7718 42.5626C65.7993 42.553 65.8285 42.5491 65.8576 42.5514L91.3378 43.2347C91.4966 43.2257 93.0331 43.1987 94.0564 44.1798C94.6322 44.7313 94.9266 45.4912 94.9305 46.4379L94.7279 60.2418C94.7273 60.2992 94.7042 60.354 94.6635 60.3944C94.6229 60.4348 94.568 60.4577 94.5106 60.458Z" fill="white"/>
<path d="M2.49904 97.541L102.265 97.541C102.441 97.541 102.583 97.3986 102.583 97.223V93.5588C102.583 93.3832 102.441 93.2408 102.265 93.2408L2.49904 93.2408C2.32341 93.2408 2.18104 93.3832 2.18104 93.5588V97.223C2.18104 97.3986 2.32341 97.541 2.49904 97.541Z" fill="#333435"/>
<path d="M91.0656 25.9648H14.5606C13.8398 25.9648 13.2554 26.5492 13.2554 27.2701V84.4996C13.2554 85.2205 13.8398 85.8049 14.5606 85.8049H91.0656C91.7864 85.8049 92.3708 85.2205 92.3708 84.4996V27.2701C92.3708 26.5492 91.7864 25.9648 91.0656 25.9648Z" fill="#B9BCC5"/>
<path d="M92.4698 33.1185V28.9506C92.4698 27.302 91.034 25.9551 89.3859 25.9551H16.2395C14.5915 25.9551 13.3037 27.302 13.3037 28.9506V33.1185H92.4698Z" fill="#979AA0"/>
<path d="M17.7083 31.36C18.5666 31.36 19.2624 30.6643 19.2624 29.806C19.2624 28.9477 18.5666 28.252 17.7083 28.252C16.8501 28.252 16.1543 28.9477 16.1543 29.806C16.1543 30.6643 16.8501 31.36 17.7083 31.36Z" fill="url(#paint0_linear)"/>
<path d="M87.7783 37.7422H17.4157C16.7188 37.7422 16.1538 38.3072 16.1538 39.0041V53.0551C16.1538 53.752 16.7188 54.317 17.4157 54.317H87.7783C88.4752 54.317 89.0402 53.752 89.0402 53.0551V39.0041C89.0402 38.3072 88.4752 37.7422 87.7783 37.7422Z" fill="#E8E8EF"/>
<path d="M47.5222 56.9609H17.802C17.105 56.9609 16.54 57.5259 16.54 58.2229V80.8421C16.54 81.5391 17.105 82.1041 17.802 82.1041H47.5222C48.2191 82.1041 48.7841 81.5391 48.7841 80.8421V58.2229C48.7841 57.5259 48.2191 56.9609 47.5222 56.9609Z" fill="#E8E8EF"/>
<path d="M87.8125 56.7168H52.8937C52.1968 56.7168 51.6318 57.2818 51.6318 57.9787V80.598C51.6318 81.2949 52.1968 81.8599 52.8937 81.8599H87.8125C88.5094 81.8599 89.0744 81.2949 89.0744 80.598V57.9787C89.0744 57.2818 88.5094 56.7168 87.8125 56.7168Z" fill="#E8E8EF"/>
<path d="M29.0347 71.709C29.0347 71.709 35.3577 88.3851 37.3553 91.854C39.6742 95.8812 46.447 93.3174 46.1099 89.9448C45.7727 86.5722 37.8602 72.645 37.8602 72.645L29.0347 71.709Z" fill="#48494B"/>
<path d="M37.5783 59.5616L76.8788 45.9355L76.4662 82.8102L36.5044 73.8935L37.5783 59.5616Z" fill="#888B8F"/>
<path d="M76.9158 83.4294C79.0483 83.4294 80.777 74.9452 80.777 64.4794C80.777 54.0135 79.0483 45.5293 76.9158 45.5293C74.7834 45.5293 73.0547 54.0135 73.0547 64.4794C73.0547 74.9452 74.7834 83.4294 76.9158 83.4294Z" fill="white"/>
<path d="M77.2094 82.1337C76.8604 81.7785 76.1 80.4097 75.4482 76.8688C74.8184 73.4472 74.4717 69.0091 74.4717 64.3735C74.4717 59.7378 74.8184 55.2986 75.4482 51.8782C76.1 48.3379 76.8604 46.9684 77.2094 46.6133C77.5584 46.9684 78.3182 48.3379 78.97 51.8782C79.5998 55.2998 79.9471 59.7378 79.9471 64.3735C79.9471 69.0091 79.5998 73.4483 78.97 76.8688C78.3182 80.4125 77.5612 81.7785 77.2094 82.1337Z" fill="#48494B"/>
<path d="M82.1576 64.2324C82.1576 67.4524 80.4234 70.0624 76.99 70.0624C73.5567 70.0624 70.7739 67.4524 70.7739 64.2324C70.7739 61.0123 73.5572 58.4023 76.99 58.4023C80.4229 58.4023 82.1576 61.0128 82.1576 64.2324Z" fill="#888B8F"/>
<path d="M31.2381 58.7708C33.0865 58.5563 35.7375 58.4787 38.6041 59.1355C37.6597 64.0683 37.8021 69.2105 38.8946 74.5346H30.8115C30.1875 74.5349 29.5838 74.3125 29.1092 73.9074C28.6346 73.5023 28.3201 72.9411 28.2224 72.3248C27.8194 69.7728 27.3269 65.4833 27.852 62.0381C27.9801 61.1976 28.3809 60.4225 28.9928 59.8321C29.6046 59.2417 30.3936 58.8688 31.2381 58.7708Z" fill="#333435"/>
<path d="M36.0914 62.5469H29.7926C29.6892 62.547 29.5877 62.5192 29.4989 62.4665C29.41 62.4137 29.337 62.338 29.2876 62.2472C29.2382 62.1564 29.2142 62.054 29.2182 61.9507C29.2222 61.8474 29.254 61.7471 29.3102 61.6604C29.3211 61.6412 29.3358 61.6244 29.3534 61.611C29.371 61.5977 29.3911 61.5881 29.4126 61.5828C29.434 61.5775 29.4563 61.5767 29.4781 61.5803C29.4999 61.584 29.5207 61.5921 29.5392 61.604C29.5578 61.616 29.5737 61.6317 29.586 61.65C29.5983 61.6684 29.6067 61.6891 29.6107 61.7108C29.6147 61.7325 29.6142 61.7548 29.6093 61.7764C29.6044 61.7979 29.5951 61.8182 29.5821 61.836C29.5575 61.8738 29.5437 61.9176 29.542 61.9626C29.5402 62.0077 29.5507 62.0524 29.5723 62.092C29.5938 62.1316 29.6257 62.1646 29.6644 62.1876C29.7032 62.2106 29.7475 62.2227 29.7926 62.2227H36.0914C36.1579 62.2227 36.2216 62.1963 36.2685 62.1493C36.3155 62.1023 36.3419 62.0386 36.3419 61.9722V61.5219C36.3419 61.4555 36.3155 61.3918 36.2685 61.3448C36.2216 61.2979 36.1579 61.2715 36.0914 61.2715H29.7458C29.7029 61.2715 29.6616 61.2544 29.6312 61.224C29.6008 61.1936 29.5837 61.1524 29.5837 61.1094C29.5837 61.0664 29.6008 61.0251 29.6312 60.9947C29.6616 60.9643 29.7029 60.9473 29.7458 60.9473H36.0914C36.2438 60.9474 36.3899 61.008 36.4976 61.1157C36.6054 61.2235 36.666 61.3696 36.6661 61.5219V61.9722C36.666 62.1246 36.6054 62.2707 36.4976 62.3784C36.3899 62.4861 36.2438 62.5467 36.0914 62.5469Z" fill="#5C5E61"/>
<path d="M35.5299 65.3371H29.231C29.1277 65.3372 29.0262 65.3094 28.9373 65.2567C28.8485 65.2039 28.7755 65.1281 28.7261 65.0373C28.6767 64.9466 28.6527 64.8441 28.6567 64.7409C28.6607 64.6376 28.6924 64.5373 28.7487 64.4506C28.7728 64.4163 28.8093 64.3928 28.8504 64.3849C28.8915 64.3769 28.9341 64.3852 28.9693 64.408C29.0044 64.4308 29.0294 64.4663 29.0389 64.507C29.0485 64.5478 29.0419 64.5907 29.0205 64.6267C28.9962 64.6646 28.9824 64.7083 28.9808 64.7532C28.9791 64.7982 28.9896 64.8428 29.0112 64.8823C29.0327 64.9218 29.0645 64.9548 29.1032 64.9777C29.1419 65.0007 29.186 65.0128 29.231 65.0129H35.5299C35.5628 65.0129 35.5953 65.0065 35.6257 64.994C35.6561 64.9815 35.6837 64.9631 35.707 64.9399C35.7302 64.9166 35.7487 64.8891 35.7613 64.8587C35.7739 64.8284 35.7804 64.7958 35.7804 64.7629V64.3127C35.7804 64.2798 35.7739 64.2472 35.7613 64.2168C35.7487 64.1864 35.7303 64.1588 35.707 64.1356C35.6838 64.1123 35.6561 64.0939 35.6258 64.0813C35.5954 64.0687 35.5628 64.0622 35.5299 64.0622H29.1843C29.1623 64.0635 29.1402 64.0603 29.1194 64.0527C29.0987 64.0452 29.0797 64.0335 29.0636 64.0183C29.0475 64.0032 29.0347 63.9849 29.0259 63.9646C29.0172 63.9443 29.0127 63.9225 29.0127 63.9004C29.0127 63.8783 29.0172 63.8564 29.0259 63.8361C29.0347 63.8159 29.0475 63.7976 29.0636 63.7824C29.0797 63.7673 29.0987 63.7556 29.1194 63.748C29.1402 63.7405 29.1623 63.7373 29.1843 63.7386H35.5299C35.6822 63.7386 35.8283 63.799 35.9361 63.9067C36.0438 64.0143 36.1044 64.1604 36.1046 64.3127V64.7629C36.1043 64.9152 36.0436 65.0612 35.9359 65.1688C35.8282 65.2764 35.6822 65.3369 35.5299 65.3371Z" fill="#5C5E61"/>
<path d="M43.2891 58.5629C43.2506 58.5626 43.2134 58.5487 43.1842 58.5235C43.155 58.4984 43.1357 58.4636 43.1298 58.4256C43.1239 58.3875 43.1318 58.3486 43.152 58.3158C43.1722 58.2829 43.2035 58.2584 43.2401 58.2465L73.0059 48.7743C73.0467 48.7622 73.0905 48.7665 73.1281 48.7864C73.1657 48.8063 73.1939 48.8402 73.2067 48.8807C73.2196 48.9212 73.216 48.9652 73.1968 49.0031C73.1775 49.041 73.1442 49.0698 73.1039 49.0833L43.3397 58.5556C43.3233 58.5606 43.3062 58.5631 43.2891 58.5629Z" fill="#A8ABB2"/>
<path d="M39.2638 60.2096C39.2261 60.2097 39.1896 60.1967 39.1604 60.1728C39.1313 60.1489 39.1114 60.1157 39.1041 60.0787C39.0969 60.0417 39.1027 60.0034 39.1206 59.9703C39.1386 59.9371 39.1675 59.9113 39.2024 59.8972L40.7339 59.2713C40.7537 59.2627 40.775 59.2581 40.7966 59.2578C40.8182 59.2576 40.8396 59.2616 40.8596 59.2697C40.8796 59.2779 40.8978 59.2899 40.9131 59.3052C40.9284 59.3204 40.9405 59.3386 40.9486 59.3585C40.9568 59.3785 40.9609 59.3999 40.9607 59.4215C40.9605 59.4431 40.956 59.4645 40.9474 59.4843C40.9388 59.5041 40.9264 59.522 40.9108 59.5369C40.8952 59.5519 40.8768 59.5635 40.8566 59.5713L39.3246 60.1972C39.3053 60.2054 39.2847 60.2096 39.2638 60.2096Z" fill="#A8ABB2"/>
<path d="M36.0914 68.6035H29.7926C29.6892 68.6036 29.5877 68.5759 29.4989 68.5231C29.41 68.4704 29.337 68.3946 29.2876 68.3038C29.2382 68.213 29.2142 68.1106 29.2182 68.0073C29.2222 67.904 29.254 67.8037 29.3102 67.717C29.3211 67.6978 29.3358 67.681 29.3534 67.6677C29.371 67.6543 29.3911 67.6447 29.4126 67.6394C29.434 67.6342 29.4563 67.6333 29.4781 67.637C29.4999 67.6406 29.5207 67.6487 29.5392 67.6607C29.5578 67.6727 29.5737 67.6883 29.586 67.7067C29.5983 67.725 29.6067 67.7457 29.6107 67.7674C29.6147 67.7892 29.6142 67.8115 29.6093 67.833C29.6044 67.8545 29.5951 67.8748 29.5821 67.8926C29.5575 67.9305 29.5437 67.9742 29.542 68.0193C29.5402 68.0643 29.5507 68.109 29.5723 68.1486C29.5938 68.1882 29.6257 68.2213 29.6644 68.2443C29.7032 68.2673 29.7475 68.2794 29.7926 68.2793H36.0914C36.1579 68.2793 36.2216 68.2529 36.2685 68.206C36.3155 68.159 36.3419 68.0953 36.3419 68.0289V67.5786C36.3419 67.5121 36.3155 67.4484 36.2685 67.4015C36.2216 67.3545 36.1579 67.3281 36.0914 67.3281H29.7458C29.7246 67.3281 29.7035 67.3239 29.6838 67.3158C29.6641 67.3076 29.6463 67.2957 29.6312 67.2806C29.6162 67.2656 29.6042 67.2477 29.5961 67.228C29.5879 67.2084 29.5837 67.1873 29.5837 67.166C29.5837 67.1447 29.5879 67.1236 29.5961 67.104C29.6042 67.0843 29.6162 67.0664 29.6312 67.0514C29.6463 67.0363 29.6641 67.0244 29.6838 67.0162C29.7035 67.0081 29.7246 67.0039 29.7458 67.0039H36.0914C36.2439 67.0041 36.3901 67.0647 36.4978 67.1726C36.6056 67.2804 36.6661 67.4267 36.6661 67.5791V68.0294C36.6658 68.1817 36.6051 68.3276 36.4974 68.4352C36.3897 68.5429 36.2437 68.6034 36.0914 68.6035Z" fill="#5C5E61"/>
<path d="M36.6813 72.2305H30.3824C30.2791 72.2306 30.1776 72.2028 30.0887 72.1501C29.9998 72.0973 29.9268 72.0216 29.8774 71.9308C29.828 71.84 29.8041 71.7376 29.808 71.6343C29.812 71.531 29.8438 71.4307 29.9 71.344C29.9109 71.3248 29.9256 71.308 29.9432 71.2946C29.9608 71.2813 29.981 71.2717 30.0024 71.2664C30.0239 71.2611 30.0462 71.2603 30.0679 71.2639C30.0897 71.2676 30.1105 71.2757 30.1291 71.2876C30.1476 71.2996 30.1636 71.3153 30.1758 71.3336C30.1881 71.352 30.1965 71.3727 30.2005 71.3944C30.2046 71.4161 30.2041 71.4384 30.1992 71.46C30.1942 71.4815 30.185 71.5018 30.1719 71.5196C30.1474 71.5574 30.1335 71.6012 30.1318 71.6462C30.1301 71.6913 30.1406 71.736 30.1621 71.7756C30.1837 71.8152 30.2155 71.8482 30.2543 71.8712C30.2931 71.8942 30.3373 71.9063 30.3824 71.9063H36.6813C36.7477 71.9063 36.8114 71.8799 36.8584 71.8329C36.9054 71.786 36.9317 71.7222 36.9317 71.6558V71.2055C36.9317 71.1391 36.9054 71.0754 36.8584 71.0284C36.8114 70.9814 36.7477 70.9551 36.6813 70.9551H30.3374C30.2944 70.9551 30.2532 70.938 30.2228 70.9076C30.1924 70.8772 30.1753 70.836 30.1753 70.793C30.1753 70.75 30.1924 70.7087 30.2228 70.6783C30.2532 70.6479 30.2944 70.6309 30.3374 70.6309H36.6813C36.8336 70.631 36.9797 70.6916 37.0875 70.7993C37.1952 70.9071 37.2558 71.0532 37.2559 71.2055V71.6558C37.2558 71.8082 37.1952 71.9543 37.0875 72.062C36.9797 72.1697 36.8336 72.2303 36.6813 72.2305Z" fill="#5C5E61"/>
<path d="M42.307 91.9481C41.5182 91.9478 40.7463 91.7201 40.0835 91.2923C39.4208 90.8646 38.8954 90.2549 38.5702 89.5363L33.5378 78.3559C33.522 78.317 33.5219 78.2735 33.5375 78.2346C33.5531 78.1956 33.5833 78.1643 33.6215 78.1471C33.6598 78.1299 33.7032 78.1282 33.7427 78.1423C33.7822 78.1565 33.8147 78.1854 33.8333 78.223L38.8657 89.4035C39.1054 89.9416 39.469 90.4155 39.9268 90.7862C40.3846 91.157 40.9236 91.4141 41.4999 91.5367C42.0631 91.6631 42.6483 91.6545 43.2075 91.5115C43.7668 91.3684 44.2843 91.0951 44.7177 90.7138C44.7655 90.6722 44.8128 90.6294 44.8606 90.586C44.8924 90.557 44.9343 90.5418 44.9773 90.5437C45.0202 90.5456 45.0607 90.5645 45.0897 90.5962C45.1188 90.6279 45.134 90.6699 45.1321 90.7128C45.1302 90.7558 45.1113 90.7962 45.0796 90.8253C45.0295 90.8703 44.9805 90.9147 44.931 90.9575C44.2063 91.5965 43.2731 91.9487 42.307 91.9481Z" fill="#5C5E61"/>
<path d="M32.9419 76.7977C32.9107 76.7977 32.8801 76.7887 32.8538 76.7717C32.8275 76.7547 32.8067 76.7305 32.7939 76.702L32.2311 75.4547C32.2134 75.4156 32.2121 75.3711 32.2273 75.331C32.2425 75.2909 32.273 75.2584 32.3121 75.2408C32.3512 75.2232 32.3957 75.2219 32.4358 75.2371C32.476 75.2523 32.5084 75.2828 32.526 75.3219L33.0888 76.5692C33.1064 76.6084 33.1077 76.6529 33.0925 76.6931C33.0773 76.7333 33.0469 76.7658 33.0078 76.7836C32.987 76.7927 32.9646 76.7975 32.9419 76.7977Z" fill="#5C5E61"/>
<path d="M81.2373 64.0627C81.1964 64.0626 81.1571 64.0471 81.1272 64.0192C81.0973 63.9913 81.0791 63.9531 81.0763 63.9124C80.9637 62.3364 80.4172 61.1584 79.4508 60.4165C77.7791 59.1332 75.3943 59.5722 75.3707 59.579C75.3294 59.585 75.2874 59.575 75.2533 59.5508C75.2193 59.5266 75.1959 59.4903 75.188 59.4493C75.1801 59.4083 75.1883 59.3659 75.2109 59.3308C75.2335 59.2957 75.2688 59.2707 75.3093 59.261C75.4123 59.2407 77.8624 58.7887 79.6483 60.1615C80.6913 60.9625 81.2806 62.2176 81.3994 63.8916C81.4023 63.9344 81.3881 63.9766 81.36 64.009C81.3318 64.0414 81.2919 64.0613 81.2491 64.0644L81.2373 64.0627Z" fill="#A8ABB2"/>
<path d="M24.3135 30.5975C25.9107 27.7385 24.8878 24.1261 22.0288 22.5289C19.1699 20.9318 15.5575 21.9547 13.9603 24.8136C12.3631 27.6726 13.386 31.285 16.245 32.8822C19.1039 34.4793 22.7163 33.4564 24.3135 30.5975Z" fill="#ECC538"/>
<path d="M23.1905 31.7606C25.4293 29.5219 25.4293 25.8922 23.1905 23.6534C20.9518 21.4147 17.3221 21.4147 15.0834 23.6534C12.8446 25.8922 12.8446 29.5219 15.0834 31.7606C17.3221 33.9994 20.9518 33.9994 23.1905 31.7606Z" fill="#F7E057"/>
<path opacity="0.7" d="M14.2966 25.786C14.2666 25.7878 14.2367 25.7824 14.2093 25.7703C14.1862 25.7602 14.1654 25.7458 14.1479 25.7276C14.1304 25.7095 14.1167 25.6882 14.1075 25.6647C14.0983 25.6413 14.0938 25.6163 14.0943 25.5911C14.0947 25.566 14.1002 25.5412 14.1103 25.5181C14.5843 24.4321 15.3968 23.5285 16.4265 22.9422C17.4562 22.3559 18.6479 22.1183 19.8238 22.2648C19.8487 22.2679 19.8728 22.2759 19.8947 22.2883C19.9165 22.3008 19.9357 22.3174 19.9512 22.3372C19.9666 22.357 19.978 22.3797 19.9847 22.4039C19.9913 22.4282 19.9932 22.4535 19.9901 22.4784C19.987 22.5034 19.979 22.5275 19.9666 22.5493C19.9542 22.5712 19.9376 22.5904 19.9177 22.6058C19.8979 22.6213 19.8752 22.6327 19.851 22.6393C19.8267 22.646 19.8014 22.6479 19.7765 22.6448C19.4701 22.6073 19.161 22.5971 18.8528 22.6144C17.9091 22.6649 16.9982 22.9778 16.2226 23.5179C15.447 24.0579 14.8375 24.8036 14.4626 25.6712C14.4484 25.7039 14.4253 25.732 14.396 25.7523C14.3666 25.7726 14.3322 25.7843 14.2966 25.786Z" fill="white"/>
<path opacity="0.78" d="M22.6989 31.2549C24.5936 29.3602 24.5936 26.2882 22.6989 24.3935C20.8042 22.4988 17.7322 22.4988 15.8375 24.3935C13.9427 26.2882 13.9427 29.3602 15.8375 31.2549C17.7322 33.1497 20.8042 33.1497 22.6989 31.2549Z" fill="white"/>
<path d="M18.9965 31.4533L18.9667 30.9259C18.4577 30.9359 17.951 30.8557 17.47 30.6889C17.4018 30.6627 17.3452 30.613 17.3105 30.5486C17.2758 30.4843 17.2653 30.4097 17.2809 30.3383L17.3873 29.8396C17.3965 29.7966 17.4148 29.756 17.441 29.7207C17.4671 29.6854 17.5006 29.6561 17.539 29.6347C17.5775 29.6134 17.62 29.6005 17.6639 29.597C17.7077 29.5935 17.7518 29.5995 17.7931 29.6144C18.2354 29.7749 18.705 29.8464 19.1749 29.8249C19.704 29.7951 20.0884 29.5936 20.0676 29.2261C20.049 28.894 19.7333 28.7139 18.9864 28.558C17.9209 28.3328 17.1419 27.9152 17.0896 26.991C17.0428 26.1568 17.6169 25.4859 18.6655 25.2557L18.6357 24.7289C18.6313 24.6475 18.6593 24.5676 18.7136 24.5069C18.768 24.4461 18.8442 24.4093 18.9256 24.4047L19.2351 24.3872C19.2755 24.3849 19.316 24.3905 19.3541 24.4038C19.3923 24.4171 19.4275 24.4378 19.4577 24.4648C19.4879 24.4917 19.5124 24.5243 19.53 24.5607C19.5475 24.5972 19.5577 24.6367 19.5599 24.6771L19.5864 25.1499C19.9854 25.138 20.384 25.1867 20.7684 25.2946C20.8421 25.3167 20.9049 25.3659 20.9441 25.4322C20.9833 25.4985 20.9961 25.5772 20.98 25.6525L20.882 26.1141C20.8734 26.1562 20.8559 26.1961 20.8308 26.231C20.8057 26.2659 20.7735 26.2952 20.7363 26.3169C20.6992 26.3385 20.6578 26.3521 20.6151 26.3568C20.5723 26.3614 20.529 26.3569 20.4881 26.3437C20.1129 26.2251 19.7191 26.1763 19.3263 26.1996C18.6987 26.2351 18.5338 26.5052 18.5473 26.7388C18.5631 27.0253 18.9509 27.2015 19.7817 27.4069C20.967 27.6912 21.4787 28.1482 21.5265 29.0184C21.5715 29.8165 21.0199 30.5673 19.8819 30.8111L19.9151 31.4009C19.9174 31.4413 19.9118 31.4817 19.8985 31.5199C19.8852 31.5581 19.8645 31.5933 19.8375 31.6235C19.8106 31.6536 19.778 31.6782 19.7416 31.6957C19.7051 31.7133 19.6656 31.7235 19.6252 31.7257L19.3156 31.7431C19.2351 31.7462 19.1565 31.7176 19.0969 31.6634C19.0372 31.6092 19.0012 31.5337 18.9965 31.4533Z" fill="#F3D33F"/>
<path d="M40.8209 20.5287C44.6003 16.7493 44.6003 10.6218 40.8209 6.84241C37.0416 3.06305 30.914 3.06305 27.1346 6.84241C23.3553 10.6218 23.3553 16.7493 27.1346 20.5287C30.914 24.308 37.0416 24.308 40.8209 20.5287Z" fill="#ECC538"/>
<path d="M40.5935 20.301C44.2472 16.6474 44.2472 10.7237 40.5935 7.07006C36.9399 3.41643 31.0162 3.41643 27.3626 7.07006C23.7089 10.7237 23.7089 16.6474 27.3626 20.301C31.0162 23.9547 36.9399 23.9547 40.5935 20.301Z" fill="#F7E057"/>
<path opacity="0.7" d="M26.0674 10.4181C26.0394 10.4194 26.0114 10.4142 25.9858 10.4029C25.9421 10.3843 25.9077 10.3491 25.8899 10.3051C25.8722 10.2611 25.8727 10.2119 25.8912 10.1682C26.5394 8.66792 27.5933 7.37831 28.9346 6.44449C30.2758 5.51067 31.851 4.96969 33.483 4.88245C34.0155 4.85326 34.5495 4.8721 35.0786 4.93874C35.1253 4.94535 35.1674 4.97003 35.1961 5.00744C35.2247 5.04485 35.2374 5.09201 35.2316 5.13874C35.2258 5.18548 35.2018 5.22805 35.1649 5.25729C35.1279 5.28652 35.081 5.30007 35.0342 5.29502C34.5264 5.23232 34.014 5.21518 33.5032 5.2438C31.9382 5.32761 30.4276 5.84639 29.1414 6.74179C27.8551 7.6372 26.8441 8.87371 26.2222 10.3123C26.2086 10.3425 26.187 10.3683 26.1597 10.387C26.1324 10.4057 26.1004 10.4164 26.0674 10.4181Z" fill="white"/>
<path opacity="0.78" d="M39.7923 19.4783C42.8848 16.3858 42.8848 11.372 39.7923 8.27951C36.6999 5.18704 31.686 5.18704 28.5935 8.27951C25.5011 11.372 25.5011 16.3858 28.5935 19.4783C31.686 22.5708 36.6999 22.5708 39.7923 19.4783Z" fill="white"/>
<path d="M33.7484 19.7995L33.7 18.9394C32.7994 18.9541 31.9022 18.7925 31.2566 18.5522C31.1454 18.5093 31.0533 18.4279 30.9968 18.323C30.9403 18.218 30.9233 18.0962 30.9488 17.9798L31.1221 17.1665C31.1372 17.0963 31.1671 17.0302 31.2099 16.9726C31.2526 16.915 31.3072 16.8673 31.37 16.8325C31.4328 16.7978 31.5023 16.7769 31.5738 16.7713C31.6453 16.7657 31.7172 16.7755 31.7846 16.8C32.5064 17.0614 33.2725 17.1781 34.0394 17.1434C34.9028 17.095 35.5304 16.7657 35.4966 16.1657C35.4662 15.6242 34.9501 15.3299 33.7321 15.0755C31.9929 14.7034 30.7214 14.0263 30.6364 12.5184C30.5626 11.1575 31.4964 10.0622 33.208 9.68673L33.1596 8.82614C33.1524 8.69325 33.1982 8.56292 33.2869 8.46373C33.3757 8.36455 33.5001 8.30461 33.633 8.29706L34.1396 8.26835C34.2725 8.26098 34.403 8.30669 34.5023 8.39544C34.6016 8.48419 34.6617 8.60873 34.6692 8.74171L34.7125 9.51394C35.5444 9.50043 36.1563 9.60793 36.6448 9.74977C36.7655 9.78566 36.8681 9.86579 36.9322 9.97412C36.9963 10.0825 37.0171 10.211 36.9904 10.334L36.8311 11.0865C36.8167 11.1549 36.7882 11.2195 36.7474 11.2761C36.7066 11.3328 36.6544 11.3802 36.5941 11.4155C36.5338 11.4507 36.4668 11.473 36.3974 11.4808C36.328 11.4886 36.2578 11.4818 36.1912 11.4608C35.579 11.267 34.9364 11.1874 34.2955 11.2261C33.2711 11.2824 33.0009 11.7248 33.0234 12.1053C33.0499 12.5736 33.6831 12.8612 35.0379 13.1961C36.973 13.6599 37.8082 14.4057 37.8882 15.8257C37.9613 17.1282 37.0613 18.3541 35.2039 18.7526L35.2602 19.715C35.2639 19.7811 35.2545 19.8473 35.2326 19.9098C35.2106 19.9722 35.1765 20.0297 35.1323 20.0789C35.088 20.1281 35.0345 20.1681 34.9747 20.1966C34.9149 20.225 34.8501 20.2414 34.784 20.2447L34.2775 20.2728C34.2116 20.2766 34.1457 20.2674 34.0834 20.2456C34.0211 20.2239 33.9638 20.19 33.9146 20.1461C33.8654 20.1021 33.8254 20.0488 33.7969 19.9893C33.7684 19.9299 33.7519 19.8653 33.7484 19.7995Z" fill="#F3D33F"/>
<path d="M48.8984 41.9339C52.7873 38.0451 52.7873 31.7401 48.8984 27.8512C45.0096 23.9624 38.7046 23.9624 34.8158 27.8512C30.9269 31.7401 30.9269 38.0451 34.8158 41.9339C38.7046 45.8227 45.0096 45.8227 48.8984 41.9339Z" fill="#ECC538"/>
<path d="M48.6641 41.6999C52.4237 37.9403 52.4237 31.8448 48.6641 28.0853C44.9046 24.3257 38.8091 24.3257 35.0495 28.0853C31.2899 31.8448 31.2899 37.9403 35.0495 41.6999C38.8091 45.4595 44.9046 45.4595 48.6641 41.6999Z" fill="#F7E057"/>
<path opacity="0.7" d="M33.7149 31.525C33.6869 31.5268 33.6589 31.5218 33.6332 31.5104C33.6116 31.5009 33.5921 31.4874 33.5757 31.4704C33.5593 31.4534 33.5465 31.4334 33.5378 31.4114C33.5292 31.3895 33.525 31.366 33.5254 31.3424C33.5259 31.3189 33.5309 31.2956 33.5404 31.274C34.2068 29.7315 35.2905 28.4057 36.6695 27.4457C38.0485 26.4857 39.6681 25.9297 41.346 25.8402C41.8935 25.8099 42.4426 25.8287 42.9867 25.8965C43.034 25.9024 43.0771 25.9268 43.1063 25.9645C43.1356 26.0021 43.1488 26.0498 43.1429 26.0971C43.137 26.1445 43.1125 26.1875 43.0749 26.2168C43.0373 26.2461 42.9895 26.2592 42.9422 26.2533C42.4196 26.1884 41.8921 26.1707 41.3662 26.2004C39.7548 26.2863 38.1994 26.8203 36.8751 27.7423C35.5507 28.6644 34.51 29.9378 33.8702 31.4192C33.8566 31.4495 33.8349 31.4754 33.8075 31.494C33.7801 31.5127 33.748 31.5234 33.7149 31.525Z" fill="white"/>
<path opacity="0.78" d="M49.9952 37.013C51.0579 32.6404 48.3747 28.2342 44.0021 27.1715C39.6294 26.1088 35.2232 28.792 34.1605 33.1647C33.0978 37.5373 35.7811 41.9435 40.1537 43.0062C44.5263 44.0689 48.9325 41.3857 49.9952 37.013Z" fill="white"/>
<path d="M41.6207 41.1827L41.5706 40.2979C40.6458 40.3125 39.721 40.1465 39.0569 39.8988C38.9424 39.8548 38.8474 39.7712 38.7893 39.6632C38.7311 39.5552 38.7137 39.4299 38.74 39.3101L38.9184 38.4731C38.9339 38.4009 38.9647 38.3329 39.0087 38.2737C39.0527 38.2144 39.1089 38.1653 39.1734 38.1295C39.238 38.0938 39.3095 38.0723 39.3831 38.0665C39.4567 38.0608 39.5307 38.0708 39.6 38.096C40.3426 38.3653 41.131 38.4854 41.9201 38.4495C42.8083 38.3994 43.4544 38.0611 43.4195 37.4437C43.388 36.8859 42.8567 36.5836 41.6038 36.3219C39.8145 35.9392 38.5081 35.2424 38.4186 33.6906C38.3392 32.2896 39.3034 31.1628 41.064 30.7767L41.0145 29.8913C41.0068 29.7545 41.0538 29.6203 41.1451 29.5181C41.2364 29.4159 41.3645 29.3542 41.5013 29.3465L42.0208 29.3172C42.1577 29.3095 42.2919 29.3565 42.3941 29.4478C42.4963 29.5391 42.558 29.6673 42.5657 29.8041L42.6107 30.5988C43.4662 30.5848 44.0961 30.6956 44.5987 30.8414C44.7235 30.8783 44.8297 30.9611 44.8959 31.0732C44.962 31.1853 44.9831 31.3183 44.955 31.4454L44.7912 32.2193C44.7764 32.2897 44.747 32.3563 44.7049 32.4146C44.6628 32.473 44.609 32.522 44.5468 32.5583C44.4847 32.5946 44.4156 32.6175 44.3441 32.6255C44.2726 32.6335 44.2002 32.6265 44.1315 32.6048C43.5018 32.405 42.8407 32.323 42.1813 32.3628C41.127 32.4225 40.8507 32.8761 40.8726 33.2679C40.8996 33.7497 41.5509 34.0452 42.945 34.3902C44.9364 34.8669 45.7959 35.6347 45.8781 37.0958C45.9535 38.4365 45.027 39.6973 43.1162 40.1071L43.1724 41.0977C43.18 41.2345 43.1329 41.3686 43.0417 41.4708C42.9504 41.5729 42.8223 41.6347 42.6856 41.6425L42.1655 41.6718C42.0976 41.6757 42.0295 41.6661 41.9653 41.6435C41.9011 41.621 41.842 41.586 41.7913 41.5406C41.7407 41.4951 41.6996 41.4401 41.6703 41.3787C41.641 41.3172 41.6241 41.2506 41.6207 41.1827Z" fill="#F3D33F"/>
<path d="M61.304 17.7079C61.3439 13.3095 57.8107 9.71153 53.4123 9.67161C49.0139 9.63169 45.4159 13.1649 45.376 17.5633C45.3361 21.9617 48.8693 25.5597 53.2677 25.5996C57.6661 25.6395 61.2641 22.1063 61.304 17.7079Z" fill="#ECC538"/>
<path d="M58.7852 23.0789C61.7919 20.0722 61.7919 15.1973 58.7852 12.1906C55.7784 9.18385 50.9036 9.18385 47.8968 12.1906C44.8901 15.1973 44.8901 20.0722 47.8968 23.0789C50.9036 26.0857 55.7784 26.0857 58.7852 23.0789Z" fill="#F7E057"/>
<path opacity="0.7" d="M46.8331 14.995C46.8025 14.9967 46.7718 14.9913 46.7436 14.9792C46.696 14.9583 46.6585 14.9194 46.6395 14.871C46.6205 14.8226 46.6215 14.7686 46.6423 14.7209C47.1793 13.4785 48.0522 12.4105 49.163 11.6372C50.2738 10.8639 51.5784 10.4159 52.9299 10.3436C53.3711 10.3189 53.8135 10.3338 54.252 10.388C54.2785 10.3901 54.3042 10.3976 54.3277 10.4099C54.3512 10.4222 54.3719 10.4392 54.3887 10.4598C54.4055 10.4803 54.4179 10.5041 54.4252 10.5295C54.4325 10.555 54.4346 10.5818 54.4314 10.6081C54.4281 10.6344 54.4195 10.6598 54.4062 10.6827C54.3928 10.7056 54.375 10.7256 54.3537 10.7414C54.3324 10.7573 54.3082 10.7686 54.2824 10.7748C54.2566 10.781 54.2298 10.782 54.2036 10.7775C53.7887 10.726 53.3699 10.7119 52.9524 10.7353C51.6733 10.8036 50.4387 11.2276 49.3874 11.9594C48.3362 12.6913 47.51 13.702 47.002 14.8779C46.9874 14.9111 46.9639 14.9397 46.9341 14.9604C46.9043 14.981 46.8693 14.993 46.8331 14.995Z" fill="white"/>
<path opacity="0.78" d="M58.1257 22.4029C60.6707 19.858 60.6707 15.7319 58.1257 13.1869C55.5808 10.642 51.4547 10.642 48.9098 13.1869C46.3648 15.7319 46.3648 19.858 48.9098 22.4029C51.4547 24.9478 55.5808 24.9478 58.1257 22.4029Z" fill="white"/>
<path d="M53.1517 22.6653L53.1118 21.9572C52.3722 21.969 51.6326 21.8362 51.1013 21.6386C51.0097 21.6034 50.9338 21.5364 50.8873 21.45C50.8408 21.3636 50.8269 21.2634 50.848 21.1675L50.9904 20.4983C51.0028 20.4406 51.0274 20.3862 51.0625 20.3388C51.0977 20.2914 51.1426 20.2521 51.1942 20.2235C51.2458 20.195 51.303 20.1778 51.3618 20.1731C51.4206 20.1685 51.4798 20.1765 51.5352 20.1966C52.1298 20.4117 52.761 20.5074 53.3926 20.478C54.1035 20.4381 54.6196 20.1673 54.5921 19.6737C54.5667 19.2279 54.1418 18.9859 53.1399 18.7765C51.7086 18.4703 50.6634 17.9131 50.5925 16.672C50.5294 15.552 51.3005 14.6503 52.7088 14.3418L52.6688 13.6338C52.6628 13.5244 52.7005 13.4171 52.7735 13.3354C52.8465 13.2537 52.9489 13.2044 53.0583 13.1981L53.4742 13.1745C53.5284 13.1714 53.5827 13.1791 53.6339 13.197C53.6851 13.215 53.7323 13.2428 53.7728 13.279C53.8132 13.3151 53.8461 13.3589 53.8697 13.4078C53.8932 13.4567 53.9069 13.5098 53.9099 13.564L53.9454 14.1994C54.4824 14.1826 55.0188 14.2481 55.536 14.3936C55.6352 14.4232 55.7196 14.4891 55.7723 14.5782C55.825 14.6674 55.8421 14.7731 55.8202 14.8743L55.6891 15.4934C55.6773 15.5498 55.6538 15.603 55.6202 15.6497C55.5865 15.6964 55.5435 15.7356 55.4938 15.7646C55.4441 15.7937 55.3889 15.812 55.3317 15.8184C55.2745 15.8249 55.2166 15.8192 55.1617 15.8019C54.6581 15.6422 54.1294 15.5765 53.602 15.6082C52.7577 15.6561 52.5377 16.0186 52.5551 16.3321C52.5765 16.7176 53.0977 16.9512 54.2127 17.2298C55.805 17.6114 56.4923 18.2249 56.5581 19.3934C56.6183 20.4656 55.8776 21.476 54.3495 21.8019L54.3939 22.5943C54.4001 22.7037 54.3626 22.811 54.2896 22.8927C54.2167 22.9744 54.1143 23.0238 54.005 23.03L53.5891 23.0531C53.5349 23.0564 53.4805 23.049 53.4292 23.0314C53.3779 23.0137 53.3305 22.986 53.2899 22.95C53.2493 22.9139 53.2161 22.8703 53.1924 22.8214C53.1687 22.7725 53.1549 22.7195 53.1517 22.6653Z" fill="#F3D33F"/>
<path d="M95.2822 14.7604C95.2822 14.7604 96.4034 14.6703 96.4884 15.5619C96.5734 16.4534 95.4826 16.8615 95.4826 16.8615L95.2822 14.7604Z" fill="#48494B"/>
<path d="M92.4916 17.0566C92.4916 17.0566 91.4222 18.269 91.3428 18.547C91.219 18.9934 91.5967 20.2536 91.08 20.2322C90.5633 20.2108 90.6128 20.3684 90.3595 20.3887C90.1062 20.4089 90.5847 18.3579 90.5419 17.8654C90.5119 17.555 90.4336 17.2512 90.31 16.9648L92.4916 17.0566Z" fill="#48494B"/>
<path d="M94.7201 13.4778C93.908 13.2768 93.6924 14.4768 93.6924 14.4768L93.9839 17.9102C95.0534 19.6877 95.9325 18.1618 95.9742 16.6894C96.0158 15.217 95.5323 13.6787 94.7201 13.4778Z" fill="#888B8F"/>
<path d="M90.0256 17.6363C89.1701 18.6343 88.1176 17.6076 88.2977 16.3981C88.4778 15.1885 89.586 15.851 89.586 15.851L90.0256 17.6363Z" fill="#888B8F"/>
<path d="M78.2777 6.46094L78.4269 6.61178C78.4717 6.66152 78.5061 6.71969 78.5281 6.7829C78.5502 6.84611 78.5594 6.91308 78.5552 6.97989L78.5085 8.40559C78.5085 8.40559 78.6211 8.48157 78.8006 8.23673C78.8203 8.20427 78.8467 8.17646 78.8782 8.15522C78.9096 8.13399 78.9453 8.11983 78.9828 8.11373C79.0203 8.10763 79.0586 8.10973 79.0952 8.11989C79.1317 8.13005 79.1657 8.14802 79.1946 8.17257C79.1946 8.17257 78.9306 8.49508 78.5282 8.96056C78.352 9.16819 78.1023 9.29951 77.8314 9.32697L77.6226 8.85531C77.7112 8.02722 77.9324 7.21878 78.2777 6.46094Z" fill="url(#paint1_linear)"/>
<path d="M77.6917 8.84961C77.4102 9.43441 76.0622 12.0286 75.9873 12.7406C75.9125 13.4526 76.7162 14.4663 76.7162 14.4663C76.3785 15.0517 77.9393 10.622 78.1723 9.26781L77.6917 8.84961Z" fill="url(#paint2_linear)"/>
<path d="M78.8708 13.727C81.4599 14.7103 81.8651 15.7234 81.8651 15.7234L79.7691 17.6286C79.7691 17.6286 77.5132 16.4737 76.2271 13.6853C76.7235 13.3814 76.9441 12.9339 77.2351 12.6035C77.5976 13.0819 78.2674 13.4973 78.8708 13.727Z" fill="#48494B"/>
<path d="M61.9247 33.9526C61.4474 33.807 60.94 33.7909 60.4545 33.9059C60.3641 33.929 60.2864 33.9868 60.2382 34.0667C60.1899 34.1466 60.1751 34.2423 60.1967 34.3331L60.9031 37.3804C60.9102 37.4114 60.9271 37.4394 60.9512 37.4602C60.9753 37.4811 61.0055 37.4937 61.0372 37.4962C61.069 37.4987 61.1008 37.491 61.1279 37.4742C61.155 37.4574 61.176 37.4324 61.1879 37.4029C61.4592 36.7325 61.9528 35.4233 62.0598 34.5323L61.9247 33.9526Z" fill="#333435"/>
<path d="M60.7951 28.8045C60.5408 28.375 60.177 28.0209 59.7408 27.7784C59.6584 27.7343 59.562 27.7244 59.4724 27.7509C59.3828 27.7773 59.3071 27.8379 59.2618 27.9197L57.7281 30.6456C57.7123 30.6733 57.7058 30.7054 57.7095 30.7371C57.7133 30.7688 57.7271 30.7985 57.7489 30.8219C57.7707 30.8452 57.7994 30.8609 57.8308 30.8668C57.8622 30.8726 57.8946 30.8683 57.9234 30.8544C58.5757 30.542 59.823 29.9094 60.5012 29.3257L60.7951 28.8045Z" fill="#333435"/>
<path d="M62.472 33.4355L61.4477 33.9545C61.424 33.9762 61.405 34.0024 61.3915 34.0316C61.3781 34.0607 61.3705 34.0922 61.3693 34.1243C61.3681 34.1564 61.3733 34.1884 61.3845 34.2185C61.3957 34.2485 61.4128 34.2761 61.4347 34.2995C61.5049 34.371 61.5867 34.43 61.6767 34.474C61.7266 34.4979 61.7824 34.5066 61.8371 34.499C61.8919 34.4914 61.9432 34.4678 61.9846 34.4312L63.2904 33.9275L62.472 33.4355Z" fill="url(#paint3_linear)"/>
<path d="M61.2525 27.8984L60.3322 28.3729C60.2123 28.4337 60.1679 28.9279 60.2551 29.0084C60.2964 29.0452 60.3476 29.0691 60.4023 29.077C60.4571 29.0849 60.513 29.0765 60.563 29.0528L61.8744 28.4337L61.2525 27.8984Z" fill="url(#paint4_linear)"/>
<path d="M74.6213 21.8691C74.6213 21.8691 73.383 22.1928 72.7166 22.8097C70.4236 24.926 60.9767 27.9569 60.9767 27.9569C60.9767 27.9569 60.957 29.113 61.4557 29.0095C61.4557 29.0095 68.5476 27.5916 71.91 26.1952C71.91 26.1952 69.1566 29.5965 62.2617 33.3997C62.2617 33.3997 62.6844 34.2879 62.9832 34.2293C62.9832 34.2293 77.7643 27.3879 77.8774 25.0346L74.6213 21.8691Z" fill="#333435"/>
<path d="M71.7846 26.3062C71.7708 26.3099 71.7561 26.3081 71.7435 26.3014C71.731 26.2946 71.7214 26.2834 71.7168 26.2698C71.7123 26.2563 71.713 26.2416 71.7189 26.2286C71.7248 26.2156 71.7354 26.2053 71.7485 26.1998L73.5975 24.9182L73.1686 24.5304C73.1627 24.5255 73.1578 24.5193 73.1544 24.5124C73.1509 24.5055 73.1489 24.498 73.1485 24.4903C73.1481 24.4826 73.1492 24.4749 73.1519 24.4676C73.1546 24.4604 73.1588 24.4538 73.1641 24.4482C73.1691 24.4422 73.1752 24.4373 73.1822 24.4338C73.1891 24.4303 73.1967 24.4282 73.2045 24.4278C73.2123 24.4274 73.22 24.4286 73.2273 24.4313C73.2346 24.4341 73.2413 24.4383 73.2468 24.4437L73.7849 24.9306L71.815 26.2961C71.806 26.3022 71.7954 26.3057 71.7846 26.3062Z" fill="#5C5E61"/>
<path d="M84.3792 17.2144C83.3503 15.6885 81.0882 14.7182 79.7638 14.2578C79.4832 14.1602 79.1773 14.1644 78.8995 14.2695C78.6217 14.3747 78.3897 14.5741 78.2441 14.833C77.3722 16.387 76.9073 18.9947 73.9951 22.078C75.4585 22.9876 77.0818 24.6739 77.8788 25.0487C80.7595 22.4664 82.1762 19.7928 82.1762 19.7928C83.8084 22.293 86.6227 21.4865 87.0988 21.3125C86.9854 20.6033 86.9477 19.8841 86.9863 19.1669C85.0709 18.5202 84.3792 17.2144 84.3792 17.2144Z" fill="#5C5E61"/>
<path d="M90.2869 19.3033L90.0055 18.7754C88.7351 19.3844 87.7462 19.4215 86.9824 19.1643C86.9438 19.8815 86.9816 20.6007 87.095 21.3099C88.9485 20.9514 90.2869 19.3033 90.2869 19.3033Z" fill="url(#paint5_linear)"/>
<path d="M82.0214 12.1035L80.5659 14.5103C80.5659 14.5103 81.646 15.5375 82.6327 15.6101L83.5198 13.3801L82.0214 12.1035Z" fill="url(#paint6_linear)"/>
<path d="M83.7594 10.3454C83.7836 10.3803 84.5046 13.0865 84.5046 13.0865L82.9511 13.4658L81.8862 11.0022C81.8862 11.0022 83.3581 9.76229 83.7594 10.3454Z" fill="url(#paint7_linear)"/>
<path d="M82.4666 11.381L82.9253 12.7217C82.931 12.7388 82.9391 12.7549 82.9495 12.7696C83.0125 12.8613 83.2529 13.1602 83.5439 12.8956C83.8079 12.6559 84.0504 12.4409 84.2756 12.4031C84.3243 12.3947 84.3745 12.4048 84.4161 12.4315C84.4578 12.4582 84.488 12.4994 84.5007 12.5472C84.617 12.9751 84.6999 13.4113 84.7489 13.8519C84.7532 13.9012 84.7389 13.9502 84.7088 13.9894C84.6786 14.0285 84.6349 14.055 84.5863 14.0636C84.2829 14.1198 83.6401 14.2155 83.1043 14.1722C83.0688 14.1695 83.0346 14.1572 83.0055 14.1367C82.9764 14.1162 82.9533 14.0882 82.9388 14.0557C82.7942 13.732 82.3512 12.7482 82.1852 12.4932C82.0292 12.254 81.642 12.2568 81.4799 12.2681C81.4536 12.2702 81.427 12.267 81.402 12.2586C81.3769 12.2502 81.3538 12.2367 81.3341 12.2191C81.1934 12.093 80.9261 11.7728 81.3099 11.3956C81.3291 11.3772 81.3444 11.355 81.3548 11.3305C81.3652 11.306 81.3706 11.2796 81.3706 11.253C81.3706 11.2263 81.3652 11.2 81.3548 11.1754C81.3444 11.1509 81.3291 11.1288 81.3099 11.1103C81.1478 10.9555 80.9756 10.6814 81.2536 10.3459C81.5317 10.0105 81.8981 10.0645 82.121 10.1472C82.1646 10.1632 82.2125 10.1634 82.2562 10.1476C82.3 10.1319 82.3368 10.1013 82.3602 10.0611C82.3766 10.0339 82.4008 10.0122 82.4298 9.99906C82.4587 9.98589 82.491 9.98182 82.5223 9.98739C82.5494 9.98952 82.5767 9.98594 82.6023 9.9769C82.628 9.96785 82.6514 9.95354 82.6712 9.93488C82.691 9.91621 82.7066 9.89361 82.7171 9.86853C82.7277 9.84346 82.7328 9.81645 82.7322 9.78927C82.7322 9.56919 82.8116 9.29227 83.1943 9.17688C83.8737 8.97257 84.2897 9.6311 84.3268 10.1197C84.3639 10.6082 83.6114 10.7872 83.1724 10.7523C82.8381 10.7242 82.587 11.0529 82.4857 11.2122C82.4699 11.237 82.46 11.2651 82.4567 11.2944C82.4534 11.3236 82.4568 11.3533 82.4666 11.381Z" fill="#333435"/>
<path d="M82.3572 12.9824C82.3572 12.9824 82.2559 12.1336 81.9035 12.0886C81.5512 12.0436 81.2056 12.3306 81.5512 12.8096C81.9818 13.4029 82.3572 12.9824 82.3572 12.9824Z" fill="url(#paint8_linear)"/>
<path d="M92.2975 18.4188L90.5065 18.3586L90.5516 18.125C90.5516 18.125 89.7636 18.3394 89.7669 18.958L89.687 19.9318C89.8379 19.8102 90.3062 19.5546 90.4953 19.5811L91.447 19.71C91.639 19.7355 91.8335 19.6866 91.9905 19.5733C92.1475 19.4599 92.2552 19.2907 92.2913 19.1004C92.3364 18.8747 92.3532 18.6288 92.2975 18.4188Z" fill="url(#paint9_linear)"/>
<path d="M89.4993 15.8849C89.4993 15.8849 91.7175 15.8472 94.252 13.9414C94.2833 13.9177 94.3191 13.9007 94.3572 13.8913C94.3954 13.8819 94.435 13.8803 94.4737 13.8867C94.5125 13.893 94.5495 13.9072 94.5826 13.9283C94.6157 13.9494 94.6442 13.977 94.6663 14.0095C95.5336 15.3108 95.4295 16.7708 95.2437 17.65C95.2229 17.7499 95.1812 17.8443 95.1214 17.9271C95.0617 18.0098 94.9851 18.079 94.8968 18.1302C94.8085 18.1814 94.7104 18.2134 94.6089 18.2242C94.5074 18.2349 94.4048 18.2241 94.3077 18.1926C93.3087 17.8667 91.4045 17.3849 89.6496 17.7294C88.9781 17.6506 88.6623 16.2063 89.4993 15.8849Z" fill="#48494B"/>
<path d="M97.1993 13.0757C97.1735 13.0768 97.148 13.0695 97.1267 13.0548C97.1142 13.046 97.1035 13.0348 97.0952 13.0219C97.087 13.0089 97.0815 12.9945 97.0789 12.9794C97.0762 12.9642 97.0766 12.9488 97.08 12.9338C97.0834 12.9188 97.0897 12.9047 97.0986 12.8922L98.0892 11.4851C98.1076 11.4612 98.1345 11.4453 98.1643 11.4408C98.1941 11.4363 98.2246 11.4434 98.2492 11.4607C98.2739 11.4781 98.2909 11.5043 98.2968 11.5339C98.3026 11.5635 98.2968 11.5942 98.2805 11.6196L97.2894 13.0267C97.2791 13.0413 97.2657 13.0532 97.2501 13.0617C97.2345 13.0702 97.2171 13.075 97.1993 13.0757Z" fill="#888B8F"/>
<path d="M98.7603 10.8586C98.7345 10.8596 98.7089 10.8521 98.6877 10.8372C98.6752 10.8284 98.6645 10.8172 98.6563 10.8043C98.6481 10.7913 98.6425 10.7769 98.6399 10.7617C98.6373 10.7466 98.6377 10.7312 98.6411 10.7162C98.6444 10.7012 98.6507 10.6871 98.6596 10.6746L99.1859 9.92654C99.1947 9.91401 99.2058 9.90334 99.2188 9.89513C99.2317 9.88692 99.2461 9.88134 99.2612 9.8787C99.2762 9.87606 99.2917 9.87642 99.3066 9.87975C99.3216 9.88308 99.3357 9.88932 99.3482 9.89812C99.3608 9.90691 99.3714 9.91809 99.3797 9.93101C99.3879 9.94393 99.3935 9.95834 99.3961 9.97342C99.3987 9.9885 99.3984 10.004 99.395 10.0189C99.3917 10.0338 99.3855 10.048 99.3767 10.0605L98.8504 10.8091C98.8401 10.8237 98.8267 10.8357 98.8111 10.8443C98.7955 10.8529 98.7781 10.8578 98.7603 10.8586Z" fill="#888B8F"/>
<path d="M99.7302 13.6535C99.7014 13.6579 99.672 13.6515 99.6478 13.6354C99.6236 13.6194 99.6062 13.5948 99.5992 13.5666C99.5921 13.5384 99.5959 13.5086 99.6097 13.483C99.6235 13.4574 99.6464 13.4379 99.6739 13.4283L102.834 11.9582C102.862 11.9451 102.894 11.9437 102.923 11.9543C102.952 11.9649 102.976 11.9867 102.989 12.0147C103.002 12.0428 103.003 12.0749 102.993 12.104C102.982 12.1331 102.96 12.1567 102.932 12.1698L99.7724 13.64C99.7593 13.6472 99.745 13.6518 99.7302 13.6535Z" fill="#888B8F"/>
<path d="M97.6594 14.6372C97.6306 14.6417 97.6013 14.6353 97.577 14.6192C97.5528 14.6031 97.5354 14.5786 97.5284 14.5504C97.5213 14.5222 97.5251 14.4923 97.5389 14.4668C97.5527 14.4412 97.5756 14.4217 97.6031 14.4121L98.789 13.8605C98.8171 13.8474 98.8492 13.8461 98.8782 13.8567C98.9073 13.8673 98.931 13.889 98.9441 13.9171C98.9571 13.9451 98.9585 13.9772 98.9479 14.0063C98.9373 14.0354 98.9156 14.0591 98.8875 14.0721L97.7016 14.6237C97.6885 14.631 97.6742 14.6356 97.6594 14.6372Z" fill="#888B8F"/>
<path d="M98.9912 16.2076C98.9759 16.2085 98.9606 16.2065 98.9461 16.2015C98.9316 16.1965 98.9182 16.1887 98.9067 16.1786C98.8952 16.1685 98.8858 16.1562 98.8791 16.1424C98.8723 16.1286 98.8684 16.1137 98.8674 16.0984C98.8665 16.0831 98.8685 16.0677 98.8735 16.0532C98.8785 16.0387 98.8862 16.0253 98.8964 16.0138C98.9065 16.0023 98.9188 15.9929 98.9326 15.9862C98.9463 15.9795 98.9613 15.9755 98.9766 15.9745L101.582 15.7781C101.598 15.7763 101.613 15.7777 101.628 15.7823C101.643 15.7869 101.657 15.7945 101.669 15.8046C101.68 15.8148 101.69 15.8273 101.697 15.8413C101.703 15.8553 101.707 15.8706 101.708 15.8862C101.71 15.917 101.7 15.9474 101.68 15.9708C101.659 15.9942 101.631 16.0087 101.6 16.0111L98.9946 16.2076H98.9912Z" fill="#888B8F"/>
<path d="M97.5251 16.3181C97.5098 16.319 97.4945 16.3169 97.48 16.3119C97.4655 16.3069 97.4522 16.2991 97.4407 16.2889C97.4292 16.2788 97.4199 16.2664 97.4131 16.2526C97.4064 16.2389 97.4025 16.2239 97.4016 16.2086C97.4007 16.1933 97.4028 16.178 97.4078 16.1635C97.4128 16.149 97.4206 16.1356 97.4307 16.1241C97.4409 16.1127 97.4532 16.1033 97.467 16.0966C97.4808 16.0899 97.4958 16.086 97.5111 16.085L98.0874 16.0417C98.1028 16.04 98.1183 16.0415 98.1331 16.046C98.1479 16.0506 98.1616 16.0582 98.1733 16.0683C98.185 16.0783 98.1945 16.0907 98.2013 16.1047C98.208 16.1186 98.2118 16.1338 98.2124 16.1492C98.2136 16.1645 98.2118 16.1799 98.207 16.1945C98.2023 16.2091 98.1947 16.2227 98.1847 16.2343C98.1747 16.246 98.1625 16.2556 98.1488 16.2625C98.1351 16.2694 98.1202 16.2736 98.1049 16.2747L97.5285 16.3181H97.5251Z" fill="#888B8F"/>
<path d="M28.6489 49.9661C27.6296 48.9783 25.5797 49.0464 23.9564 50.0815C23.8911 50.1248 23.8264 50.1716 23.7628 50.2188L20.2562 52.8609L16.2701 55.8671C16.215 55.9088 16.1696 55.9619 16.1368 56.0227C16.1041 56.0836 16.0849 56.1508 16.0806 56.2198C16.0762 56.2888 16.0867 56.3579 16.1115 56.4224C16.1362 56.4869 16.1746 56.5453 16.2239 56.5937L22.0905 62.3213C22.1394 62.3692 22.198 62.4061 22.2624 62.4295C22.3267 62.4529 22.3953 62.4622 22.4636 62.4569C22.5318 62.4515 22.5981 62.4317 22.6581 62.3986C22.718 62.3655 22.7701 62.3199 22.811 62.265C23.5843 61.2229 24.3588 60.1821 25.1344 59.1423C26.2346 57.668 27.3378 56.1967 28.444 54.7284C28.4918 54.6659 28.5369 54.6018 28.5802 54.5365C29.6057 52.9329 29.662 50.9472 28.6489 49.9661Z" fill="#888B8F"/>
<path d="M34.1326 44.5616C34.0724 44.5015 33.9972 44.4586 33.9149 44.4372C33.8326 44.4159 33.7461 44.4168 33.6643 44.44L22.4478 47.5976C22.3665 47.6203 22.2927 47.664 22.2338 47.7244C22.1749 47.7848 22.1329 47.8597 22.1123 47.9415C22.0916 48.0233 22.0929 48.1091 22.116 48.1903C22.1392 48.2714 22.1833 48.345 22.244 48.4036L30.3941 56.3015C30.4539 56.3594 30.5277 56.4007 30.6083 56.4215C30.6889 56.4422 30.7735 56.4417 30.8538 56.4199C30.9341 56.3981 31.0074 56.3558 31.0664 56.2972C31.1254 56.2385 31.1682 56.1655 31.1906 56.0854L34.2558 45.0299C34.2785 44.9479 34.279 44.8613 34.2574 44.7791C34.2357 44.6968 34.1927 44.6218 34.1326 44.5616Z" fill="#888B8F"/>
<defs>
<linearGradient id="paint0_linear" x1="16.5168" y1="33.2394" x2="27.9055" y2="0.424043" gradientUnits="userSpaceOnUse">
<stop stop-color="#B9BCC5"/>
<stop offset="1" stop-color="#B9BCC5"/>
</linearGradient>
<linearGradient id="paint1_linear" x1="81.3901" y1="7.15454" x2="72.2977" y2="9.23522" gradientUnits="userSpaceOnUse">
<stop stop-color="white"/>
<stop offset="1" stop-color="#EFEFF4"/>
</linearGradient>
<linearGradient id="paint2_linear" x1="4782.24" y1="4556.55" x2="4139.6" y2="5170.85" gradientUnits="userSpaceOnUse">
<stop stop-color="white"/>
<stop offset="1" stop-color="#EFEFF4"/>
</linearGradient>
<linearGradient id="paint3_linear" x1="123.233" y1="-4830.06" x2="139.938" y2="-4802.75" gradientUnits="userSpaceOnUse">
<stop stop-color="white"/>
<stop offset="1" stop-color="#EFEFF4"/>
</linearGradient>
<linearGradient id="paint4_linear" x1="1485.23" y1="-6464.85" x2="1492.57" y2="-6438.18" gradientUnits="userSpaceOnUse">
<stop stop-color="white"/>
<stop offset="1" stop-color="#EFEFF4"/>
</linearGradient>
<linearGradient id="paint5_linear" x1="5125.93" y1="862.618" x2="5738.52" y2="782.381" gradientUnits="userSpaceOnUse">
<stop stop-color="white"/>
<stop offset="1" stop-color="#EFEFF4"/>
</linearGradient>
<linearGradient id="paint6_linear" x1="3775.42" y1="-1704.86" x2="3174.52" y2="-1025.25" gradientUnits="userSpaceOnUse">
<stop stop-color="white"/>
<stop offset="1" stop-color="#EFEFF4"/>
</linearGradient>
<linearGradient id="paint7_linear" x1="9083.06" y1="7352.85" x2="9040.16" y2="7632.01" gradientUnits="userSpaceOnUse">
<stop stop-color="white"/>
<stop offset="1" stop-color="#EFEFF4"/>
</linearGradient>
<linearGradient id="paint8_linear" x1="2970.54" y1="2256.21" x2="2984.43" y2="2192.52" gradientUnits="userSpaceOnUse">
<stop stop-color="white"/>
<stop offset="1" stop-color="#EFEFF4"/>
</linearGradient>
<linearGradient id="paint9_linear" x1="4102.23" y1="592.365" x2="4588.47" y2="521.189" gradientUnits="userSpaceOnUse">
<stop stop-color="white"/>
<stop offset="1" stop-color="#EFEFF4"/>
</linearGradient>
</defs>
</svg>
