<svg width="40" height="41" viewBox="0 0 40 41" fill="none" xmlns="http://www.w3.org/2000/svg">
<path fill-rule="evenodd" clip-rule="evenodd" d="M20 0C8.955 0 0 9.17889 0 20.5C0 31.8211 8.955 41 20 41C31.045 41 40 31.8211 40 20.5C40 9.17889 31.045 0 20 0ZM19.9997 3.4165C29.1897 3.4165 36.6663 11.0801 36.6663 20.4998C36.6663 29.9196 29.1897 37.5832 19.9997 37.5832C10.8097 37.5832 3.33301 29.9196 3.33301 20.4998C3.33301 11.0801 10.8097 3.4165 19.9997 3.4165ZM23.9101 20.592C23.9101 22.8094 22.1518 24.6134 19.9868 24.6134C17.8251 24.6134 16.0651 22.8094 16.0635 20.592C16.0635 19.3876 16.5851 18.3079 17.4051 17.5699C17.6918 17.312 18.0168 17.095 18.3685 16.931C18.8618 16.7004 19.4085 16.5723 19.9868 16.5723C20.5635 16.5723 21.1101 16.7004 21.6051 16.931C21.9585 17.095 22.2818 17.312 22.5718 17.5699C23.3901 18.3079 23.9101 19.3893 23.9101 20.592ZM20.0002 17.6216C21.6018 17.6216 22.8968 18.9507 22.8968 20.5923C22.8968 22.2341 21.6018 23.5649 20.0002 23.5649C18.3985 23.5649 17.1035 22.2341 17.1035 20.5923C17.1035 18.9524 18.3985 17.6216 20.0002 17.6216ZM30 17.9375H24.3517C24.805 18.7182 25.0783 19.6202 25.0783 20.5922C25.0783 23.4742 22.7983 25.8112 19.9867 25.8112C17.1733 25.8112 14.895 23.4759 14.895 20.5922C14.895 19.6202 15.17 18.7182 15.6217 17.9375H10V26.7166C10 28.9443 11.8133 30.75 13.9883 30.75H26.065C28.2367 30.75 30 28.9443 30 26.7166V17.9375ZM26.065 10.25H15.8333V14.5208H15V10.25H14.1667V14.5208H13.3333V10.3167C13.0433 10.3644 12.765 10.4379 12.5 10.5455V14.5208H11.6667V11.017C10.6633 11.7482 10 12.9355 10 14.2834V17.0833H16.2267C17.2 15.9866 18.5583 15.375 19.9867 15.375C21.42 15.375 22.7783 15.9934 23.745 17.0833H30V14.2817C30 12.0557 28.2367 10.25 26.065 10.25ZM27.7117 15.3752C28.0567 15.3752 28.3333 15.0933 28.3333 14.7465V12.5854C28.3333 12.2404 28.0567 11.9585 27.7117 11.9585H25.62C25.2783 11.9585 25 12.2404 25 12.5854V14.7465C25 15.0933 25.2783 15.3752 25.62 15.3752H27.7117Z" fill="white"/>
</svg>
