<svg width="218" height="45" viewBox="0 0 218 45" fill="none" xmlns="http://www.w3.org/2000/svg">
<path fill-rule="evenodd" clip-rule="evenodd" d="M6.53247 9.9641L25.2545 0V5.38611L11.5882 12.6591L6.53247 9.9641Z" fill="#2D2D2D"/>
<path fill-rule="evenodd" clip-rule="evenodd" d="M20.9474 17.6396L15.8877 14.9485L34.6137 4.98047V10.3666L20.9474 17.6396Z" fill="#2D2D2D"/>
<path fill-rule="evenodd" clip-rule="evenodd" d="M0 10.3613L21.8908 21.6789L21.9545 27.061L5.15522 18.3788L5.19901 21.878L21.9982 30.5642L22.0619 35.9463L0.171177 24.6327L0 10.3613Z" fill="#2D2D2D"/>
<path fill-rule="evenodd" clip-rule="evenodd" d="M0.214844 28.1328L22.1056 39.4464L22.1693 44.8325L0.278538 33.5149L0.214844 28.1328Z" fill="#2D2D2D"/>
<path fill-rule="evenodd" clip-rule="evenodd" d="M21.8909 21.677L43.503 9.83789L43.5667 15.224L21.9546 27.0631L21.8909 21.677Z" fill="#2D2D2D"/>
<path fill-rule="evenodd" clip-rule="evenodd" d="M21.9983 30.5617L43.6104 18.7227L43.7816 32.994L22.1695 44.8331L22.1058 39.447L38.69 30.3627L38.6463 26.8595L22.062 35.9478L21.9983 30.5617Z" fill="#2D2D2D"/>
<path d="M54.0203 15.3632H70.5448L73.4588 9.53125H54.0203V15.3632Z" fill="#2D2D2D"/>
<path d="M54.0203 15.3632H70.5448L73.4588 9.53125H54.0203V15.3632Z" fill="#2D2D2D"/>
<path d="M54.0402 34.7967H73.4588V28.9688H54.0203L54.0402 34.7967Z" fill="#2D2D2D"/>
<path d="M54.0402 34.7967H73.4588V28.9688H54.0203L54.0402 34.7967Z" fill="#2D2D2D"/>
<path d="M70.5607 19.248H54.0203V25.08H70.5607V19.248Z" fill="#2D2D2D"/>
<path d="M70.5607 19.248H54.0203V25.08H70.5607V19.248Z" fill="#2D2D2D"/>
<path d="M94.7047 20.8518C94.7373 19.0762 94.0678 17.3594 92.8416 16.0748C92.2744 15.4405 91.5782 14.9348 90.7997 14.5915C90.0211 14.2482 89.1782 14.0753 88.3274 14.0843H76.3848V34.7967H81.1618V24.55L88.3274 34.7967H94.6967L89.6052 27.4998C90.8553 27.2379 91.9891 26.5838 92.8416 25.6328C94.071 24.3485 94.741 22.6292 94.7047 20.8518ZM89.4539 22.261C89.325 22.4396 89.1559 22.5853 88.9601 22.6863C88.7644 22.7873 88.5476 22.8407 88.3274 22.8422H81.1618V18.8614H88.3274C88.5479 18.8636 88.7648 18.9178 88.9605 19.0195C89.1562 19.1211 89.3252 19.2674 89.4539 19.4465C89.7589 19.8531 89.9237 20.3476 89.9237 20.8558C89.9237 21.364 89.7589 21.8584 89.4539 22.265V22.261Z" fill="#2D2D2D"/>
<path d="M94.7047 20.8518C94.7373 19.0762 94.0678 17.3594 92.8416 16.0748C92.2744 15.4405 91.5782 14.9348 90.7997 14.5915C90.0211 14.2482 89.1782 14.0753 88.3274 14.0843H76.3848V34.7967H81.1618V24.55L88.3274 34.7967H94.6967L89.6052 27.4998C90.8553 27.2379 91.9891 26.5838 92.8416 25.6328C94.071 24.3485 94.741 22.6292 94.7047 20.8518ZM89.4539 22.261C89.325 22.4396 89.1559 22.5853 88.9601 22.6863C88.7644 22.7873 88.5476 22.8407 88.3274 22.8422H81.1618V18.8614H88.3274C88.5479 18.8636 88.7648 18.9178 88.9605 19.0195C89.1562 19.1211 89.3252 19.2674 89.4539 19.4465C89.7589 19.8531 89.9237 20.3476 89.9237 20.8558C89.9237 21.364 89.7589 21.8584 89.4539 22.265V22.261Z" fill="#2D2D2D"/>
<path d="M106.659 18.8573H114.621L116.213 14.0802H106.643C105.37 14.0725 104.11 14.3399 102.949 14.8641C101.789 15.3883 100.755 16.157 99.9196 17.1176C98.0722 19.1064 97.0727 21.7367 97.1329 24.4504C97.0752 27.1612 98.0745 29.7882 99.9196 31.7752C100.762 32.739 101.803 33.5092 102.971 34.0328C104.139 34.5564 105.407 34.8211 106.687 34.8086H116.241V22.0698H106.687V26.8469H111.464V30.0316H106.687C106.037 30.0316 105.396 29.8848 104.81 29.6022C104.225 29.3195 103.711 28.9084 103.307 28.3994C102.37 27.3022 101.871 25.8972 101.906 24.4544C101.87 23.0114 102.369 21.6062 103.307 20.5093C103.706 19.9999 104.214 19.5869 104.795 19.3009C105.375 19.0149 106.012 18.8633 106.659 18.8573Z" fill="#2D2D2D"/>
<path d="M106.659 18.8573H114.621L116.213 14.0802H106.643C105.37 14.0725 104.11 14.3399 102.949 14.8641C101.789 15.3883 100.755 16.157 99.9196 17.1176C98.0722 19.1064 97.0727 21.7367 97.1329 24.4504C97.0752 27.1612 98.0745 29.7882 99.9196 31.7752C100.762 32.739 101.803 33.5092 102.971 34.0328C104.139 34.5564 105.407 34.8211 106.687 34.8086H116.241V22.0698H106.687V26.8469H111.464V30.0316H106.687C106.037 30.0316 105.396 29.8848 104.81 29.6022C104.225 29.3195 103.711 28.9084 103.307 28.3994C102.37 27.3022 101.871 25.8972 101.906 24.4544C101.87 23.0114 102.369 21.6062 103.307 20.5093C103.706 19.9999 104.214 19.5869 104.795 19.3009C105.375 19.0149 106.012 18.8633 106.659 18.8573Z" fill="#2D2D2D"/>
<path d="M128.184 14.0766C126.903 14.0641 125.635 14.3295 124.466 14.8545C123.298 15.3796 122.257 16.1518 121.416 17.118C119.57 19.1038 118.57 21.7315 118.63 24.4428C118.57 27.1539 119.57 29.7815 121.416 31.7676C122.266 32.7224 123.309 33.4866 124.475 34.0098C125.642 34.5331 126.905 34.8036 128.184 34.8036C129.462 34.8036 130.726 34.5331 131.892 34.0098C133.059 33.4866 134.101 32.7224 134.951 31.7676C136.796 29.7804 137.795 27.1535 137.738 24.4428C137.796 21.7318 136.797 19.1047 134.951 17.118C134.11 16.1518 133.07 15.3796 131.901 14.8545C130.733 14.3295 129.465 14.0641 128.184 14.0766ZM131.564 28.3838C131.16 28.8943 130.645 29.3067 130.059 29.5902C129.473 29.8738 128.831 30.0211 128.18 30.0211C127.529 30.0211 126.886 29.8738 126.3 29.5902C125.714 29.3067 125.2 28.8943 124.796 28.3838C123.863 27.2849 123.368 25.88 123.407 24.4388C123.371 22.9958 123.87 21.5906 124.808 20.4937C125.211 19.982 125.725 19.5683 126.311 19.2838C126.897 18.9994 127.54 18.8516 128.192 18.8516C128.843 18.8516 129.486 18.9994 130.072 19.2838C130.658 19.5683 131.172 19.982 131.576 20.4937C132.508 21.5929 133.001 22.9979 132.961 24.4388C132.995 25.8821 132.495 27.2872 131.556 28.3838H131.564Z" fill="#2D2D2D"/>
<path d="M128.184 14.0766C126.903 14.0641 125.635 14.3295 124.466 14.8545C123.298 15.3796 122.257 16.1518 121.416 17.118C119.57 19.1038 118.57 21.7315 118.63 24.4428C118.57 27.1539 119.57 29.7815 121.416 31.7676C122.266 32.7224 123.309 33.4866 124.475 34.0098C125.642 34.5331 126.905 34.8036 128.184 34.8036C129.462 34.8036 130.726 34.5331 131.892 34.0098C133.059 33.4866 134.101 32.7224 134.951 31.7676C136.796 29.7804 137.795 27.1535 137.738 24.4428C137.796 21.7318 136.797 19.1047 134.951 17.118C134.11 16.1518 133.07 15.3796 131.901 14.8545C130.733 14.3295 129.465 14.0641 128.184 14.0766ZM131.564 28.3838C131.16 28.8943 130.645 29.3067 130.059 29.5902C129.473 29.8738 128.831 30.0211 128.18 30.0211C127.529 30.0211 126.886 29.8738 126.3 29.5902C125.714 29.3067 125.2 28.8943 124.796 28.3838C123.863 27.2849 123.368 25.88 123.407 24.4388C123.371 22.9958 123.87 21.5906 124.808 20.4937C125.211 19.982 125.725 19.5683 126.311 19.2838C126.897 18.9994 127.54 18.8516 128.192 18.8516C128.843 18.8516 129.486 18.9994 130.072 19.2838C130.658 19.5683 131.172 19.982 131.576 20.4937C132.508 21.5929 133.001 22.9979 132.961 24.4388C132.995 25.8821 132.495 27.2872 131.556 28.3838H131.564Z" fill="#2D2D2D"/>
<path d="M147.905 15.3632H159.569L162.483 9.53127H147.905C146.883 9.52917 145.871 9.72881 144.927 10.1187C143.982 10.5086 143.124 11.0812 142.402 11.8035C141.679 12.5258 141.106 13.3837 140.715 14.3279C140.325 15.2721 140.125 16.2841 140.126 17.3059C140.125 18.3276 140.325 19.3397 140.715 20.2839C141.106 21.2281 141.679 22.086 142.402 22.8083C143.124 23.5306 143.982 24.1031 144.927 24.4931C145.871 24.883 146.883 25.0826 147.905 25.0805H154.708C155.209 25.1032 155.681 25.3179 156.028 25.6802C156.374 26.0424 156.567 26.5241 156.567 27.0252C156.567 27.5262 156.374 28.008 156.028 28.3702C155.681 28.7324 155.209 28.9472 154.708 28.9698H140.126V34.7978H154.704C155.726 34.7994 156.738 34.5993 157.681 34.2092C158.625 33.819 159.483 33.2464 160.205 32.5242C160.928 31.8019 161.5 30.9442 161.89 30.0003C162.281 29.0563 162.481 28.0446 162.479 27.0232C162.481 26.0018 162.281 24.9901 161.89 24.0461C161.5 23.1021 160.928 22.2444 160.205 21.5222C159.483 20.7999 158.625 20.2273 157.681 19.8372C156.738 19.447 155.726 19.247 154.704 19.2486H147.905C147.39 19.2486 146.896 19.0439 146.531 18.6796C146.167 18.3152 145.962 17.8211 145.962 17.3059C145.962 16.7907 146.167 16.2965 146.531 15.9322C146.896 15.5679 147.39 15.3632 147.905 15.3632Z" fill="#2D2D2D"/>
<path d="M147.905 15.3632H159.569L162.483 9.53127H147.905C146.883 9.52917 145.871 9.72881 144.927 10.1187C143.982 10.5086 143.124 11.0812 142.402 11.8035C141.679 12.5258 141.106 13.3837 140.715 14.3279C140.325 15.2721 140.125 16.2841 140.126 17.3059C140.125 18.3276 140.325 19.3397 140.715 20.2839C141.106 21.2281 141.679 22.086 142.402 22.8083C143.124 23.5306 143.982 24.1031 144.927 24.4931C145.871 24.883 146.883 25.0826 147.905 25.0805H154.708C155.209 25.1032 155.681 25.3179 156.028 25.6802C156.374 26.0424 156.567 26.5241 156.567 27.0252C156.567 27.5262 156.374 28.008 156.028 28.3702C155.681 28.7324 155.209 28.9472 154.708 28.9698H140.126V34.7978H154.704C155.726 34.7994 156.738 34.5993 157.681 34.2092C158.625 33.819 159.483 33.2464 160.205 32.5242C160.928 31.8019 161.5 30.9442 161.89 30.0003C162.281 29.0563 162.481 28.0446 162.479 27.0232C162.481 26.0018 162.281 24.9901 161.89 24.0461C161.5 23.1021 160.928 22.2444 160.205 21.5222C159.483 20.7999 158.625 20.2273 157.681 19.8372C156.738 19.447 155.726 19.247 154.704 19.2486H147.905C147.39 19.2486 146.896 19.0439 146.531 18.6796C146.167 18.3152 145.962 17.8211 145.962 17.3059C145.962 16.7907 146.167 16.2965 146.531 15.9322C146.896 15.5679 147.39 15.3632 147.905 15.3632Z" fill="#2D2D2D"/>
<path d="M178.964 22.0449H165.401V26.8259H178.964V22.0449Z" fill="#2D2D2D"/>
<path d="M178.964 22.0449H165.401V26.8259H178.964V22.0449Z" fill="#2D2D2D"/>
<path d="M165.401 18.8612H178.948L181.34 14.0762H165.401V18.8612Z" fill="#2D2D2D"/>
<path d="M165.401 18.8612H178.948L181.34 14.0762H165.401V18.8612Z" fill="#2D2D2D"/>
<path d="M165.417 34.7966H181.34V30.0156H165.401L165.417 34.7966Z" fill="#2D2D2D"/>
<path d="M165.417 34.7966H181.34V30.0156H165.401L165.417 34.7966Z" fill="#2D2D2D"/>
<path d="M188.514 14.0762H183.729V31.6119L183.744 34.7966H199.668V30.0155H188.514V14.0762Z" fill="#2D2D2D"/>
<path d="M188.514 14.0762H183.729V31.6119L183.744 34.7966H199.668V30.0155H188.514V14.0762Z" fill="#2D2D2D"/>
<path d="M206.842 14.0762H202.061V31.6119L202.076 34.7966H218V30.0155H206.842V14.0762Z" fill="#2D2D2D"/>
<path d="M206.842 14.0762H202.061V31.6119L202.076 34.7966H218V30.0155H206.842V14.0762Z" fill="#2D2D2D"/>
</svg>
