<svg width="50" height="46" viewBox="0 0 50 46" fill="none" xmlns="http://www.w3.org/2000/svg">
<path d="M47.5 0.5C48.163 0.5 48.7989 0.763392 49.2678 1.23223C49.7366 1.70107 50 2.33696 50 3V43C50 43.663 49.7366 44.2989 49.2678 44.7678C48.7989 45.2366 48.163 45.5 47.5 45.5H2.5C1.83696 45.5 1.20107 45.2366 0.732233 44.7678C0.263392 44.2989 0 43.663 0 43V3C0 2.33696 0.263392 1.70107 0.732233 1.23223C1.20107 0.763392 1.83696 0.5 2.5 0.5H47.5ZM45 5.5H5V40.5H45V5.5ZM27.5 35.5V30.5H35V23H40V35.5H27.5ZM22.5 10.5V15.5H15V23H10V10.5H22.5Z" fill="#2D2D2D"/>
</svg>
