<svg width="24" height="30" viewBox="0 0 24 30" fill="none" xmlns="http://www.w3.org/2000/svg">
<path d="M20.4853 21.1512L12 29.6366L3.51467 21.1512C1.83646 19.473 0.693582 17.3348 0.230571 15.007C-0.232439 12.6793 0.00520913 10.2665 0.913465 8.07378C1.82172 5.88107 3.35979 4.00694 5.33318 2.68837C7.30656 1.3698 9.62663 0.666016 12 0.666016C14.3734 0.666016 16.6934 1.3698 18.6668 2.68837C20.6402 4.00694 22.1783 5.88107 23.0865 8.07378C23.9948 10.2665 24.2324 12.6793 23.7694 15.007C23.3064 17.3348 22.1636 19.473 20.4853 21.1512ZM12 15.3326C12.7072 15.3326 13.3855 15.0516 13.8856 14.5515C14.3857 14.0514 14.6667 13.3732 14.6667 12.6659C14.6667 11.9587 14.3857 11.2804 13.8856 10.7803C13.3855 10.2802 12.7072 9.99924 12 9.99924C11.2928 9.99924 10.6145 10.2802 10.1144 10.7803C9.61429 11.2804 9.33334 11.9587 9.33334 12.6659C9.33334 13.3732 9.61429 14.0514 10.1144 14.5515C10.6145 15.0516 11.2928 15.3326 12 15.3326Z" fill="#2D2D2D"/>
</svg>
