<svg width="50" height="50" viewBox="0 0 50 50" fill="none" xmlns="http://www.w3.org/2000/svg">
<path d="M8.6575 6.08252C13.1939 2.15168 18.9975 -0.00834966 25 2.42566e-05C38.8075 2.42566e-05 50 11.1925 50 25C50 30.34 48.325 35.29 45.475 39.35L37.5 25H45C45.0003 21.0791 43.8481 17.2445 41.6867 13.9732C39.5252 10.7018 36.4498 8.13792 32.8429 6.60033C29.2361 5.06275 25.2568 4.61928 21.3999 5.32507C17.543 6.03086 13.9786 7.85477 11.15 10.57L8.6575 6.08252ZM41.3425 43.9175C36.8061 47.8484 31.0025 50.0084 25 50C11.1925 50 0 38.8075 0 25C0 19.66 1.675 14.71 4.525 10.65L12.5 25H5C4.99968 28.921 6.15188 32.7555 8.31334 36.0269C10.4748 39.2983 13.5502 41.8621 17.1571 43.3997C20.7639 44.9373 24.7432 45.3808 28.6001 44.675C32.457 43.9692 36.0214 42.1453 38.85 39.43L41.3425 43.9175Z" fill="#2D2D2D"/>
</svg>
