<svg width="135" height="154" viewBox="0 0 135 154" fill="none" xmlns="http://www.w3.org/2000/svg">
<path d="M96.5365 0H35.8603C32.8297 0.00369585 29.9243 1.21143 27.7814 3.35831C25.6384 5.50518 24.4329 8.4159 24.4292 11.452V142.548C24.4329 145.584 25.6384 148.495 27.7814 150.642C29.9243 152.789 32.8297 153.996 35.8603 154H96.5365C99.5671 153.996 102.472 152.789 104.615 150.642C106.758 148.495 107.964 145.584 107.968 142.548V11.452C107.964 8.4159 106.758 5.50518 104.615 3.35831C102.472 1.21143 99.5671 0.00369585 96.5365 0V0ZM27.9083 24.9172H104.488V129.011H27.9083V24.9172ZM35.8603 3.48549H96.5365C98.6443 3.48918 100.665 4.3297 102.155 5.82292C103.646 7.31613 104.485 9.34031 104.488 11.452V21.4277H27.9083V11.452C27.912 9.34031 28.751 7.31613 30.2414 5.82292C31.7319 4.3297 33.7524 3.48918 35.8603 3.48549ZM96.5365 150.514H35.8603C33.7524 150.511 31.7319 149.67 30.2414 148.177C28.751 146.684 27.912 144.66 27.9083 142.548V132.496H104.488V142.548C104.485 144.66 103.646 146.684 102.155 148.177C100.665 149.67 98.6443 150.511 96.5365 150.514Z" fill="#1D1D1B"/>
<path d="M58.657 14.3253H73.7404C74.1916 14.31 74.6192 14.1197 74.933 13.7946C75.2467 13.4694 75.4221 13.0348 75.4221 12.5826C75.4221 12.1303 75.2467 11.6958 74.933 11.3706C74.6192 11.0454 74.1916 10.8551 73.7404 10.8398H58.657C58.2059 10.8551 57.7783 11.0454 57.4645 11.3706C57.1507 11.6958 56.9753 12.1303 56.9753 12.5826C56.9753 13.0348 57.1507 13.4694 57.4645 13.7946C57.7783 14.1197 58.2059 14.31 58.657 14.3253Z" fill="#1D1D1B"/>
<path d="M133.26 27.9318H130.165V24.8254C130.15 24.3734 129.96 23.945 129.635 23.6307C129.311 23.3163 128.877 23.1406 128.425 23.1406C127.974 23.1406 127.54 23.3163 127.216 23.6307C126.891 23.945 126.701 24.3734 126.686 24.8254V27.9318H123.591C123.13 27.9318 122.688 28.1153 122.362 28.442C122.036 28.7686 121.853 29.2116 121.853 29.6736C121.853 30.1355 122.036 30.5785 122.362 30.9052C122.688 31.2318 123.13 31.4153 123.591 31.4153H126.686V34.5157C126.701 34.9677 126.891 35.3961 127.216 35.7105C127.54 36.0248 127.974 36.2005 128.425 36.2005C128.877 36.2005 129.311 36.0248 129.635 35.7105C129.96 35.3961 130.15 34.9677 130.165 34.5157V31.4113H133.26C133.721 31.4113 134.163 31.2278 134.489 30.9012C134.815 30.5745 134.998 30.1315 134.998 29.6696C134.998 29.2076 134.815 28.7646 134.489 28.438C134.163 28.1113 133.721 27.9278 133.26 27.9278V27.9318Z" fill="#1D1D1B"/>
<path d="M67.7462 139.603H64.6515C64.4181 139.595 64.1855 139.634 63.9675 139.718C63.7496 139.802 63.5507 139.929 63.3828 140.092C63.2149 140.254 63.0814 140.449 62.9902 140.664C62.899 140.88 62.8521 141.111 62.8521 141.345C62.8521 141.579 62.899 141.811 62.9902 142.026C63.0814 142.242 63.2149 142.436 63.3828 142.599C63.5507 142.762 63.7496 142.889 63.9675 142.973C64.1855 143.057 64.4181 143.096 64.6515 143.088H67.7462C67.9796 143.096 68.2122 143.057 68.4302 142.973C68.6481 142.889 68.847 142.762 69.0148 142.599C69.1827 142.436 69.3163 142.242 69.4075 142.026C69.4986 141.811 69.5456 141.579 69.5456 141.345C69.5456 141.111 69.4986 140.88 69.4075 140.664C69.3163 140.449 69.1827 140.254 69.0148 140.092C68.847 139.929 68.6481 139.802 68.4302 139.718C68.2122 139.634 67.9796 139.595 67.7462 139.603Z" fill="#1D1D1B"/>
<path d="M116.445 13.7248C115.984 13.7311 115.544 13.9203 115.222 14.2509C114.9 14.5814 114.722 15.0265 114.727 15.4885L114.764 18.5889C114.769 19.0472 114.954 19.4851 115.279 19.8075C115.605 20.1299 116.044 20.3107 116.501 20.3107H116.521C116.749 20.3086 116.974 20.2615 117.184 20.1722C117.394 20.0828 117.584 19.9529 117.744 19.7899C117.904 19.6268 118.03 19.4339 118.116 19.222C118.201 19.0101 118.244 18.7834 118.242 18.555L118.206 15.4526C118.204 15.2231 118.157 14.9962 118.068 14.7849C117.978 14.5736 117.848 14.3822 117.684 14.2216C117.521 14.061 117.327 13.9344 117.114 13.8491C116.902 13.7639 116.674 13.7216 116.445 13.7248Z" fill="#1D1D1B"/>
<path d="M116.445 109.332C115.984 109.338 115.544 109.527 115.222 109.858C114.899 110.188 114.721 110.634 114.727 111.096L114.765 114.196C114.77 114.654 114.955 115.092 115.28 115.414C115.605 115.736 116.044 115.916 116.501 115.916H116.521C116.749 115.913 116.975 115.866 117.185 115.776C117.395 115.686 117.586 115.555 117.745 115.391C117.905 115.227 118.031 115.034 118.116 114.821C118.2 114.609 118.243 114.381 118.24 114.152L118.204 111.052C118.201 110.823 118.154 110.597 118.064 110.387C117.975 110.177 117.844 109.986 117.681 109.826C117.518 109.667 117.324 109.541 117.112 109.456C116.9 109.371 116.674 109.329 116.445 109.332Z" fill="#1D1D1B"/>
<path d="M123.093 47.2617H123.073C122.845 47.2643 122.619 47.312 122.409 47.4019C122.199 47.4919 122.009 47.6223 121.85 47.7859C121.69 47.9495 121.564 48.143 121.479 48.3553C121.394 48.5677 121.352 48.7947 121.355 49.0234L121.39 52.1258C121.396 52.5842 121.582 53.0218 121.907 53.344C122.233 53.6662 122.672 53.8472 123.129 53.8476H123.151C123.612 53.8419 124.052 53.6528 124.375 53.3221C124.697 52.9914 124.875 52.5461 124.87 52.0839L124.834 48.9835C124.828 48.5249 124.642 48.087 124.316 47.7647C123.99 47.4424 123.551 47.2617 123.093 47.2617Z" fill="#1D1D1B"/>
<path d="M15.8823 121.457H15.8604C15.6318 121.46 15.406 121.507 15.1958 121.597C14.9856 121.687 14.7952 121.818 14.6354 121.982C14.4757 122.146 14.3497 122.339 14.2646 122.552C14.1796 122.764 14.1371 122.992 14.1398 123.221L14.1776 126.321C14.1823 126.78 14.3676 127.218 14.6932 127.54C15.0188 127.863 15.4583 128.044 15.9162 128.043H15.9321C16.1606 128.04 16.3863 127.993 16.5964 127.903C16.8064 127.813 16.9967 127.682 17.1563 127.518C17.316 127.354 17.4418 127.16 17.5266 126.948C17.6115 126.735 17.6536 126.508 17.6507 126.279L17.6149 123.179C17.6091 122.722 17.4243 122.285 17.1002 121.963C16.7762 121.641 16.3388 121.459 15.8823 121.457Z" fill="#1D1D1B"/>
<path d="M15.8823 38.6289H15.8604C15.6319 38.6313 15.4061 38.6787 15.196 38.7685C14.9858 38.8584 14.7954 38.9888 14.6356 39.1524C14.4758 39.316 14.3497 39.5096 14.2646 39.7221C14.1796 39.9345 14.1371 40.1617 14.1398 40.3906L14.1796 43.493C14.1848 43.9515 14.3703 44.3894 14.6958 44.7118C15.0213 45.0341 15.4605 45.2149 15.9181 45.2148H15.9321C16.1606 45.2122 16.3863 45.1645 16.5964 45.0745C16.8064 44.9844 16.9967 44.8537 17.1563 44.6899C17.316 44.5261 17.4418 44.3324 17.5266 44.1198C17.6114 43.9073 17.6536 43.68 17.6507 43.4511L17.6149 40.3507C17.6091 39.8934 17.4243 39.4567 17.1002 39.1347C16.7762 38.8126 16.3388 38.631 15.8823 38.6289Z" fill="#1D1D1B"/>
<path d="M1.71876 85.5137C1.49044 85.5164 1.26488 85.564 1.05494 85.6539C0.845001 85.7439 0.654805 85.8744 0.495211 86.038C0.335618 86.2016 0.209752 86.395 0.124803 86.6074C0.0398543 86.8197 -0.0025149 87.0467 0.000115367 87.2754L0.0359619 90.3799C0.0422386 90.8383 0.228322 91.276 0.554004 91.5981C0.879686 91.9203 1.31882 92.1012 1.77651 92.1016H1.79244C2.25373 92.0959 2.69385 91.9068 3.01611 91.5761C3.33837 91.2454 3.5164 90.8001 3.51108 90.338L3.47524 87.2375C3.46998 86.7758 3.2821 86.3349 2.9528 86.0118C2.62351 85.6886 2.1797 85.5095 1.71876 85.5137Z" fill="#1D1D1B"/>
<path d="M15.9001 110.406C16.3612 110.406 16.8034 110.222 17.1295 109.896C17.4555 109.569 17.6387 109.126 17.6387 108.664C17.6387 108.202 17.4555 107.759 17.1295 107.432C16.8034 107.106 16.3612 106.922 15.9001 106.922H13.6597V104.678C13.6676 104.444 13.6285 104.211 13.5446 103.993C13.4607 103.774 13.3339 103.575 13.1716 103.407C13.0093 103.239 12.8148 103.105 12.5998 103.013C12.3848 102.922 12.1537 102.875 11.9202 102.875C11.6866 102.875 11.4555 102.922 11.2405 103.013C11.0255 103.105 10.8311 103.239 10.6688 103.407C10.5065 103.575 10.3796 103.774 10.2957 103.993C10.2119 104.211 10.1727 104.444 10.1806 104.678V106.922H7.94022C7.47912 106.922 7.03691 107.106 6.71087 107.432C6.38483 107.759 6.20166 108.202 6.20166 108.664C6.20166 109.126 6.38483 109.569 6.71087 109.896C7.03691 110.222 7.47912 110.406 7.94022 110.406H10.1806V112.65C10.1727 112.884 10.2119 113.117 10.2957 113.335C10.3796 113.554 10.5065 113.753 10.6688 113.921C10.8311 114.089 11.0255 114.223 11.2405 114.315C11.4555 114.406 11.6866 114.453 11.9202 114.453C12.1537 114.453 12.3848 114.406 12.5998 114.315C12.8148 114.223 13.0093 114.089 13.1716 113.921C13.3339 113.753 13.4607 113.554 13.5446 113.335C13.6285 113.117 13.6676 112.884 13.6597 112.65V110.406H15.9001Z" fill="#1D1D1B"/>
<path d="M66.1986 46.9023C49.6316 46.9023 36.1553 60.4034 36.1553 77.0009C36.1553 93.5983 49.6316 107.099 66.1986 107.099C82.7657 107.099 96.242 93.5983 96.242 77.0009C96.242 60.4034 82.7657 46.9023 66.1986 46.9023ZM80.9077 99.0869L79.8422 97.2374C79.6117 96.8372 79.2319 96.545 78.7863 96.4253C78.3407 96.3055 77.866 96.368 77.4664 96.599C77.0668 96.83 76.7752 97.2105 76.6557 97.6569C76.5362 98.1032 76.5986 98.5789 76.8291 98.9792L77.8966 100.833C74.7852 102.371 71.4015 103.279 67.9392 103.504V98.3467C67.9392 98.118 67.8942 97.8915 67.8069 97.6802C67.7195 97.4689 67.5914 97.2769 67.43 97.1151C67.2685 96.9534 67.0769 96.8251 66.866 96.7376C66.655 96.65 66.429 96.605 66.2006 96.605C65.9723 96.605 65.7463 96.65 65.5353 96.7376C65.3244 96.8251 65.1327 96.9534 64.9713 97.1151C64.8099 97.2769 64.6818 97.4689 64.5944 97.6802C64.507 97.8915 64.4621 98.118 64.4621 98.3467V103.504C60.9998 103.279 57.616 102.371 54.5047 100.833L55.5622 98.9792C55.7927 98.5789 55.8551 98.1032 55.7356 97.6569C55.6161 97.2105 55.3245 96.83 54.9249 96.599C54.5254 96.368 54.0506 96.3055 53.605 96.4253C53.1595 96.545 52.7796 96.8372 52.5491 97.2374L51.4836 99.0869C48.5997 97.1537 46.1193 94.6761 44.1809 91.7927L46.0409 90.7174C46.4267 90.4793 46.7045 90.0999 46.8155 89.6598C46.9264 89.2197 46.8617 88.7536 46.6351 88.3606C46.4084 87.9675 46.0378 87.6785 45.6018 87.5549C45.1659 87.4313 44.699 87.4829 44.3004 87.6987L42.4404 88.7841C40.8929 85.6658 39.9778 82.2712 39.7479 78.7965H44.9397C45.3908 78.7812 45.8184 78.5909 46.1322 78.2657C46.446 77.9405 46.6213 77.506 46.6213 77.0537C46.6213 76.6015 46.446 76.1669 46.1322 75.8417C45.8184 75.5166 45.3908 75.3263 44.9397 75.311H39.7419C39.9596 71.8317 40.8639 68.4302 42.4025 65.3034L44.3064 66.4047C44.705 66.6205 45.1718 66.6721 45.6078 66.5485C46.0437 66.4249 46.4144 66.1359 46.6411 65.7429C46.8677 65.3498 46.9324 64.8838 46.8215 64.4437C46.7105 64.0036 46.4327 63.6242 46.0469 63.3861L44.1431 62.2848C46.0783 59.3853 48.5604 56.8926 51.4498 54.9467L52.5551 56.862C52.708 57.127 52.9278 57.347 53.1924 57.5001C53.457 57.6531 53.7571 57.7337 54.0626 57.7339C54.3678 57.7342 54.6675 57.653 54.9309 57.4985C55.1288 57.3842 55.3023 57.2319 55.4415 57.0504C55.5806 56.8689 55.6827 56.6617 55.7419 56.4407C55.8011 56.2196 55.8162 55.9891 55.7864 55.7622C55.7566 55.5353 55.6824 55.3165 55.5682 55.1183L54.4589 53.193C57.5813 51.6397 60.9811 50.7248 64.4601 50.5016V55.7527C64.4601 56.2147 64.6433 56.6577 64.9693 56.9843C65.2953 57.311 65.7376 57.4945 66.1986 57.4945C66.6597 57.4945 67.1019 57.311 67.428 56.9843C67.754 56.6577 67.9372 56.2147 67.9372 55.7527V50.4996C71.4162 50.7228 74.816 51.6377 77.9384 53.191L76.8291 55.1163C76.7149 55.3145 76.6407 55.5333 76.6109 55.7602C76.5811 55.9871 76.5962 56.2176 76.6554 56.4387C76.7146 56.6597 76.8167 56.8669 76.9558 57.0484C77.095 57.2299 77.2685 57.3822 77.4664 57.4965C77.7298 57.651 78.0295 57.7322 78.3347 57.7319C78.6402 57.7317 78.9403 57.6511 79.2049 57.4981C79.4695 57.345 79.6893 57.125 79.8422 56.86L80.9475 54.9407C83.8369 56.8866 86.319 59.3794 88.2542 62.2788L86.3504 63.3801C85.9646 63.6182 85.6868 63.9976 85.5758 64.4377C85.4649 64.8778 85.5296 65.3439 85.7562 65.7369C85.9829 66.1299 86.3535 66.419 86.7895 66.5425C87.2255 66.6661 87.6923 66.6145 88.0909 66.3987L89.9948 65.2974C91.5334 68.4242 92.4377 71.8257 92.6554 75.305H87.4576C87.0065 75.3203 86.5789 75.5106 86.2651 75.8358C85.9513 76.1609 85.776 76.5955 85.776 77.0477C85.776 77.5 85.9513 77.9346 86.2651 78.2597C86.5789 78.5849 87.0065 78.7752 87.4576 78.7905H92.6494C92.4203 82.2673 91.5051 85.664 89.9569 88.7841L88.0909 87.7047C87.6923 87.4889 87.2255 87.4373 86.7895 87.5609C86.3535 87.6845 85.9829 87.9735 85.7562 88.3666C85.5296 88.7596 85.4649 89.2257 85.5758 89.6658C85.6868 90.1058 85.9646 90.4853 86.3504 90.7234L88.2084 91.7987C86.2701 94.6799 83.7904 97.1553 80.9077 99.0869Z" fill="#1D1D1B"/>
<path d="M78.6035 64.6803L66.2902 74.5063L58.7485 67.4236C58.5819 67.2671 58.3862 67.1449 58.1725 67.0642C57.9588 66.9834 57.7313 66.9456 57.503 66.9529C57.2747 66.9602 57.0501 67.0125 56.842 67.1068C56.6339 67.2011 56.4463 67.3355 56.2901 67.5024C56.1338 67.6693 56.0119 67.8654 55.9313 68.0795C55.8507 68.2936 55.8129 68.5215 55.8202 68.7502C55.8275 68.979 55.8797 69.204 55.9738 69.4125C56.068 69.621 56.2021 69.8089 56.3687 69.9654L65.0097 78.0776C65.0316 78.0996 65.0575 78.1195 65.0814 78.1395L65.1332 78.1853C65.181 78.2213 65.2308 78.2552 65.2806 78.2871L65.3204 78.309C65.3602 78.333 65.4001 78.3549 65.4399 78.3749L65.4956 78.3988L65.6092 78.4447L65.6669 78.4647L65.7844 78.4986L65.8442 78.5125L65.9696 78.5325H66.0214C66.0791 78.5355 66.1369 78.5355 66.1947 78.5325H66.2066C66.2886 78.5318 66.3705 78.5251 66.4516 78.5125H66.5073C66.5877 78.4985 66.6669 78.4785 66.7443 78.4527L66.7921 78.4347C66.8732 78.4068 66.9518 78.3721 67.0271 78.331C67.1066 78.2865 67.1825 78.2358 67.2541 78.1794L67.276 78.1634L80.7643 67.3997C80.9429 67.2572 81.0918 67.0808 81.2023 66.8806C81.3129 66.6804 81.3831 66.4604 81.4088 66.2331C81.4345 66.0058 81.4152 65.7756 81.3521 65.5557C81.2891 65.3359 81.1834 65.1306 81.0411 64.9517C80.8988 64.7727 80.7228 64.6236 80.523 64.5128C80.3232 64.402 80.1036 64.3317 79.8767 64.306C79.6497 64.2802 79.42 64.2995 79.2005 64.3627C78.9811 64.4259 78.7762 64.5318 78.5976 64.6743L78.6035 64.6803Z" fill="#1D1D1B"/>
</svg>
