<svg width="135" height="154" viewBox="0 0 135 154" fill="none" xmlns="http://www.w3.org/2000/svg">
<path d="M96.537 0H35.8607C32.8302 0.00369585 29.9248 1.21143 27.7818 3.35831C25.6389 5.50518 24.4334 8.4159 24.4297 11.452V142.548C24.4334 145.584 25.6389 148.495 27.7818 150.642C29.9248 152.789 32.8302 153.996 35.8607 154H96.537C99.5675 153.996 102.473 152.789 104.616 150.642C106.759 148.495 107.964 145.584 107.968 142.548V11.452C107.964 8.4159 106.759 5.50518 104.616 3.35831C102.473 1.21143 99.5675 0.00369585 96.537 0V0ZM27.9088 66.9166H37.4161V104.204H27.9088V66.9166ZM27.9088 107.689H39.1546C39.3831 107.689 39.6094 107.644 39.8206 107.557C40.0317 107.47 40.2236 107.341 40.3853 107.18C40.5469 107.018 40.6752 106.826 40.7627 106.614C40.8502 106.403 40.8952 106.176 40.8952 105.947V65.1749C40.8952 64.7124 40.7118 64.2689 40.3854 63.9419C40.059 63.6148 39.6163 63.4311 39.1546 63.4311H27.9088V24.9251H104.489V63.4311H93.2431C92.7814 63.4311 92.3387 63.6148 92.0123 63.9419C91.6859 64.2689 91.5025 64.7124 91.5025 65.1749V105.941C91.5025 106.17 91.5476 106.397 91.6351 106.608C91.7225 106.82 91.8508 107.012 92.0124 107.174C92.1741 107.335 92.366 107.464 92.5771 107.551C92.7883 107.638 93.0146 107.683 93.2431 107.683H104.489V129.011H27.9088V107.689ZM104.489 104.204H94.9816V66.9166H104.489V104.204ZM35.8607 3.48549H96.537C98.6448 3.48918 100.665 4.3297 102.156 5.82292C103.646 7.31613 104.485 9.34031 104.489 11.452V21.4277H27.9088V11.452C27.9125 9.34031 28.7515 7.31613 30.2419 5.82292C31.7324 4.3297 33.7529 3.48918 35.8607 3.48549ZM96.537 150.514H35.8607C33.7529 150.511 31.7324 149.67 30.2419 148.177C28.7515 146.684 27.9125 144.66 27.9088 142.548V132.496H104.489V142.548C104.485 144.66 103.646 146.684 102.156 148.177C100.665 149.67 98.6448 150.511 96.537 150.514Z" fill="#1D1D1B"/>
<path d="M58.6573 14.3253H73.7407C74.1919 14.31 74.6194 14.1197 74.9332 13.7946C75.247 13.4694 75.4224 13.0348 75.4224 12.5826C75.4224 12.1303 75.247 11.6958 74.9332 11.3706C74.6194 11.0454 74.1919 10.8551 73.7407 10.8398H58.6573C58.2061 10.8551 57.7785 11.0454 57.4647 11.3706C57.151 11.6958 56.9756 12.1303 56.9756 12.5826C56.9756 13.0348 57.151 13.4694 57.4647 13.7946C57.7785 14.1197 58.2061 14.31 58.6573 14.3253Z" fill="#1D1D1B"/>
<path d="M133.259 27.9318H130.164V24.8254C130.149 24.3734 129.959 23.945 129.635 23.6307C129.31 23.3163 128.876 23.1406 128.425 23.1406C127.973 23.1406 127.54 23.3163 127.215 23.6307C126.891 23.945 126.701 24.3734 126.685 24.8254V27.9318H123.591C123.13 27.9318 122.687 28.1153 122.361 28.442C122.035 28.7686 121.852 29.2116 121.852 29.6736C121.852 30.1355 122.035 30.5785 122.361 30.9052C122.687 31.2318 123.13 31.4153 123.591 31.4153H126.685V34.5157C126.701 34.9677 126.891 35.3961 127.215 35.7105C127.54 36.0248 127.973 36.2005 128.425 36.2005C128.876 36.2005 129.31 36.0248 129.635 35.7105C129.959 35.3961 130.149 34.9677 130.164 34.5157V31.4113H133.259C133.72 31.4113 134.163 31.2278 134.489 30.9012C134.815 30.5745 134.998 30.1315 134.998 29.6696C134.998 29.2076 134.815 28.7646 134.489 28.438C134.163 28.1113 133.72 27.9278 133.259 27.9278V27.9318Z" fill="#1D1D1B"/>
<path d="M67.7457 139.603H64.651C64.4176 139.595 64.185 139.634 63.967 139.718C63.7491 139.802 63.5503 139.929 63.3824 140.092C63.2145 140.254 63.0809 140.449 62.9897 140.664C62.8986 140.88 62.8516 141.111 62.8516 141.345C62.8516 141.579 62.8986 141.811 62.9897 142.026C63.0809 142.242 63.2145 142.436 63.3824 142.599C63.5503 142.762 63.7491 142.889 63.967 142.973C64.185 143.057 64.4176 143.096 64.651 143.088H67.7457C67.9791 143.096 68.2117 143.057 68.4297 142.973C68.6476 142.889 68.8465 142.762 69.0144 142.599C69.1823 142.436 69.3158 142.242 69.407 142.026C69.4981 141.811 69.5451 141.579 69.5451 141.345C69.5451 141.111 69.4981 140.88 69.407 140.664C69.3158 140.449 69.1823 140.254 69.0144 140.092C68.8465 139.929 68.6476 139.802 68.4297 139.718C68.2117 139.634 67.9791 139.595 67.7457 139.603Z" fill="#1D1D1B"/>
<path d="M116.445 13.7248C115.984 13.7311 115.544 13.9203 115.222 14.2509C114.9 14.5814 114.722 15.0265 114.727 15.4885L114.764 18.5889C114.769 19.0472 114.954 19.4851 115.279 19.8075C115.605 20.1299 116.044 20.3107 116.501 20.3107H116.521C116.749 20.3086 116.974 20.2615 117.184 20.1722C117.394 20.0828 117.584 19.9529 117.744 19.7899C117.904 19.6268 118.03 19.4339 118.116 19.222C118.201 19.0101 118.244 18.7834 118.242 18.555L118.206 15.4526C118.204 15.2231 118.157 14.9962 118.068 14.7849C117.978 14.5736 117.848 14.3822 117.684 14.2216C117.521 14.061 117.327 13.9344 117.114 13.8491C116.902 13.7639 116.674 13.7216 116.445 13.7248Z" fill="#1D1D1B"/>
<path d="M116.445 109.332C116.217 109.335 115.991 109.382 115.782 109.472C115.572 109.562 115.381 109.693 115.222 109.856C115.062 110.02 114.936 110.213 114.851 110.426C114.766 110.638 114.724 110.865 114.727 111.094L114.765 114.196C114.77 114.654 114.955 115.092 115.28 115.414C115.605 115.736 116.044 115.916 116.501 115.916H116.521C116.749 115.913 116.975 115.866 117.185 115.776C117.395 115.686 117.586 115.555 117.745 115.391C117.905 115.227 118.031 115.034 118.116 114.821C118.2 114.609 118.243 114.381 118.24 114.152L118.204 111.052C118.201 110.823 118.154 110.597 118.064 110.387C117.974 110.177 117.844 109.987 117.68 109.827C117.517 109.667 117.324 109.541 117.112 109.456C116.9 109.371 116.674 109.329 116.445 109.332Z" fill="#1D1D1B"/>
<path d="M123.074 47.2598C122.845 47.2624 122.62 47.31 122.41 47.4C122.2 47.4899 122.01 47.6204 121.85 47.784C121.691 47.9476 121.565 48.1411 121.48 48.3534C121.395 48.5658 121.352 48.7928 121.355 49.0215L121.391 52.1239C121.397 52.5824 121.583 53.02 121.909 53.3422C122.235 53.6644 122.674 53.8452 123.131 53.8457H123.151C123.613 53.8399 124.053 53.6509 124.375 53.3202C124.697 52.9895 124.875 52.5442 124.87 52.082L124.834 48.9816C124.826 48.5203 124.636 48.0809 124.307 47.7586C123.977 47.4363 123.534 47.2571 123.074 47.2598Z" fill="#1D1D1B"/>
<path d="M15.8604 121.457C15.6318 121.46 15.406 121.507 15.1958 121.597C14.9856 121.687 14.7952 121.818 14.6354 121.982C14.4757 122.146 14.3497 122.339 14.2646 122.552C14.1796 122.765 14.1371 122.992 14.1398 123.221L14.1776 126.321C14.1823 126.78 14.3676 127.218 14.6932 127.541C15.0188 127.863 15.4583 128.044 15.9162 128.043H15.9321C16.3925 128.039 16.8326 127.853 17.156 127.524C17.4793 127.196 17.6594 126.753 17.6567 126.291L17.6209 123.189C17.6188 122.959 17.5716 122.732 17.482 122.521C17.3924 122.31 17.2621 122.119 17.0987 121.958C16.9352 121.797 16.7417 121.67 16.5292 121.584C16.3168 121.498 16.0895 121.455 15.8604 121.457Z" fill="#1D1D1B"/>
<path d="M15.8604 38.629C15.6319 38.6313 15.4061 38.6788 15.196 38.7686C14.9858 38.8584 14.7954 38.9889 14.6356 39.1525C14.4758 39.3161 14.3497 39.5097 14.2646 39.7221C14.1796 39.9346 14.1371 40.1618 14.1398 40.3907L14.1796 43.4931C14.1848 43.9516 14.3703 44.3895 14.6958 44.7118C15.0213 45.0342 15.4605 45.2149 15.9181 45.2149H15.9321C16.1606 45.2123 16.3863 45.1646 16.5964 45.0745C16.8064 44.9845 16.9967 44.8538 17.1563 44.69C17.316 44.5262 17.4418 44.3324 17.5266 44.1199C17.6115 43.9073 17.6536 43.6801 17.6507 43.4512L17.6149 40.3508C17.6096 39.8895 17.422 39.4492 17.093 39.1264C16.7641 38.8036 16.3208 38.6247 15.8604 38.629Z" fill="#1D1D1B"/>
<path d="M1.71876 85.5137C1.49044 85.5164 1.26488 85.564 1.05494 85.6539C0.845001 85.7439 0.654805 85.8744 0.495211 86.038C0.335618 86.2016 0.209752 86.395 0.124803 86.6074C0.0398542 86.8197 -0.0025149 87.0467 0.000115367 87.2754L0.0359619 90.3799C0.0422386 90.8383 0.228322 91.276 0.554003 91.5981C0.879685 91.9203 1.31882 92.1012 1.77651 92.1016H1.79244C2.25373 92.0959 2.69385 91.9068 3.01611 91.5761C3.33837 91.2454 3.5164 90.8001 3.51108 90.338L3.47524 87.2375C3.46998 86.7758 3.2821 86.3349 2.9528 86.0118C2.62351 85.6886 2.1797 85.5095 1.71876 85.5137Z" fill="#1D1D1B"/>
<path d="M15.9001 110.406C16.3612 110.406 16.8034 110.222 17.1294 109.896C17.4555 109.569 17.6387 109.126 17.6387 108.664C17.6387 108.202 17.4555 107.759 17.1294 107.432C16.8034 107.106 16.3612 106.922 15.9001 106.922H13.6597V104.678C13.6676 104.444 13.6284 104.211 13.5446 103.993C13.4607 103.774 13.3338 103.575 13.1715 103.407C13.0092 103.239 12.8148 103.105 12.5998 103.013C12.3848 102.922 12.1537 102.875 11.9201 102.875C11.6866 102.875 11.4555 102.922 11.2405 103.013C11.0255 103.105 10.8311 103.239 10.6687 103.407C10.5064 103.575 10.3796 103.774 10.2957 103.993C10.2118 104.211 10.1727 104.444 10.1806 104.678V106.922H7.94217C7.48108 106.922 7.03887 107.106 6.71283 107.432C6.38678 107.759 6.20361 108.202 6.20361 108.664C6.20361 109.126 6.38678 109.569 6.71283 109.896C7.03887 110.222 7.48108 110.406 7.94217 110.406H10.1806V112.65C10.1727 112.884 10.2118 113.117 10.2957 113.335C10.3796 113.554 10.5064 113.753 10.6687 113.921C10.8311 114.089 11.0255 114.223 11.2405 114.315C11.4555 114.406 11.6866 114.453 11.9201 114.453C12.1537 114.453 12.3848 114.406 12.5998 114.315C12.8148 114.223 13.0092 114.089 13.1715 113.921C13.3338 113.753 13.4607 113.554 13.5446 113.335C13.6284 113.117 13.6676 112.884 13.6597 112.65V110.406H15.9001Z" fill="#1D1D1B"/>
<path d="M75.959 46.6327C76.0715 46.9838 76.2924 47.2901 76.5898 47.5073C76.8872 47.7246 77.2458 47.8417 77.6139 47.8418H90.5704C90.9838 47.8418 91.3837 47.6941 91.6984 47.4254C92.013 47.1566 92.2217 46.7844 92.287 46.3754L94.0296 35.5219C94.0305 35.5173 94.0305 35.5125 94.0296 35.5079C94.0287 35.5026 94.0287 35.4972 94.0296 35.4919L94.5175 32.1222H99.2353C99.6964 32.1222 100.139 31.9387 100.465 31.612C100.791 31.2854 100.974 30.8424 100.974 30.3804C100.974 29.9185 100.791 29.4755 100.465 29.1488C100.139 28.8222 99.6964 28.6387 99.2353 28.6387H93.002C92.5859 28.64 92.1841 28.791 91.8697 29.0642C91.5554 29.3374 91.3494 29.7145 91.2893 30.127L90.8114 33.5028H74.1288C73.8547 33.5029 73.5845 33.5678 73.3402 33.6923C73.0959 33.8168 72.8844 33.9973 72.7229 34.2192C72.5614 34.441 72.4545 34.698 72.4108 34.9691C72.3672 35.2402 72.3881 35.5178 72.4719 35.7792L75.959 46.6327ZM90.2717 36.9863L89.0887 44.3563H78.8824L76.5146 36.9863H90.2717Z" fill="#1D1D1B"/>
<path d="M90.6258 50.2341C90.5997 50.0068 90.5291 49.7869 90.4181 49.587C90.3071 49.387 90.1579 49.2109 89.979 49.0687C89.8001 48.9265 89.595 48.821 89.3754 48.7583C89.1558 48.6955 88.926 48.6767 88.6991 48.7029C88.4722 48.7291 88.2527 48.7998 88.0531 48.911C87.8535 49.0222 87.6777 49.1716 87.5358 49.3509C87.3939 49.5301 87.2886 49.7356 87.2259 49.9556C87.1633 50.1756 87.1445 50.4059 87.1706 50.6332L87.1985 50.8686C87.2486 51.2924 87.452 51.6831 87.7701 51.9669C88.0883 52.2507 88.4991 52.4079 88.9251 52.4088C88.9917 52.4086 89.0582 52.4046 89.1243 52.3968C89.5823 52.3428 90.0003 52.1089 90.2863 51.7464C90.5723 51.3839 90.703 50.9225 90.6497 50.4636L90.6258 50.2341Z" fill="#1D1D1B"/>
<path d="M79.062 48.705C78.604 48.759 78.186 48.9929 77.9 49.3554C77.614 49.7179 77.4833 50.1793 77.5366 50.6382L77.5625 50.8737C77.6153 51.3327 77.8479 51.7519 78.2093 52.0391C78.5706 52.3262 79.031 52.4578 79.4892 52.4049C79.9474 52.352 80.3659 52.1189 80.6525 51.7569C80.9391 51.3949 81.0705 50.9337 81.0177 50.4746L80.9918 50.2392C80.9658 50.0115 80.8953 49.7911 80.7842 49.5906C80.6731 49.3902 80.5237 49.2137 80.3445 49.0712C80.1652 48.9287 79.9597 48.823 79.7397 48.7602C79.5196 48.6973 79.2893 48.6786 79.062 48.705Z" fill="#1D1D1B"/>
<path d="M84.66 63.4316H47.7381C47.2768 63.4322 46.8346 63.6161 46.5086 63.9431C46.1826 64.27 45.9995 64.7133 45.9995 65.1754V105.942C45.9995 106.404 46.1827 106.847 46.5087 107.173C46.8348 107.5 47.277 107.684 47.7381 107.684H84.66C85.1211 107.684 85.5633 107.5 85.8893 107.173C86.2154 106.847 86.3985 106.404 86.3985 105.942V65.1754C86.3985 64.7133 86.2154 64.27 85.8895 63.9431C85.5635 63.6161 85.1213 63.4322 84.66 63.4316ZM82.9194 104.204H49.4786V66.9171H82.9194V104.204Z" fill="#1D1D1B"/>
<path d="M76.636 112.429H55.8092C55.5758 112.421 55.3432 112.46 55.1252 112.544C54.9073 112.628 54.7084 112.755 54.5405 112.918C54.3727 113.08 54.2391 113.275 54.1479 113.491C54.0568 113.706 54.0098 113.938 54.0098 114.171C54.0098 114.405 54.0568 114.637 54.1479 114.852C54.2391 115.068 54.3727 115.263 54.5405 115.425C54.7084 115.588 54.9073 115.715 55.1252 115.799C55.3432 115.883 55.5758 115.922 55.8092 115.914H76.636C77.0872 115.899 77.5148 115.709 77.8285 115.383C78.1423 115.058 78.3177 114.624 78.3177 114.171C78.3177 113.719 78.1423 113.285 77.8285 112.959C77.5148 112.634 77.0872 112.444 76.636 112.429Z" fill="#1D1D1B"/>
<path d="M71.9984 119.95H60.4478C60.2145 119.942 59.9819 119.982 59.7639 120.066C59.546 120.15 59.3471 120.277 59.1792 120.439C59.0113 120.602 58.8778 120.797 58.7866 121.012C58.6954 121.227 58.6484 121.459 58.6484 121.693C58.6484 121.927 58.6954 122.158 58.7866 122.374C58.8778 122.589 59.0113 122.784 59.1792 122.947C59.3471 123.109 59.546 123.236 59.7639 123.32C59.9819 123.404 60.2145 123.444 60.4478 123.436H71.9984C72.4496 123.42 72.8771 123.23 73.1909 122.905C73.5047 122.58 73.6801 122.145 73.6801 121.693C73.6801 121.241 73.5047 120.806 73.1909 120.481C72.8771 120.156 72.4496 119.966 71.9984 119.95Z" fill="#1D1D1B"/>
<path d="M37.0674 39.2062H57.8962C58.3474 39.1909 58.775 39.0006 59.0888 38.6754C59.4025 38.3503 59.5779 37.9157 59.5779 37.4634C59.5779 37.0112 59.4025 36.5766 59.0888 36.2515C58.775 35.9263 58.3474 35.736 57.8962 35.7207H37.0674C36.6163 35.736 36.1887 35.9263 35.8749 36.2515C35.5611 36.5766 35.3857 37.0112 35.3857 37.4634C35.3857 37.9157 35.5611 38.3503 35.8749 38.6754C36.1887 39.0006 36.6163 39.1909 37.0674 39.2062Z" fill="#1D1D1B"/>
<path d="M50.3588 44.9859C50.3588 44.757 50.3137 44.5303 50.2262 44.3189C50.1387 44.1074 50.0105 43.9153 49.8488 43.7536C49.6872 43.5918 49.4953 43.4636 49.2841 43.3762C49.073 43.2887 48.8467 43.2439 48.6182 43.2441H37.0677C36.6066 43.2441 36.1644 43.4276 35.8383 43.7543C35.5123 44.0809 35.3291 44.5239 35.3291 44.9859C35.3291 45.4478 35.5123 45.8908 35.8383 46.2175C36.1644 46.5441 36.6066 46.7276 37.0677 46.7276H48.6182C48.8467 46.7279 49.073 46.683 49.2841 46.5956C49.4953 46.5082 49.6872 46.38 49.8488 46.2182C50.0105 46.0564 50.1387 45.8643 50.2262 45.6529C50.3137 45.4414 50.3588 45.2148 50.3588 44.9859Z" fill="#1D1D1B"/>
</svg>
