<svg width="134" height="154" viewBox="0 0 134 154" fill="none" xmlns="http://www.w3.org/2000/svg">
<path d="M95.8222 0H35.5954C32.5869 0.00369686 29.7028 1.21171 27.5757 3.35901C25.4485 5.50632 24.2522 8.41755 24.249 11.454V142.548C24.2527 145.584 25.4493 148.495 27.5763 150.642C29.7034 152.789 32.5873 153.996 35.5954 154H95.8222C98.8303 153.996 101.714 152.789 103.841 150.642C105.968 148.495 107.165 145.584 107.169 142.548V11.454C107.165 8.41755 105.969 5.50632 103.842 3.35901C101.715 1.21171 98.8307 0.00369686 95.8222 0V0ZM27.7024 24.9172H103.715V129.011H27.7024V24.9172ZM35.5954 3.48549H95.8222C97.9148 3.48918 99.9206 4.32997 101.4 5.82362C102.88 7.31727 103.712 9.34196 103.715 11.454V21.4297H27.7024V11.454C27.7055 9.34196 28.538 7.31727 30.0175 5.82362C31.497 4.32997 33.5028 3.48918 35.5954 3.48549ZM95.8222 150.514H35.5954C33.5032 150.511 31.4977 149.67 30.0182 148.177C28.5388 146.684 27.706 144.66 27.7024 142.548V132.496H103.715V142.548C103.712 144.66 102.879 146.684 101.399 148.177C99.9199 149.67 97.9144 150.511 95.8222 150.514Z" fill="#1D1D1B"/>
<path d="M58.2225 14.3253H73.1941C73.642 14.31 74.0664 14.1197 74.3778 13.7946C74.6893 13.4694 74.8634 13.0348 74.8634 12.5826C74.8634 12.1303 74.6893 11.6958 74.3778 11.3706C74.0664 11.0454 73.642 10.8551 73.1941 10.8398H58.2225C57.7746 10.8551 57.3502 11.0454 57.0388 11.3706C56.7273 11.6958 56.5532 12.1303 56.5532 12.5826C56.5532 13.0348 56.7273 13.4694 57.0388 13.7946C57.3502 14.1197 57.7746 14.31 58.2225 14.3253Z" fill="#1D1D1B"/>
<path d="M132.272 27.9318H129.2V24.8254C129.185 24.3734 128.996 23.945 128.674 23.6307C128.352 23.3163 127.921 23.1406 127.473 23.1406C127.025 23.1406 126.595 23.3163 126.273 23.6307C125.95 23.945 125.762 24.3734 125.747 24.8254V27.9318H122.675C122.217 27.9318 121.778 28.1153 121.455 28.442C121.131 28.7686 120.949 29.2116 120.949 29.6736C120.949 30.1355 121.131 30.5785 121.455 30.9052C121.778 31.2318 122.217 31.4153 122.675 31.4153H125.747V34.5157C125.762 34.9677 125.95 35.3961 126.273 35.7105C126.595 36.0248 127.025 36.2005 127.473 36.2005C127.921 36.2005 128.352 36.0248 128.674 35.7105C128.996 35.3961 129.185 34.9677 129.2 34.5157V31.4113H132.272C132.73 31.4113 133.169 31.2278 133.492 30.9012C133.816 30.5745 133.998 30.1315 133.998 29.6696C133.998 29.2076 133.816 28.7646 133.492 28.438C133.169 28.1113 132.73 27.9278 132.272 27.9278V27.9318Z" fill="#1D1D1B"/>
<path d="M67.2441 139.603H64.1723C63.9407 139.595 63.7098 139.634 63.4934 139.718C63.2771 139.802 63.0797 139.929 62.9131 140.092C62.7464 140.254 62.6139 140.449 62.5234 140.664C62.4329 140.88 62.3862 141.111 62.3862 141.345C62.3862 141.579 62.4329 141.811 62.5234 142.026C62.6139 142.242 62.7464 142.436 62.9131 142.599C63.0797 142.762 63.2771 142.889 63.4934 142.973C63.7098 143.057 63.9407 143.096 64.1723 143.088H67.2441C67.4758 143.096 67.7067 143.057 67.923 142.973C68.1393 142.889 68.3367 142.762 68.5034 142.599C68.67 142.436 68.8026 142.242 68.8931 142.026C68.9836 141.811 69.0302 141.579 69.0302 141.345C69.0302 141.111 68.9836 140.88 68.8931 140.664C68.8026 140.449 68.67 140.254 68.5034 140.092C68.3367 139.929 68.1393 139.802 67.923 139.718C67.7067 139.634 67.4758 139.595 67.2441 139.603Z" fill="#1D1D1B"/>
<path d="M115.605 13.7246H115.583C115.356 13.7272 115.132 13.7748 114.924 13.8648C114.716 13.9547 114.527 14.0852 114.368 14.2488C114.21 14.4124 114.085 14.6059 114.001 14.8182C113.917 15.0306 113.874 15.2576 113.877 15.4863L113.915 18.5867C113.919 19.0454 114.102 19.4838 114.425 19.8066C114.748 20.1294 115.184 20.3105 115.638 20.3105H115.658C115.884 20.3084 116.108 20.2614 116.317 20.172C116.525 20.0826 116.714 19.9527 116.872 19.7897C117.031 19.6267 117.156 19.4337 117.241 19.2218C117.326 19.0099 117.368 18.7833 117.366 18.5548L117.33 15.4524C117.326 14.993 117.143 14.5539 116.819 14.2304C116.496 13.9069 116.06 13.7251 115.605 13.7246Z" fill="#1D1D1B"/>
<path d="M115.605 109.332H115.583C115.125 109.338 114.688 109.527 114.368 109.858C114.048 110.188 113.872 110.634 113.877 111.096L113.915 114.196C113.92 114.654 114.104 115.091 114.427 115.413C114.75 115.735 115.185 115.915 115.638 115.916H115.658C115.885 115.913 116.109 115.866 116.317 115.776C116.526 115.686 116.715 115.555 116.873 115.391C117.032 115.227 117.157 115.034 117.241 114.821C117.325 114.608 117.367 114.381 117.364 114.152L117.328 111.052C117.322 110.594 117.138 110.157 116.816 109.836C116.493 109.514 116.058 109.333 115.605 109.332Z" fill="#1D1D1B"/>
<path d="M122.181 47.2617H122.162C121.935 47.2643 121.711 47.312 121.503 47.4019C121.294 47.4919 121.106 47.6223 120.947 47.7859C120.789 47.9495 120.664 48.143 120.579 48.3553C120.495 48.5677 120.453 48.7947 120.456 49.0234L120.491 52.1258C120.497 52.5842 120.681 53.0218 121.004 53.344C121.327 53.6662 121.763 53.8472 122.217 53.8476H122.239C122.697 53.8419 123.133 53.6528 123.453 53.3221C123.773 52.9914 123.95 52.5461 123.945 52.0839L123.909 48.9835C123.903 48.5249 123.719 48.087 123.395 47.7647C123.072 47.4424 122.636 47.2617 122.181 47.2617Z" fill="#1D1D1B"/>
<path d="M15.7644 121.457H15.7427C15.5158 121.46 15.2916 121.507 15.083 121.597C14.8744 121.687 14.6854 121.818 14.5268 121.982C14.3682 122.146 14.2431 122.339 14.1587 122.552C14.0743 122.764 14.0322 122.992 14.0348 123.221L14.0723 126.321C14.077 126.78 14.261 127.218 14.5841 127.54C14.9073 127.863 15.3436 128.044 15.798 128.043H15.8138C16.0402 128.041 16.264 127.995 16.4726 127.906C16.6811 127.817 16.8703 127.688 17.0292 127.525C17.1882 127.362 17.3138 127.17 17.399 126.958C17.4842 126.746 17.5272 126.52 17.5257 126.291L17.4901 123.189C17.487 122.729 17.3038 122.289 16.9806 121.964C16.6574 121.64 16.2202 121.458 15.7644 121.457Z" fill="#1D1D1B"/>
<path d="M15.7644 38.6289H15.7427C15.5159 38.6313 15.2918 38.6787 15.0832 38.7685C14.8746 38.8584 14.6855 38.9888 14.5269 39.1524C14.3683 39.316 14.2432 39.5096 14.1587 39.7221C14.0743 39.9345 14.0322 40.1617 14.0348 40.3906L14.0743 43.493C14.079 43.9519 14.2629 44.3903 14.586 44.713C14.9091 45.0358 15.3454 45.2169 15.8 45.2168H15.8138C16.0406 45.2142 16.2647 45.1665 16.4732 45.0765C16.6817 44.9864 16.8706 44.8557 17.029 44.6919C17.1875 44.5281 17.3123 44.3344 17.3966 44.1218C17.4808 43.9093 17.5226 43.682 17.5197 43.4531L17.4842 40.3527C17.479 39.8951 17.2958 39.4579 16.974 39.1354C16.6523 38.8129 16.2178 38.631 15.7644 38.6289Z" fill="#1D1D1B"/>
<path d="M1.72777 85.5137H1.70603C1.4794 85.5163 1.25551 85.5639 1.04712 85.6539C0.838741 85.7438 0.649954 85.8743 0.491543 86.0379C0.333131 86.2015 0.208199 86.395 0.123879 86.6073C0.039559 86.8196 -0.00249627 87.0466 0.000114512 87.2754L0.0356955 90.3798C0.0419257 90.8383 0.22663 91.2759 0.5499 91.5981C0.873169 91.9202 1.30905 92.1011 1.76335 92.1016H1.77916C2.23703 92.0958 2.6739 91.9068 2.99377 91.5761C3.31364 91.2454 3.49035 90.8 3.48508 90.3379L3.44949 87.2375C3.44431 86.7795 3.26081 86.342 2.93865 86.0194C2.61649 85.6969 2.18154 85.5152 1.72777 85.5137Z" fill="#1D1D1B"/>
<path d="M15.7824 110.407C16.2401 110.407 16.679 110.223 17.0026 109.897C17.3263 109.57 17.5081 109.127 17.5081 108.665C17.5081 108.203 17.3263 107.76 17.0026 107.434C16.679 107.107 16.2401 106.923 15.7824 106.923H13.5586V104.679C13.5434 104.227 13.3549 103.799 13.0327 103.484C12.7106 103.17 12.28 102.994 11.8319 102.994C11.3838 102.994 10.9533 103.17 10.6311 103.484C10.309 103.799 10.1204 104.227 10.1053 104.679V106.923H7.88144C7.42376 106.923 6.98483 107.107 6.6612 107.434C6.33757 107.76 6.15576 108.203 6.15576 108.665C6.15576 109.127 6.33757 109.57 6.6612 109.897C6.98483 110.223 7.42376 110.407 7.88144 110.407H10.1053V112.651C10.0974 112.885 10.1363 113.118 10.2195 113.337C10.3028 113.555 10.4287 113.754 10.5898 113.922C10.7509 114.091 10.9439 114.224 11.1573 114.316C11.3707 114.407 11.6001 114.454 11.8319 114.454C12.0637 114.454 12.2931 114.407 12.5065 114.316C12.7199 114.224 12.9129 114.091 13.074 113.922C13.2352 113.754 13.3611 113.555 13.4443 113.337C13.5276 113.118 13.5664 112.885 13.5586 112.651V110.407H15.7824Z" fill="#1D1D1B"/>
<path d="M87.8838 105.674L80.0085 113.623L76.067 109.645C75.9067 109.483 75.7164 109.355 75.5069 109.267C75.2975 109.179 75.073 109.134 74.8463 109.134C74.6197 109.134 74.3952 109.179 74.1857 109.267C73.9763 109.355 73.786 109.483 73.6257 109.645C73.4654 109.807 73.3383 109.999 73.2515 110.21C73.1648 110.421 73.1201 110.648 73.1201 110.877C73.1201 111.106 73.1648 111.332 73.2515 111.543C73.3383 111.755 73.4654 111.947 73.6257 112.109L78.7869 117.314C78.9472 117.476 79.1375 117.604 79.3469 117.692C79.5564 117.779 79.7808 117.825 80.0076 117.825C80.2343 117.825 80.4588 117.779 80.6682 117.692C80.8776 117.604 81.0679 117.476 81.2282 117.314L90.3211 108.136C90.6448 107.81 90.8267 107.366 90.8267 106.904C90.8267 106.442 90.6448 105.999 90.3211 105.672C89.9974 105.346 89.5583 105.162 89.1005 105.162C88.6426 105.162 88.2036 105.346 87.8798 105.672L87.8838 105.674Z" fill="#1D1D1B"/>
<path d="M57.0226 106.422C56.8623 106.26 56.672 106.131 56.4626 106.044C56.2532 105.956 56.0287 105.911 55.802 105.911C55.5752 105.911 55.3508 105.956 55.1413 106.044C54.9319 106.131 54.7416 106.26 54.5813 106.422L51.6617 109.368L48.7441 106.422C48.5854 106.252 48.3946 106.116 48.1831 106.022C47.9715 105.929 47.7434 105.878 47.5123 105.875C47.2812 105.872 47.0519 105.915 46.8377 106.003C46.6236 106.091 46.4291 106.221 46.2658 106.386C46.1024 106.551 45.9735 106.748 45.8867 106.964C45.7999 107.18 45.757 107.412 45.7604 107.645C45.7639 107.878 45.8137 108.108 45.9068 108.322C46 108.535 46.1347 108.728 46.3028 108.888L49.2205 111.832L46.3028 114.779C46.1425 114.941 46.0154 115.133 45.9286 115.344C45.8419 115.556 45.7972 115.782 45.7972 116.011C45.7972 116.473 45.9791 116.916 46.3028 117.243C46.6265 117.57 47.0656 117.753 47.5234 117.753C47.9813 117.753 48.4203 117.57 48.7441 117.243L51.6617 114.298L54.5813 117.243C54.9051 117.57 55.3441 117.753 55.802 117.753C56.2598 117.753 56.6989 117.57 57.0226 117.243C57.3463 116.916 57.5282 116.473 57.5282 116.011C57.5282 115.549 57.3463 115.106 57.0226 114.779L54.1049 111.832L57.0226 108.888C57.3461 108.56 57.5278 108.117 57.5278 107.655C57.5278 107.192 57.3461 106.749 57.0226 106.422Z" fill="#1D1D1B"/>
<path d="M97.5608 63.8761C97.5608 46.1494 83.271 31.7266 65.7079 31.7266C48.1447 31.7266 33.855 46.1494 33.855 63.8761C33.855 81.6028 48.1447 96.0256 65.7079 96.0256C83.271 96.0256 97.5608 81.6008 97.5608 63.8761ZM65.7079 35.2121C81.3675 35.2121 94.1074 48.0707 94.1074 63.8761C94.1154 70.1143 92.0961 76.183 88.3591 81.1519C84.5599 74.3864 78.7365 69.6161 72.1639 67.7087C74.5584 66.2811 76.4217 64.0987 77.4669 61.4975C78.512 58.8962 78.681 56.0203 77.9479 53.3126C77.2147 50.6049 75.6201 48.2155 73.4095 46.5122C71.1989 44.8089 68.4949 43.8863 65.7138 43.8863C62.9327 43.8863 60.2287 44.8089 58.0181 46.5122C55.8075 48.2155 54.2129 50.6049 53.4798 53.3126C52.7466 56.0203 52.9156 58.8962 53.9608 61.4975C55.0059 64.0987 56.8692 66.2811 59.2638 67.7087C52.6912 69.6161 46.8658 74.3884 43.0546 81.1539C39.3163 76.1855 37.2956 70.1168 37.3024 63.8781C37.3083 48.0707 50.0483 35.2121 65.7079 35.2121ZM56.4825 56.6916C56.4825 54.8491 57.0239 53.0481 58.0381 51.5161C59.0523 49.9842 60.4938 48.7902 62.1804 48.0852C63.8669 47.3803 65.7227 47.1959 67.5131 47.5555C69.3035 47.9151 70.948 48.8025 72.2386 50.1054C73.5293 51.4084 74.4082 53.0684 74.764 54.8755C75.1199 56.6826 74.9369 58.5557 74.238 60.2578C73.5392 61.9599 72.3559 63.4146 70.8379 64.4379C69.3199 65.4613 67.5353 66.0073 65.7099 66.0069C63.2631 66.0042 60.9173 65.0219 59.1873 63.2755C57.4574 61.529 56.4846 59.1612 56.4825 56.6916ZM65.7079 92.5421C61.9407 92.544 58.2109 91.7871 54.7372 90.3156C51.2635 88.8442 48.1157 86.6879 45.4781 83.973C49.7814 75.5037 57.4847 70.2665 65.7079 70.2665C73.931 70.2665 81.6343 75.5037 85.9376 83.973C83.3001 86.6879 80.1522 88.8442 76.6785 90.3156C73.2048 91.7871 69.4751 92.544 65.7079 92.5421Z" fill="#1D1D1B"/>
</svg>
