<svg width="135" height="154" viewBox="0 0 135 154" fill="none" xmlns="http://www.w3.org/2000/svg">
<path d="M96.5375 0H35.8612C32.8307 0.00369585 29.9253 1.21143 27.7823 3.35831C25.6394 5.50518 24.4339 8.4159 24.4302 11.452V142.548C24.4339 145.584 25.6394 148.495 27.7823 150.642C29.9253 152.789 32.8307 153.996 35.8612 154H96.5375C99.568 153.996 102.473 152.789 104.616 150.642C106.759 148.495 107.965 145.584 107.969 142.548V11.452C107.965 8.4159 106.759 5.50518 104.616 3.35831C102.473 1.21143 99.568 0.00369585 96.5375 0V0ZM27.9093 24.9172H104.489V129.011H27.9093V24.9172ZM35.8612 3.48549H96.5375C98.6453 3.48918 100.666 4.3297 102.156 5.82292C103.647 7.31613 104.486 9.34031 104.489 11.452V21.4277H27.9093V11.452C27.913 9.34031 28.7519 7.31613 30.2424 5.82292C31.7329 4.3297 33.7534 3.48918 35.8612 3.48549ZM96.5375 150.514H35.8612C33.7534 150.511 31.7329 149.67 30.2424 148.177C28.7519 146.684 27.913 144.66 27.9093 142.548V132.496H104.489V142.548C104.486 144.66 103.647 146.684 102.156 148.177C100.666 149.67 98.6453 150.511 96.5375 150.514Z" fill="#1D1D1B"/>
<path d="M58.6573 14.3253H73.7407C74.1919 14.31 74.6194 14.1197 74.9332 13.7946C75.247 13.4694 75.4224 13.0348 75.4224 12.5826C75.4224 12.1303 75.247 11.6958 74.9332 11.3706C74.6194 11.0454 74.1919 10.8551 73.7407 10.8398H58.6573C58.2061 10.8551 57.7785 11.0454 57.4647 11.3706C57.151 11.6958 56.9756 12.1303 56.9756 12.5826C56.9756 13.0348 57.151 13.4694 57.4647 13.7946C57.7785 14.1197 58.2061 14.31 58.6573 14.3253Z" fill="#1D1D1B"/>
<path d="M133.26 27.9318H130.165V24.8254C130.15 24.3734 129.96 23.945 129.635 23.6307C129.311 23.3163 128.877 23.1406 128.425 23.1406C127.974 23.1406 127.54 23.3163 127.216 23.6307C126.891 23.945 126.701 24.3734 126.686 24.8254V27.9318H123.591C123.13 27.9318 122.688 28.1153 122.362 28.442C122.036 28.7686 121.853 29.2116 121.853 29.6736C121.853 30.1355 122.036 30.5785 122.362 30.9052C122.688 31.2318 123.13 31.4153 123.591 31.4153H126.686V34.5157C126.701 34.9677 126.891 35.3961 127.216 35.7105C127.54 36.0248 127.974 36.2005 128.425 36.2005C128.877 36.2005 129.311 36.0248 129.635 35.7105C129.96 35.3961 130.15 34.9677 130.165 34.5157V31.4113H133.26C133.721 31.4113 134.163 31.2278 134.489 30.9012C134.815 30.5745 134.998 30.1315 134.998 29.6696C134.998 29.2076 134.815 28.7646 134.489 28.438C134.163 28.1113 133.721 27.9278 133.26 27.9278V27.9318Z" fill="#1D1D1B"/>
<path d="M67.7457 139.603H64.651C64.4176 139.595 64.185 139.634 63.967 139.718C63.7491 139.802 63.5503 139.929 63.3824 140.092C63.2145 140.254 63.0809 140.449 62.9897 140.664C62.8986 140.88 62.8516 141.111 62.8516 141.345C62.8516 141.579 62.8986 141.811 62.9897 142.026C63.0809 142.242 63.2145 142.436 63.3824 142.599C63.5503 142.762 63.7491 142.889 63.967 142.973C64.185 143.057 64.4176 143.096 64.651 143.088H67.7457C67.9791 143.096 68.2117 143.057 68.4297 142.973C68.6476 142.889 68.8465 142.762 69.0144 142.599C69.1823 142.436 69.3158 142.242 69.407 142.026C69.4981 141.811 69.5451 141.579 69.5451 141.345C69.5451 141.111 69.4981 140.88 69.407 140.664C69.3158 140.449 69.1823 140.254 69.0144 140.092C68.8465 139.929 68.6476 139.802 68.4297 139.718C68.2117 139.634 67.9791 139.595 67.7457 139.603Z" fill="#1D1D1B"/>
<path d="M116.467 13.7246H116.445C115.984 13.7309 115.544 13.9201 115.222 14.2507C114.9 14.5813 114.722 15.0263 114.727 15.4883L114.764 18.5887C114.769 19.047 114.954 19.4849 115.279 19.8073C115.605 20.1297 116.044 20.3106 116.501 20.3105H116.521C116.749 20.3084 116.974 20.2614 117.184 20.172C117.394 20.0826 117.584 19.9527 117.744 19.7897C117.904 19.6267 118.03 19.4337 118.116 19.2218C118.201 19.0099 118.244 18.7833 118.242 18.5548L118.206 15.4524C118.202 14.993 118.017 14.5539 117.691 14.2304C117.366 13.9069 116.926 13.7251 116.467 13.7246Z" fill="#1D1D1B"/>
<path d="M116.467 109.332H116.445C116.217 109.335 115.991 109.382 115.782 109.472C115.572 109.562 115.381 109.693 115.222 109.856C115.062 110.02 114.936 110.213 114.851 110.426C114.766 110.638 114.724 110.865 114.727 111.094L114.765 114.196C114.77 114.654 114.955 115.092 115.28 115.413C115.605 115.735 116.044 115.916 116.501 115.916H116.521C116.749 115.913 116.975 115.866 117.185 115.776C117.395 115.686 117.586 115.555 117.745 115.391C117.905 115.227 118.031 115.034 118.116 114.821C118.2 114.608 118.243 114.381 118.24 114.152L118.204 111.052C118.198 110.594 118.012 110.157 117.687 109.836C117.362 109.514 116.924 109.333 116.467 109.332Z" fill="#1D1D1B"/>
<path d="M123.074 47.2599C122.845 47.2625 122.62 47.3101 122.41 47.4C122.2 47.49 122.01 47.6205 121.85 47.7841C121.691 47.9477 121.565 48.1412 121.48 48.3535C121.395 48.5658 121.352 48.7928 121.355 49.0216L121.391 52.124C121.397 52.5825 121.583 53.0201 121.909 53.3423C122.235 53.6644 122.674 53.8453 123.131 53.8458H123.151C123.613 53.84 124.053 53.651 124.375 53.3203C124.697 52.9896 124.875 52.5442 124.87 52.0821L124.834 48.9817C124.828 48.5197 124.639 48.0791 124.309 47.7563C123.979 47.4336 123.535 47.2551 123.074 47.2599Z" fill="#1D1D1B"/>
<path d="M15.8604 121.457C15.6318 121.46 15.406 121.507 15.1958 121.598C14.9856 121.688 14.7952 121.818 14.6354 121.982C14.4757 122.146 14.3497 122.339 14.2646 122.552C14.1796 122.765 14.1371 122.992 14.1398 123.221L14.1776 126.321C14.1823 126.78 14.3676 127.218 14.6932 127.541C15.0188 127.863 15.4583 128.044 15.9162 128.043H15.9321C16.3925 128.039 16.8326 127.853 17.156 127.525C17.4793 127.196 17.6594 126.753 17.6567 126.291L17.6209 123.189C17.6198 122.959 17.5734 122.732 17.4841 122.52C17.3949 122.308 17.2647 122.116 17.101 121.955C16.9373 121.794 16.7434 121.667 16.5304 121.582C16.3175 121.496 16.0898 121.454 15.8604 121.457Z" fill="#1D1D1B"/>
<path d="M15.8604 38.629C15.6319 38.6314 15.4061 38.6788 15.196 38.7687C14.9858 38.8585 14.7954 38.989 14.6356 39.1526C14.4758 39.3162 14.3497 39.5098 14.2646 39.7222C14.1796 39.9347 14.1371 40.1618 14.1398 40.3907L14.1796 43.4932C14.1848 43.9516 14.3703 44.3896 14.6958 44.7119C15.0213 45.0342 15.4605 45.215 15.9181 45.215H15.9321C16.1606 45.2124 16.3863 45.1647 16.5964 45.0746C16.8064 44.9845 16.9967 44.8538 17.1563 44.69C17.316 44.5262 17.4418 44.3325 17.5266 44.12C17.6115 43.9074 17.6536 43.6802 17.6507 43.4513L17.6149 40.3508C17.6131 40.1222 17.5662 39.8962 17.4769 39.6858C17.3877 39.4754 17.2578 39.2847 17.0948 39.1247C16.9317 38.9647 16.7388 38.8386 16.5269 38.7535C16.3151 38.6684 16.0886 38.6261 15.8604 38.629Z" fill="#1D1D1B"/>
<path d="M1.74066 85.5137H1.71876C1.49044 85.5163 1.26488 85.5639 1.05494 85.6539C0.845001 85.7438 0.654805 85.8743 0.495211 86.0379C0.335618 86.2015 0.209752 86.395 0.124803 86.6073C0.0398542 86.8196 -0.0025149 87.0466 0.000115367 87.2754L0.0359619 90.3798C0.0422386 90.8383 0.228322 91.2759 0.554003 91.5981C0.879685 91.9202 1.31882 92.1011 1.77651 92.1016H1.79244C2.25373 92.0958 2.69385 91.9068 3.01611 91.5761C3.33837 91.2454 3.5164 90.8 3.51108 90.3379L3.47524 87.2375C3.47001 86.7795 3.28514 86.342 2.96058 86.0194C2.63602 85.6969 2.19782 85.5152 1.74066 85.5137Z" fill="#1D1D1B"/>
<path d="M15.9001 110.406C16.3612 110.406 16.8034 110.222 17.1294 109.896C17.4555 109.569 17.6387 109.126 17.6387 108.664C17.6387 108.202 17.4555 107.759 17.1294 107.432C16.8034 107.106 16.3612 106.922 15.9001 106.922H13.6597V104.678C13.6676 104.444 13.6284 104.211 13.5446 103.993C13.4607 103.774 13.3338 103.575 13.1715 103.407C13.0092 103.239 12.8148 103.105 12.5998 103.013C12.3848 102.922 12.1537 102.875 11.9201 102.875C11.6866 102.875 11.4555 102.922 11.2405 103.013C11.0255 103.105 10.8311 103.239 10.6687 103.407C10.5064 103.575 10.3796 103.774 10.2957 103.993C10.2118 104.211 10.1727 104.444 10.1806 104.678V106.922H7.94217C7.48108 106.922 7.03887 107.106 6.71283 107.432C6.38678 107.759 6.20361 108.202 6.20361 108.664C6.20361 109.126 6.38678 109.569 6.71283 109.896C7.03887 110.222 7.48108 110.406 7.94217 110.406H10.1806V112.65C10.1727 112.884 10.2118 113.117 10.2957 113.335C10.3796 113.554 10.5064 113.753 10.6687 113.921C10.8311 114.089 11.0255 114.223 11.2405 114.315C11.4555 114.406 11.6866 114.453 11.9201 114.453C12.1537 114.453 12.3848 114.406 12.5998 114.315C12.8148 114.223 13.0092 114.089 13.1715 113.921C13.3338 113.753 13.4607 113.554 13.5446 113.335C13.6284 113.117 13.6676 112.884 13.6597 112.65V110.406H15.9001Z" fill="#1D1D1B"/>
<path d="M96.1301 32.7695H36.2664C35.8048 32.7695 35.3621 32.9532 35.0357 33.2803C34.7093 33.6073 34.5259 34.0508 34.5259 34.5133V65.7749C34.5259 66.2374 34.7093 66.6809 35.0357 67.008C35.3621 67.335 35.8048 67.5187 36.2664 67.5187H96.1301C96.5917 67.5187 97.0345 67.335 97.3609 67.008C97.6873 66.6809 97.8707 66.2374 97.8707 65.7749V34.5153C97.8709 34.2861 97.8261 34.0591 97.7387 33.8474C97.6514 33.6356 97.5232 33.4431 97.3616 33.281C97.1999 33.1188 97.008 32.9902 96.7967 32.9025C96.5854 32.8147 96.3589 32.7695 96.1301 32.7695ZM94.3955 64.0432H38.005V36.255H94.3955V64.0432Z" fill="#1D1D1B"/>
<path d="M36.2672 78.7443H60.0135C60.4647 78.729 60.8923 78.5387 61.206 78.2135C61.5198 77.8884 61.6952 77.4538 61.6952 77.0016C61.6952 76.5493 61.5198 76.1147 61.206 75.7896C60.8923 75.4644 60.4647 75.2741 60.0135 75.2588H36.2672C36.0338 75.2509 35.8012 75.2901 35.5832 75.3741C35.3653 75.4582 35.1665 75.5853 34.9986 75.7479C34.8307 75.9105 34.6971 76.1053 34.606 76.3207C34.5148 76.536 34.4678 76.7676 34.4678 77.0016C34.4678 77.2355 34.5148 77.4671 34.606 77.6824C34.6971 77.8978 34.8307 78.0926 34.9986 78.2552C35.1665 78.4178 35.3653 78.5449 35.5832 78.629C35.8012 78.713 36.0338 78.7522 36.2672 78.7443Z" fill="#1D1D1B"/>
<path d="M96.1306 75.2588H67.7461C67.295 75.2741 66.8674 75.4644 66.5536 75.7896C66.2398 76.1147 66.0645 76.5493 66.0645 77.0016C66.0645 77.4538 66.2398 77.8884 66.5536 78.2135C66.8674 78.5387 67.295 78.729 67.7461 78.7443H96.1306C96.364 78.7522 96.5966 78.713 96.8145 78.629C97.0325 78.5449 97.2313 78.4178 97.3992 78.2552C97.5671 78.0926 97.7007 77.8978 97.7918 77.6824C97.883 77.4671 97.93 77.2355 97.93 77.0016C97.93 76.7676 97.883 76.536 97.7918 76.3207C97.7007 76.1053 97.5671 75.9105 97.3992 75.7479C97.2313 75.5853 97.0325 75.4582 96.8145 75.3741C96.5966 75.2901 96.364 75.2509 96.1306 75.2588Z" fill="#1D1D1B"/>
<path d="M36.2672 89.2482H46.0991C46.5503 89.2329 46.9779 89.0426 47.2916 88.7174C47.6054 88.3923 47.7808 87.9577 47.7808 87.5055C47.7808 87.0532 47.6054 86.6186 47.2916 86.2935C46.9779 85.9683 46.5503 85.778 46.0991 85.7627H36.2672C36.0338 85.7548 35.8012 85.794 35.5832 85.878C35.3653 85.9621 35.1665 86.0892 34.9986 86.2518C34.8307 86.4144 34.6971 86.6092 34.606 86.8246C34.5148 87.0399 34.4678 87.2715 34.4678 87.5055C34.4678 87.7394 34.5148 87.971 34.606 88.1864C34.6971 88.4017 34.8307 88.5965 34.9986 88.7591C35.1665 88.9218 35.3653 89.0489 35.5832 89.1329C35.8012 89.2169 36.0338 89.2561 36.2672 89.2482Z" fill="#1D1D1B"/>
<path d="M96.1309 85.7627H53.8321C53.3809 85.778 52.9533 85.9683 52.6395 86.2935C52.3258 86.6186 52.1504 87.0532 52.1504 87.5055C52.1504 87.9577 52.3258 88.3923 52.6395 88.7174C52.9533 89.0426 53.3809 89.2329 53.8321 89.2482H96.1309C96.3643 89.2561 96.5969 89.2169 96.8149 89.1329C97.0328 89.0489 97.2317 88.9218 97.3996 88.7591C97.5675 88.5965 97.701 88.4017 97.7922 88.1864C97.8834 87.971 97.9304 87.7394 97.9304 87.5055C97.9304 87.2715 97.8834 87.0399 97.7922 86.8246C97.701 86.6092 97.5675 86.4144 97.3996 86.2518C97.2317 86.0892 97.0328 85.9621 96.8149 85.878C96.5969 85.794 96.3643 85.7548 96.1309 85.7627Z" fill="#1D1D1B"/>
<path d="M36.2672 99.756H66.9697C67.2031 99.7639 67.4357 99.7247 67.6537 99.6407C67.8716 99.5567 68.0705 99.4296 68.2384 99.267C68.4063 99.1043 68.5398 98.9095 68.631 98.6942C68.7222 98.4788 68.7692 98.2472 68.7692 98.0133C68.7692 97.7793 68.7222 97.5477 68.631 97.3324C68.5398 97.117 68.4063 96.9222 68.2384 96.7596C68.0705 96.597 67.8716 96.4699 67.6537 96.3859C67.4357 96.3018 67.2031 96.2626 66.9697 96.2705H36.2672C36.0338 96.2626 35.8012 96.3018 35.5832 96.3859C35.3653 96.4699 35.1665 96.597 34.9986 96.7596C34.8307 96.9222 34.6971 97.117 34.606 97.3324C34.5148 97.5477 34.4678 97.7793 34.4678 98.0133C34.4678 98.2472 34.5148 98.4788 34.606 98.6942C34.6971 98.9095 34.8307 99.1043 34.9986 99.267C35.1665 99.4296 35.3653 99.5567 35.5832 99.6407C35.8012 99.7247 36.0338 99.7639 36.2672 99.756Z" fill="#1D1D1B"/>
<path d="M96.13 96.2666H74.7037C74.4703 96.2587 74.2377 96.2979 74.0198 96.3819C73.8018 96.466 73.603 96.5931 73.4351 96.7557C73.2672 96.9183 73.1337 97.1131 73.0425 97.3285C72.9513 97.5439 72.9043 97.7754 72.9043 98.0094C72.9043 98.2433 72.9513 98.4749 73.0425 98.6903C73.1337 98.9057 73.2672 99.1005 73.4351 99.2631C73.603 99.4257 73.8018 99.5528 74.0198 99.6368C74.2377 99.7208 74.4703 99.76 74.7037 99.7521H96.13C96.3634 99.76 96.596 99.7208 96.8139 99.6368C97.0319 99.5528 97.2307 99.4257 97.3986 99.2631C97.5665 99.1005 97.7 98.9057 97.7912 98.6903C97.8824 98.4749 97.9294 98.2433 97.9294 98.0094C97.9294 97.7754 97.8824 97.5439 97.7912 97.3285C97.7 97.1131 97.5665 96.9183 97.3986 96.7557C97.2307 96.5931 97.0319 96.466 96.8139 96.3819C96.596 96.2979 96.3634 96.2587 96.13 96.2666Z" fill="#1D1D1B"/>
<path d="M36.2672 110.256H55.3754C55.8266 110.241 56.2541 110.05 56.5679 109.725C56.8817 109.4 57.0571 108.966 57.0571 108.513C57.0571 108.061 56.8817 107.626 56.5679 107.301C56.2541 106.976 55.8266 106.786 55.3754 106.771H36.2672C36.0338 106.763 35.8012 106.802 35.5832 106.886C35.3653 106.97 35.1665 107.097 34.9986 107.26C34.8307 107.422 34.6971 107.617 34.606 107.832C34.5148 108.048 34.4678 108.279 34.4678 108.513C34.4678 108.747 34.5148 108.979 34.606 109.194C34.6971 109.41 34.8307 109.604 34.9986 109.767C35.1665 109.93 35.3653 110.057 35.5832 110.141C35.8012 110.225 36.0338 110.264 36.2672 110.256Z" fill="#1D1D1B"/>
<path d="M96.1311 106.771H63.1084C62.6573 106.786 62.2297 106.976 61.9159 107.301C61.6022 107.626 61.4268 108.061 61.4268 108.513C61.4268 108.966 61.6022 109.4 61.9159 109.725C62.2297 110.05 62.6573 110.241 63.1084 110.256H96.1311C96.3644 110.264 96.597 110.225 96.815 110.141C97.0329 110.057 97.2318 109.93 97.3997 109.767C97.5676 109.604 97.7011 109.41 97.7923 109.194C97.8835 108.979 97.9305 108.747 97.9305 108.513C97.9305 108.279 97.8835 108.048 97.7923 107.832C97.7011 107.617 97.5676 107.422 97.3997 107.26C97.2318 107.097 97.0329 106.97 96.815 106.886C96.597 106.802 96.3644 106.763 96.1311 106.771Z" fill="#1D1D1B"/>
<path d="M48.4166 117.276H36.2687C36.0353 117.268 35.8027 117.308 35.5847 117.392C35.3668 117.476 35.1679 117.603 35 117.765C34.8321 117.928 34.6986 118.123 34.6074 118.338C34.5162 118.554 34.4692 118.785 34.4692 119.019C34.4692 119.253 34.5162 119.485 34.6074 119.7C34.6986 119.915 34.8321 120.11 35 120.273C35.1679 120.435 35.3668 120.563 35.5847 120.647C35.8027 120.731 36.0353 120.77 36.2687 120.762H48.4166C48.65 120.77 48.8826 120.731 49.1006 120.647C49.3185 120.563 49.5174 120.435 49.6853 120.273C49.8532 120.11 49.9867 119.915 50.0779 119.7C50.1691 119.485 50.2161 119.253 50.2161 119.019C50.2161 118.785 50.1691 118.554 50.0779 118.338C49.9867 118.123 49.8532 117.928 49.6853 117.765C49.5174 117.603 49.3185 117.476 49.1006 117.392C48.8826 117.308 48.65 117.268 48.4166 117.276Z" fill="#1D1D1B"/>
<path d="M84.5362 117.275H56.1597C55.7085 117.291 55.2809 117.481 54.9672 117.806C54.6534 118.131 54.478 118.566 54.478 119.018C54.478 119.47 54.6534 119.905 54.9672 120.23C55.2809 120.555 55.7085 120.746 56.1597 120.761H84.5362C84.9874 120.746 85.415 120.555 85.7287 120.23C86.0425 119.905 86.2179 119.47 86.2179 119.018C86.2179 118.566 86.0425 118.131 85.7287 117.806C85.415 117.481 84.9874 117.291 84.5362 117.275Z" fill="#1D1D1B"/>
</svg>
