<svg width="40" height="41" viewBox="0 0 40 41" fill="none" xmlns="http://www.w3.org/2000/svg">
<path fill-rule="evenodd" clip-rule="evenodd" d="M20 0C8.955 0 0 9.17889 0 20.5C0 31.8211 8.955 41 20 41C31.045 41 40 31.8211 40 20.5C40 9.17889 31.045 0 20 0ZM19.9997 3.4165C29.1897 3.4165 36.6663 11.0801 36.6663 20.4998C36.6663 29.9196 29.1897 37.5832 19.9997 37.5832C10.8097 37.5832 3.33301 29.9196 3.33301 20.4998C3.33301 11.0801 10.8097 3.4165 19.9997 3.4165ZM28.4763 15.6584C29.3063 15.5559 30.098 15.3304 30.833 14.9956C30.283 15.8395 29.588 16.5809 28.7847 17.172C29.0447 23.088 24.7413 29.6838 17.1213 29.6838C14.8047 29.6838 12.6497 28.9885 10.833 27.7944C13.0113 28.0575 15.183 27.4374 16.9113 26.0502C15.118 26.0161 13.5997 24.8014 13.078 23.1307C13.7213 23.2571 14.3547 23.2195 14.9313 23.0589C12.958 22.6523 11.5947 20.8295 11.6397 18.882C12.193 19.1964 12.8247 19.386 13.4963 19.4082C11.6697 18.156 11.1513 15.6823 12.2263 13.7929C14.2497 16.3366 17.2747 18.0108 20.683 18.1868C20.0847 15.5559 22.0313 13.0225 24.6813 13.0225C25.8597 13.0225 26.928 13.5333 27.6747 14.3516C28.6097 14.1636 29.488 13.8134 30.2813 13.3317C29.973 14.314 29.3247 15.1374 28.4763 15.6584Z" fill="white"/>
</svg>
